<svg xmlns="http://www.w3.org/2000/svg" xmlns:xlink="http://www.w3.org/1999/xlink" width="474pt" height="376pt" viewBox="0.00 0.00 474.07 375.60">
<g id="graph0" class="graph" transform="scale(1 1) rotate(0) translate(4 371.6)">
<polygon fill="white" stroke="none" points="-4,4 -4,-371.6 470.07,-371.6 470.07,4 -4,4"/>
<!-- _1c -->
<g id="node1" class="node">
<title>_1c</title>
<ellipse fill="none" stroke="black" cx="46.6" cy="-162.8" rx="46.6" ry="29.42"/>
<text text-anchor="middle" x="46.6" y="-167" font-family="Times,serif" font-size="14.00">1 CH</text>
<text text-anchor="middle" x="46.6" y="-150.2" font-family="Times,serif" font-size="14.00">bound=4</text>
</g>
<!-- _1c0_0c -->
<g id="node2" class="node">
<title>_1c0_0c</title>
<ellipse fill="none" stroke="black" cx="197.68" cy="-224.8" rx="46.6" ry="29.42"/>
<text text-anchor="middle" x="197.68" y="-229" font-family="Times,serif" font-size="14.00">0 CH</text>
<text text-anchor="middle" x="197.68" y="-212.2" font-family="Times,serif" font-size="14.00">bound=3</text>
</g>
<!-- _1c&#45;&#45;_1c0_0c -->
<g id="edge1" class="edge">
<title>_1c--_1c0_0c</title>
<path fill="none" stroke="black" d="M85.99,-178.77C108.16,-187.99 135.96,-199.55 158.16,-208.78"/>
<text text-anchor="middle" x="122.14" y="-201.71" font-family="Times,serif" font-size="14.00">1=x</text>
</g>
<!-- _1c1_0c -->
<g id="node3" class="node">
<title>_1c1_0c</title>
<ellipse fill="none" stroke="black" cx="197.68" cy="-124.8" rx="46.6" ry="29.42"/>
<text text-anchor="middle" x="197.68" y="-129" font-family="Times,serif" font-size="14.00">0 CH</text>
<text text-anchor="middle" x="197.68" y="-112.2" font-family="Times,serif" font-size="14.00">bound=4</text>
</g>
<!-- _1c&#45;&#45;_1c1_0c -->
<g id="edge2" class="edge">
<title>_1c--_1c1_0c</title>
<path fill="none" stroke="black" d="M90.32,-151.91C110.28,-146.82 133.99,-140.78 153.95,-135.69"/>
<text text-anchor="middle" x="122.14" y="-150.28" font-family="Times,serif" font-size="14.00">1=y</text>
</g>
<!-- _1c0_0c0_0a -->
<g id="node4" class="node">
<title>_1c0_0c0_0a</title>
<polygon fill="none" stroke="black" points="351.17,-361.6 285.28,-361.6 285.28,-320 351.17,-320 351.17,-361.6"/>
<text text-anchor="middle" x="318.22" y="-345" font-family="Times,serif" font-size="14.00">0=a</text>
<text text-anchor="middle" x="318.22" y="-328.2" font-family="Times,serif" font-size="14.00">bound=1</text>
</g>
<!-- _1c0_0c&#45;&#45;_1c0_0c0_0a -->
<g id="edge3" class="edge">
<title>_1c0_0c--_1c0_0c0_0a</title>
<path fill="none" stroke="black" d="M223.82,-249.4C245.16,-270.28 275.46,-299.93 295.7,-319.73"/>
</g>
<!-- _1c0_0c1_0b -->
<g id="node5" class="node">
<title>_1c0_0c1_0b</title>
<polygon fill="none" stroke="black" points="351.17,-297.6 285.28,-297.6 285.28,-256 351.17,-256 351.17,-297.6"/>
<text text-anchor="middle" x="318.22" y="-281" font-family="Times,serif" font-size="14.00">0=b</text>
<text text-anchor="middle" x="318.22" y="-264.2" font-family="Times,serif" font-size="14.00">bound=2</text>
</g>
<!-- _1c0_0c&#45;&#45;_1c0_0c1_0b -->
<g id="edge4" class="edge">
<title>_1c0_0c--_1c0_0c1_0b</title>
<path fill="none" stroke="black" d="M236.51,-241.4C252.1,-248.23 269.97,-256.07 284.93,-262.63"/>
</g>
<!-- _1c0_0c2_0c -->
<g id="node6" class="node">
<title>_1c0_0c2_0c</title>
<polygon fill="none" stroke="black" points="351.17,-233.6 285.28,-233.6 285.28,-192 351.17,-192 351.17,-233.6"/>
<polygon fill="none" stroke="black" points="355.17,-237.6 281.28,-237.6 281.28,-188 355.17,-188 355.17,-237.6"/>
<text text-anchor="middle" x="318.22" y="-217" font-family="Times,serif" font-size="14.00">0=c (3)</text>
<text text-anchor="middle" x="318.22" y="-200.2" font-family="Times,serif" font-size="14.00">bound=3</text>
</g>
<!-- _1c0_0c&#45;&#45;_1c0_0c2_0c -->
<g id="edge5" class="edge">
<title>_1c0_0c--_1c0_0c2_0c</title>
<path fill="none" stroke="black" d="M244.17,-220.19C256.32,-218.97 269.28,-217.65 280.86,-216.48"/>
</g>
<!-- _1c1_0c0_0a -->
<g id="node9" class="node">
<title>_1c1_0c0_0a</title>
<polygon fill="none" stroke="black" points="351.17,-169.6 285.28,-169.6 285.28,-128 351.17,-128 351.17,-169.6"/>
<text text-anchor="middle" x="318.22" y="-153" font-family="Times,serif" font-size="14.00">0=a</text>
<text text-anchor="middle" x="318.22" y="-136.2" font-family="Times,serif" font-size="14.00">bound=3</text>
</g>
<!-- _1c1_0c&#45;&#45;_1c1_0c0_0a -->
<g id="edge8" class="edge">
<title>_1c1_0c--_1c1_0c0_0a</title>
<path fill="none" stroke="black" d="M242.49,-133.67C256.6,-136.53 271.97,-139.64 285.08,-142.29"/>
</g>
<!-- _1c1_0c1_0b -->
<g id="node10" class="node">
<title>_1c1_0c1_0b</title>
<polygon fill="none" stroke="black" points="351.17,-109.6 285.28,-109.6 285.28,-68 351.17,-68 351.17,-109.6"/>
<text text-anchor="middle" x="318.22" y="-93" font-family="Times,serif" font-size="14.00">0=b</text>
<text text-anchor="middle" x="318.22" y="-76.2" font-family="Times,serif" font-size="14.00">bound=4</text>
</g>
<!-- _1c1_0c&#45;&#45;_1c1_0c1_0b -->
<g id="edge9" class="edge">
<title>_1c1_0c--_1c1_0c1_0b</title>
<path fill="none" stroke="black" d="M240.14,-112.21C254.83,-107.75 271.13,-102.8 284.94,-98.6"/>
</g>
<!-- _1c1_0c2_0c -->
<g id="node11" class="node">
<title>_1c1_0c2_0c</title>
<polygon fill="none" stroke="black" points="351.17,-45.6 285.28,-45.6 285.28,-4 351.17,-4 351.17,-45.6"/>
<polygon fill="none" stroke="black" points="355.17,-49.6 281.28,-49.6 281.28,0 355.17,0 355.17,-49.6"/>
<text text-anchor="middle" x="318.22" y="-29" font-family="Times,serif" font-size="14.00">0=c (3)</text>
<text text-anchor="middle" x="318.22" y="-12.2" font-family="Times,serif" font-size="14.00">bound=3</text>
</g>
<!-- _1c1_0c&#45;&#45;_1c1_0c2_0c -->
<g id="edge10" class="edge">
<title>_1c1_0c--_1c1_0c2_0c</title>
<path fill="none" stroke="black" d="M226.47,-101.35C244.81,-85.88 268.82,-65.63 287.53,-49.85"/>
</g>
<!-- _1c0_0c0_0a0_1x -->
<g id="node7" class="node">
<title>_1c0_0c0_0a0_1x</title>
<polygon fill="none" stroke="black" points="462.07,-363.6 396.17,-363.6 396.17,-322 462.07,-322 462.07,-363.6"/>
<polygon fill="none" stroke="black" points="466.07,-367.6 392.17,-367.6 392.17,-318 466.07,-318 466.07,-367.6"/>
<text text-anchor="middle" x="429.12" y="-347" font-family="Times,serif" font-size="14.00">1=x (1)</text>
<text text-anchor="middle" x="429.12" y="-330.2" font-family="Times,serif" font-size="14.00">bound=1</text>
</g>
<!-- _1c0_0c0_0a&#45;&#45;_1c0_0c0_0a0_1x -->
<g id="edge6" class="edge">
<title>_1c0_0c0_0a--_1c0_0c0_0a0_1x</title>
<path fill="none" stroke="black" d="M351.6,-341.39C364.27,-341.63 378.85,-341.9 391.86,-342.13"/>
</g>
<!-- _1c0_0c1_0b0_1x -->
<g id="node8" class="node">
<title>_1c0_0c1_0b0_1x</title>
<polygon fill="none" stroke="black" points="462.07,-295.6 396.17,-295.6 396.17,-254 462.07,-254 462.07,-295.6"/>
<polygon fill="none" stroke="black" points="466.07,-299.6 392.17,-299.6 392.17,-250 466.07,-250 466.07,-299.6"/>
<text text-anchor="middle" x="429.12" y="-279" font-family="Times,serif" font-size="14.00">1=x (2)</text>
<text text-anchor="middle" x="429.12" y="-262.2" font-family="Times,serif" font-size="14.00">bound=2</text>
</g>
<!-- _1c0_0c1_0b&#45;&#45;_1c0_0c1_0b0_1x -->
<g id="edge7" class="edge">
<title>_1c0_0c1_0b--_1c0_0c1_0b0_1x</title>
<path fill="none" stroke="black" d="M351.6,-276.21C364.27,-275.97 378.85,-275.7 391.86,-275.47"/>
</g>
<!-- _1c1_0c0_0a0_1y -->
<g id="node12" class="node">
<title>_1c1_0c0_0a0_1y</title>
<polygon fill="none" stroke="black" points="462.07,-173.6 396.17,-173.6 396.17,-132 462.07,-132 462.07,-173.6"/>
<polygon fill="none" stroke="black" points="466.07,-177.6 392.17,-177.6 392.17,-128 466.07,-128 466.07,-177.6"/>
<text text-anchor="middle" x="429.12" y="-157" font-family="Times,serif" font-size="14.00">1=y (3)</text>
<text text-anchor="middle" x="429.12" y="-140.2" font-family="Times,serif" font-size="14.00">bound=3</text>
</g>
<!-- _1c1_0c0_0a&#45;&#45;_1c1_0c0_0a0_1y -->
<g id="edge11" class="edge">
<title>_1c1_0c0_0a--_1c1_0c0_0a0_1y</title>
<path fill="none" stroke="black" d="M351.6,-149.99C364.27,-150.45 378.85,-150.99 391.86,-151.47"/>
</g>
<!-- _1c1_0c1_0b0_1y -->
<g id="node13" class="node">
<title>_1c1_0c1_0b0_1y</title>
<polygon fill="none" stroke="black" points="462.07,-105.6 396.17,-105.6 396.17,-64 462.07,-64 462.07,-105.6"/>
<polygon fill="none" stroke="black" points="466.07,-109.6 392.17,-109.6 392.17,-60 466.07,-60 466.07,-109.6"/>
<text text-anchor="middle" x="429.12" y="-89" font-family="Times,serif" font-size="14.00">1=y (4)</text>
<text text-anchor="middle" x="429.12" y="-72.2" font-family="Times,serif" font-size="14.00">bound=4</text>
</g>
<!-- _1c1_0c1_0b&#45;&#45;_1c1_0c1_0b0_1y -->
<g id="edge12" class="edge">
<title>_1c1_0c1_0b--_1c1_0c1_0b0_1y</title>
<path fill="none" stroke="black" d="M351.6,-87.61C364.27,-87.15 378.85,-86.61 391.86,-86.13"/>
</g>
</g>
</svg>