<svg xmlns="http://www.w3.org/2000/svg" xmlns:xlink="http://www.w3.org/1999/xlink" width="313pt" height="194pt" viewBox="0.00 0.00 312.98 193.60">
<g id="graph0" class="graph" transform="scale(1 1) rotate(0) translate(4 189.6)">
<polygon fill="white" stroke="none" points="-4,4 -4,-189.6 308.98,-189.6 308.98,4 -4,4"/>
<!-- r -->
<g id="node1" class="node">
<title>r</title>
<polygon fill="none" stroke="black" points="65.9,-113.6 0,-113.6 0,-72 65.9,-72 65.9,-113.6"/>
<text text-anchor="middle" x="32.95" y="-97" font-family="Times,serif" font-size="14.00">ROOT</text>
<text text-anchor="middle" x="32.95" y="-80.2" font-family="Times,serif" font-size="14.00">bound=5</text>
</g>
<!-- r0_0c -->
<g id="node2" class="node">
<title>r0_0c</title>
<ellipse fill="none" stroke="black" cx="148.49" cy="-92.8" rx="46.6" ry="29.42"/>
<text text-anchor="middle" x="148.49" y="-97" font-family="Times,serif" font-size="14.00">0 CH</text>
<text text-anchor="middle" x="148.49" y="-80.2" font-family="Times,serif" font-size="14.00">bound=5</text>
</g>
<!-- r&#45;&#45;r0_0c -->
<g id="edge1" class="edge">
<title>r--r0_0c</title>
<path fill="none" stroke="black" d="M66.18,-92.8C77.2,-92.8 89.74,-92.8 101.62,-92.8"/>
</g>
<!-- r0_0c0_0a -->
<g id="node3" class="node">
<title>r0_0c0_0a</title>
<polygon fill="none" stroke="black" points="300.98,-181.6 235.09,-181.6 235.09,-140 300.98,-140 300.98,-181.6"/>
<polygon fill="none" stroke="black" points="304.98,-185.6 231.09,-185.6 231.09,-136 304.98,-136 304.98,-185.6"/>
<text text-anchor="middle" x="268.03" y="-165" font-family="Times,serif" font-size="14.00">0=a (1)</text>
<text text-anchor="middle" x="268.03" y="-148.2" font-family="Times,serif" font-size="14.00">bound=1</text>
</g>
<!-- r0_0c&#45;&#45;r0_0c0_0a -->
<g id="edge2" class="edge">
<title>r0_0c--r0_0c0_0a</title>
<path fill="none" stroke="black" d="M183.49,-112.47C198.27,-121.02 215.61,-131.05 230.65,-139.75"/>
</g>
<!-- r0_0c1_0b -->
<g id="node4" class="node">
<title>r0_0c1_0b</title>
<polygon fill="none" stroke="black" points="300.98,-113.6 235.09,-113.6 235.09,-72 300.98,-72 300.98,-113.6"/>
<polygon fill="none" stroke="black" points="304.98,-117.6 231.09,-117.6 231.09,-68 304.98,-68 304.98,-117.6"/>
<text text-anchor="middle" x="268.03" y="-97" font-family="Times,serif" font-size="14.00">0=b (5)</text>
<text text-anchor="middle" x="268.03" y="-80.2" font-family="Times,serif" font-size="14.00">bound=5</text>
</g>
<!-- r0_0c&#45;&#45;r0_0c1_0b -->
<g id="edge3" class="edge">
<title>r0_0c--r0_0c1_0b</title>
<path fill="none" stroke="black" d="M195.27,-92.8C207,-92.8 219.46,-92.8 230.65,-92.8"/>
</g>
<!-- r0_0c2_0c -->
<g id="node5" class="node">
<title>r0_0c2_0c</title>
<polygon fill="none" stroke="black" points="300.98,-45.6 235.09,-45.6 235.09,-4 300.98,-4 300.98,-45.6"/>
<polygon fill="none" stroke="black" points="304.98,-49.6 231.09,-49.6 231.09,0 304.98,0 304.98,-49.6"/>
<text text-anchor="middle" x="268.03" y="-29" font-family="Times,serif" font-size="14.00">0=c (4)</text>
<text text-anchor="middle" x="268.03" y="-12.2" font-family="Times,serif" font-size="14.00">bound=4</text>
</g>
<!-- r0_0c&#45;&#45;r0_0c2_0c -->
<g id="edge4" class="edge">
<title>r0_0c--r0_0c2_0c</title>
<path fill="none" stroke="black" d="M183.49,-73.13C198.27,-64.58 215.61,-54.55 230.65,-45.85"/>
</g>
</g>
</svg>