<?xml version="1.0" encoding="UTF-8" standalone="no"?>
<!DOCTYPE svg PUBLIC "-//W3C//DTD SVG 1.1//EN"
 "http://www.w3.org/Graphics/SVG/1.1/DTD/svg11.dtd">
<!-- Generated by graphviz version 12.2.1 (20241206.2353)
 -->
<!-- Title: EvalNodeLayout Pages: 1 -->
<svg width="610pt" height="297pt"
 viewBox="0.00 0.00 610.39 296.88" xmlns="http://www.w3.org/2000/svg" xmlns:xlink="http://www.w3.org/1999/xlink">
<g id="graph0" class="graph" transform="scale(1 1) rotate(0) translate(4 292.88)">
<title>EvalNodeLayout</title>
<polygon fill="white" stroke="none" points="-4,4 -4,-292.88 606.39,-292.88 606.39,4 -4,4"/>
<!-- EvalNode -->
<g id="node1" class="node">
<title>EvalNode</title>
<ellipse fill="none" stroke="black" stroke-width="0" cx="172.89" cy="-148.17" rx="172.89" ry="140.71"/>
<polygon fill="lightgray" stroke="none" points="59.64,-221.67 59.64,-242.67 286.14,-242.67 286.14,-221.67 59.64,-221.67"/>
<polygon fill="none" stroke="black" points="59.64,-221.67 59.64,-242.67 286.14,-242.67 286.14,-221.67 59.64,-221.67"/>
<text text-anchor="start" x="142.14" y="-227.37" font-family="Helvetica,sans-Serif" font-weight="bold" font-size="14.00">EvalNode</text>
<polygon fill="none" stroke="black" points="59.64,-200.67 59.64,-221.67 92.64,-221.67 92.64,-200.67 59.64,-200.67"/>
<text text-anchor="start" x="82.14" y="-205.37" font-family="Helvetica,sans-Serif" font-size="14.00">0</text>
<polygon fill="none" stroke="black" points="92.64,-200.67 92.64,-221.67 286.14,-221.67 286.14,-200.67 92.64,-200.67"/>
<text text-anchor="start" x="95.64" y="-205.37" font-family="Helvetica,sans-Serif" font-size="14.00">int8_t letter_</text>
<polygon fill="none" stroke="black" points="59.64,-179.67 59.64,-200.67 92.64,-200.67 92.64,-179.67 59.64,-179.67"/>
<text text-anchor="start" x="82.14" y="-184.37" font-family="Helvetica,sans-Serif" font-size="14.00">1</text>
<polygon fill="none" stroke="black" points="92.64,-179.67 92.64,-200.67 286.14,-200.67 286.14,-179.67 92.64,-179.67"/>
<text text-anchor="start" x="95.64" y="-184.37" font-family="Helvetica,sans-Serif" font-size="14.00">int8_t cell_</text>
<polygon fill="none" stroke="black" points="59.64,-158.67 59.64,-179.67 92.64,-179.67 92.64,-158.67 59.64,-158.67"/>
<text text-anchor="start" x="70.14" y="-163.37" font-family="Helvetica,sans-Serif" font-size="14.00">2&#45;3</text>
<polygon fill="none" stroke="black" points="92.64,-158.67 92.64,-179.67 286.14,-179.67 286.14,-158.67 92.64,-158.67"/>
<text text-anchor="start" x="95.64" y="-163.37" font-family="Helvetica,sans-Serif" font-size="14.00">uint16_t points_</text>
<polygon fill="none" stroke="black" points="59.64,-137.67 59.64,-158.67 92.64,-158.67 92.64,-137.67 59.64,-137.67"/>
<text text-anchor="start" x="70.14" y="-142.37" font-family="Helvetica,sans-Serif" font-size="14.00">4&#45;7</text>
<polygon fill="none" stroke="black" points="92.64,-137.67 92.64,-158.67 286.14,-158.67 286.14,-137.67 92.64,-137.67"/>
<text text-anchor="start" x="95.64" y="-142.37" font-family="Helvetica,sans-Serif" font-size="14.00">uint32_t bound_</text>
<polygon fill="none" stroke="black" points="59.64,-53.67 59.64,-137.67 92.64,-137.67 92.64,-53.67 59.64,-53.67"/>
<text text-anchor="start" x="62.64" y="-121.37" font-family="Helvetica,sans-Serif" font-size="14.00">8&#45;31</text>
<polygon fill="none" stroke="black" points="92.64,-116.67 92.64,-137.67 286.14,-137.67 286.14,-116.67 92.64,-116.67"/>
<text text-anchor="start" x="95.64" y="-121.37" font-family="Helvetica,sans-Serif" font-size="14.00">vector&lt;EvalNode*&gt; children_</text>
<polygon fill="none" stroke="black" points="92.64,-95.67 92.64,-116.67 133.14,-116.67 133.14,-95.67 92.64,-95.67"/>
<text text-anchor="start" x="103.14" y="-100.37" font-family="Helvetica,sans-Serif" font-size="14.00">8&#45;15</text>
<polygon fill="none" stroke="black" points="133.14,-95.67 133.14,-116.67 286.14,-116.67 286.14,-95.67 133.14,-95.67"/>
<text text-anchor="start" x="136.14" y="-100.37" font-family="Helvetica,sans-Serif" font-size="14.00">EvalNode* data</text>
<polygon fill="none" stroke="black" points="92.64,-74.67 92.64,-95.67 133.14,-95.67 133.14,-74.67 92.64,-74.67"/>
<text text-anchor="start" x="95.64" y="-79.37" font-family="Helvetica,sans-Serif" font-size="14.00">16&#45;23</text>
<polygon fill="none" stroke="black" points="133.14,-74.67 133.14,-95.67 286.14,-95.67 286.14,-74.67 133.14,-74.67"/>
<text text-anchor="start" x="136.14" y="-79.37" font-family="Helvetica,sans-Serif" font-size="14.00">EvalNode* end</text>
<polygon fill="none" stroke="black" points="92.64,-53.67 92.64,-74.67 133.14,-74.67 133.14,-53.67 92.64,-53.67"/>
<text text-anchor="start" x="95.64" y="-58.37" font-family="Helvetica,sans-Serif" font-size="14.00">24&#45;31</text>
<polygon fill="none" stroke="black" points="133.14,-53.67 133.14,-74.67 286.14,-74.67 286.14,-53.67 133.14,-53.67"/>
<text text-anchor="start" x="136.14" y="-58.37" font-family="Helvetica,sans-Serif" font-size="14.00">EvalNode* end_capacity</text>
<polygon fill="none" stroke="black" points="58.64,-52.67 58.64,-243.67 287.14,-243.67 287.14,-52.67 58.64,-52.67"/>
</g>
<!-- array -->
<g id="node2" class="node">
<title>array</title>
<ellipse fill="none" stroke="black" stroke-width="0" cx="492.08" cy="-96.17" rx="110.31" ry="96.17"/>
<polygon fill="lightgray" stroke="none" points="423.08,-138.17 423.08,-159.17 561.08,-159.17 561.08,-138.17 423.08,-138.17"/>
<polygon fill="none" stroke="black" points="423.08,-138.17 423.08,-159.17 561.08,-159.17 561.08,-138.17 423.08,-138.17"/>
<text text-anchor="start" x="426.08" y="-143.87" font-family="Helvetica,sans-Serif" font-weight="bold" font-size="14.00">vector backing array</text>
<polygon fill="none" stroke="black" points="423.08,-117.17 423.08,-138.17 467.71,-138.17 467.71,-117.17 423.08,-117.17"/>
<text text-anchor="start" x="441.65" y="-121.87" font-family="Helvetica,sans-Serif" font-size="14.00">0</text>
<polygon fill="none" stroke="black" points="467.71,-117.17 467.71,-138.17 561.08,-138.17 561.08,-117.17 467.71,-117.17"/>
<text text-anchor="start" x="482.52" y="-121.87" font-family="Helvetica,sans-Serif" font-size="14.00">EvalNode*</text>
<polygon fill="none" stroke="black" points="423.08,-96.17 423.08,-117.17 467.71,-117.17 467.71,-96.17 423.08,-96.17"/>
<text text-anchor="start" x="441.65" y="-100.87" font-family="Helvetica,sans-Serif" font-size="14.00">8</text>
<polygon fill="none" stroke="black" points="467.71,-96.17 467.71,-117.17 561.08,-117.17 561.08,-96.17 467.71,-96.17"/>
<text text-anchor="start" x="482.52" y="-100.87" font-family="Helvetica,sans-Serif" font-size="14.00">EvalNode*</text>
<polygon fill="none" stroke="black" points="423.08,-75.17 423.08,-96.17 467.71,-96.17 467.71,-75.17 423.08,-75.17"/>
<text text-anchor="start" x="437.9" y="-79.87" font-family="Helvetica,sans-Serif" font-size="14.00">16</text>
<polygon fill="none" stroke="black" points="467.71,-75.17 467.71,-96.17 561.08,-96.17 561.08,-75.17 467.71,-75.17"/>
<text text-anchor="start" x="482.52" y="-79.87" font-family="Helvetica,sans-Serif" font-size="14.00">EvalNode*</text>
<polygon fill="none" stroke="black" points="423.08,-54.17 423.08,-75.17 467.71,-75.17 467.71,-54.17 423.08,-54.17"/>
<text text-anchor="start" x="437.9" y="-58.87" font-family="Helvetica,sans-Serif" font-size="14.00">24</text>
<polygon fill="none" stroke="black" points="467.71,-54.17 467.71,-75.17 561.08,-75.17 561.08,-54.17 467.71,-54.17"/>
<text text-anchor="start" x="482.52" y="-58.87" font-family="Helvetica,sans-Serif" font-size="14.00">EvalNode*</text>
<polygon fill="none" stroke="black" points="423.08,-33.17 423.08,-54.17 561.08,-54.17 561.08,-33.17 423.08,-33.17"/>
<text text-anchor="start" x="486.46" y="-37.87" font-family="Helvetica,sans-Serif" font-size="14.00">...</text>
<polygon fill="none" stroke="black" points="422.08,-32.17 422.08,-160.17 562.08,-160.17 562.08,-32.17 422.08,-32.17"/>
</g>
<!-- EvalNode&#45;&gt;array -->
<g id="edge1" class="edge">
<title>EvalNode:e&#45;&gt;array:w</title>
<path fill="none" stroke="black" d="M287.14,-106.17C343.84,-106.17 359.35,-124.91 410.58,-127.39"/>
<polygon fill="black" stroke="black" points="410.49,-130.89 420.57,-127.63 410.66,-123.9 410.49,-130.89"/>
</g>
<!-- EvalNode&#45;&gt;array -->
<g id="edge2" class="edge">
<title>EvalNode:e&#45;&gt;array:w</title>
<path fill="none" stroke="black" d="M287.14,-85.17C343.13,-85.17 359.92,-85.6 410.7,-85.66"/>
<polygon fill="black" stroke="black" points="410.57,-89.16 420.57,-85.67 410.57,-82.16 410.57,-89.16"/>
</g>
<!-- EvalNode&#45;&gt;array -->
<g id="edge3" class="edge">
<title>EvalNode:e&#45;&gt;array:w</title>
<path fill="none" stroke="black" d="M287.14,-64.17C343.77,-64.17 359.4,-46.3 410.59,-43.93"/>
<polygon fill="black" stroke="black" points="410.65,-47.43 420.57,-43.7 410.49,-40.43 410.65,-47.43"/>
</g>
</g>
</svg>
