<?xml version="1.0" encoding="UTF-8" standalone="no"?>
<!DOCTYPE svg PUBLIC "-//W3C//DTD SVG 1.1//EN"
 "http://www.w3.org/Graphics/SVG/1.1/DTD/svg11.dtd">
<!-- Generated by graphviz version 12.2.1 (20241206.2353)
 -->
<!-- Title: EvalNodeLayout Pages: 1 -->
<svg width="227pt" height="283pt"
 viewBox="0.00 0.00 226.75 283.00" xmlns="http://www.w3.org/2000/svg" xmlns:xlink="http://www.w3.org/1999/xlink">
<g id="graph0" class="graph" transform="scale(1 1) rotate(0) translate(4 279)">
<title>EvalNodeLayout</title>
<polygon fill="white" stroke="none" points="-4,4 -4,-279 222.75,-279 222.75,4 -4,4"/>
<!-- EvalNode -->
<g id="node1" class="node">
<title>EvalNode</title>
<polygon fill="lightgray" stroke="none" points="1,-253 1,-274 217.75,-274 217.75,-253 1,-253"/>
<polygon fill="none" stroke="black" points="1,-253 1,-274 217.75,-274 217.75,-253 1,-253"/>
<text text-anchor="start" x="78.62" y="-258.7" font-family="Helvetica,sans-Serif" font-weight="bold" font-size="14.00">EvalNode</text>
<polygon fill="none" stroke="black" points="1,-232 1,-253 34,-253 34,-232 1,-232"/>
<text text-anchor="start" x="23.5" y="-236.7" font-family="Helvetica,sans-Serif" font-size="14.00">0</text>
<polygon fill="none" stroke="black" points="34,-232 34,-253 217.75,-253 217.75,-232 34,-232"/>
<text text-anchor="start" x="37" y="-236.7" font-family="Helvetica,sans-Serif" font-size="14.00">int8_t letter_</text>
<polygon fill="none" stroke="black" points="1,-211 1,-232 34,-232 34,-211 1,-211"/>
<text text-anchor="start" x="23.5" y="-215.7" font-family="Helvetica,sans-Serif" font-size="14.00">1</text>
<polygon fill="none" stroke="black" points="34,-211 34,-232 217.75,-232 217.75,-211 34,-211"/>
<text text-anchor="start" x="37" y="-215.7" font-family="Helvetica,sans-Serif" font-size="14.00">int8_t cell_</text>
<polygon fill="none" stroke="black" points="1,-190 1,-211 34,-211 34,-190 1,-190"/>
<text text-anchor="start" x="11.5" y="-194.7" font-family="Helvetica,sans-Serif" font-size="14.00">2&#45;3</text>
<polygon fill="none" stroke="black" points="34,-190 34,-211 217.75,-211 217.75,-190 34,-190"/>
<text text-anchor="start" x="37" y="-194.7" font-family="Helvetica,sans-Serif" font-size="14.00">uint16_t points_</text>
<polygon fill="none" stroke="black" points="1,-169 1,-190 34,-190 34,-169 1,-169"/>
<text text-anchor="start" x="23.5" y="-173.7" font-family="Helvetica,sans-Serif" font-size="14.00">4</text>
<polygon fill="none" stroke="black" points="34,-169 34,-190 217.75,-190 217.75,-169 34,-169"/>
<text text-anchor="start" x="37" y="-173.7" font-family="Helvetica,sans-Serif" font-size="14.00">uint8_t num_children_</text>
<polygon fill="none" stroke="black" points="1,-148 1,-169 34,-169 34,-148 1,-148"/>
<text text-anchor="start" x="23.5" y="-152.7" font-family="Helvetica,sans-Serif" font-size="14.00">5</text>
<polygon fill="none" stroke="black" points="34,-148 34,-169 217.75,-169 217.75,-148 34,-148"/>
<text text-anchor="start" x="37" y="-152.7" font-family="Helvetica,sans-Serif" font-size="14.00">uint8_t capacity_</text>
<polygon fill="none" stroke="black" points="1,-127 1,-148 217.75,-148 217.75,-127 1,-127"/>
<text text-anchor="start" x="57.25" y="-132.7" font-family="Helvetica,sans-Serif" font-style="italic" font-size="14.00">padding (2 bytes)</text>
<polygon fill="none" stroke="black" points="1,-106 1,-127 34,-127 34,-106 1,-106"/>
<text text-anchor="start" x="4" y="-110.7" font-family="Helvetica,sans-Serif" font-size="14.00">8&#45;11</text>
<polygon fill="none" stroke="black" points="34,-106 34,-127 217.75,-127 217.75,-106 34,-106"/>
<text text-anchor="start" x="37" y="-110.7" font-family="Helvetica,sans-Serif" font-size="14.00">uint32_t bound_</text>
<polygon fill="none" stroke="black" points="1,-85 1,-106 217.75,-106 217.75,-85 1,-85"/>
<text text-anchor="start" x="57.25" y="-90.7" font-family="Helvetica,sans-Serif" font-style="italic" font-size="14.00">padding (4 bytes)</text>
<polygon fill="none" stroke="black" points="1,-1 1,-85 34,-85 34,-1 1,-1"/>
<text text-anchor="start" x="11.5" y="-68.7" font-family="Helvetica,sans-Serif" font-size="14.00">16&#45;</text>
<polygon fill="none" stroke="black" points="34,-64 34,-85 217.75,-85 217.75,-64 34,-64"/>
<text text-anchor="start" x="37" y="-68.7" font-family="Helvetica,sans-Serif" font-size="14.00">EvalNode* children_[]</text>
<polygon fill="none" stroke="black" points="34,-43 34,-64 74.5,-64 74.5,-43 34,-43"/>
<text text-anchor="start" x="37" y="-47.7" font-family="Helvetica,sans-Serif" font-size="14.00">16&#45;23</text>
<polygon fill="none" stroke="black" points="74.5,-43 74.5,-64 217.75,-64 217.75,-43 74.5,-43"/>
<text text-anchor="start" x="77.5" y="-47.7" font-family="Helvetica,sans-Serif" font-size="14.00">EvalNode* children_[0]</text>
<polygon fill="none" stroke="black" points="34,-22 34,-43 74.5,-43 74.5,-22 34,-22"/>
<text text-anchor="start" x="37" y="-26.7" font-family="Helvetica,sans-Serif" font-size="14.00">24&#45;31</text>
<polygon fill="none" stroke="black" points="74.5,-22 74.5,-43 217.75,-43 217.75,-22 74.5,-22"/>
<text text-anchor="start" x="77.5" y="-26.7" font-family="Helvetica,sans-Serif" font-size="14.00">EvalNode* children_[1]</text>
<polygon fill="none" stroke="black" points="34,-1 34,-22 217.75,-22 217.75,-1 34,-1"/>
<text text-anchor="start" x="120.25" y="-5.7" font-family="Helvetica,sans-Serif" font-size="14.00">...</text>
<polygon fill="none" stroke="black" points="0,0 0,-275 218.75,-275 218.75,0 0,0"/>
</g>
</g>
</svg>
