<svg xmlns="http://www.w3.org/2000/svg" xmlns:xlink="http://www.w3.org/1999/xlink" width="313pt" height="266pt" viewBox="0.00 0.00 312.98 265.60">
<g id="graph0" class="graph" transform="scale(1 1) rotate(0) translate(4 261.6)">
<polygon fill="white" stroke="none" points="-4,4 -4,-261.6 308.98,-261.6 308.98,4 -4,4"/>
<!-- r -->
<g id="node1" class="node">
<title>r</title>
<polygon fill="none" stroke="black" points="65.9,-148.6 0,-148.6 0,-107 65.9,-107 65.9,-148.6"/>
<text text-anchor="middle" x="32.95" y="-132" font-family="Times,serif" font-size="14.00">ROOT</text>
<text text-anchor="middle" x="32.95" y="-115.2" font-family="Times,serif" font-size="14.00">bound=6</text>
</g>
<!-- r0_0c -->
<g id="node2" class="node">
<title>r0_0c</title>
<ellipse fill="none" stroke="black" cx="148.49" cy="-166.8" rx="46.6" ry="29.42"/>
<text text-anchor="middle" x="148.49" y="-171" font-family="Times,serif" font-size="14.00">0 CH</text>
<text text-anchor="middle" x="148.49" y="-154.2" font-family="Times,serif" font-size="14.00">bound=2</text>
</g>
<!-- r&#45;&#45;r0_0c -->
<g id="edge1" class="edge">
<title>r--r0_0c</title>
<path fill="none" stroke="black" d="M66.18,-138.87C78.9,-143.24 93.65,-148.31 107.07,-152.92"/>
</g>
<!-- r1_1c -->
<g id="node3" class="node">
<title>r1_1c</title>
<ellipse fill="none" stroke="black" cx="148.49" cy="-89.8" rx="46.6" ry="29.42"/>
<text text-anchor="middle" x="148.49" y="-94" font-family="Times,serif" font-size="14.00">1 CH</text>
<text text-anchor="middle" x="148.49" y="-77.2" font-family="Times,serif" font-size="14.00">bound=4</text>
</g>
<!-- r&#45;&#45;r1_1c -->
<g id="edge2" class="edge">
<title>r--r1_1c</title>
<path fill="none" stroke="black" d="M66.18,-117.01C78.77,-112.8 93.35,-107.92 106.66,-103.47"/>
</g>
<!-- r0_0c0_0a -->
<g id="node4" class="node">
<title>r0_0c0_0a</title>
<polygon fill="none" stroke="black" points="300.98,-253.6 235.09,-253.6 235.09,-212 300.98,-212 300.98,-253.6"/>
<polygon fill="none" stroke="black" points="304.98,-257.6 231.09,-257.6 231.09,-208 304.98,-208 304.98,-257.6"/>
<text text-anchor="middle" x="268.03" y="-237" font-family="Times,serif" font-size="14.00">0=a (1)</text>
<text text-anchor="middle" x="268.03" y="-220.2" font-family="Times,serif" font-size="14.00">bound=1</text>
</g>
<!-- r0_0c&#45;&#45;r0_0c0_0a -->
<g id="edge3" class="edge">
<title>r0_0c--r0_0c0_0a</title>
<path fill="none" stroke="black" d="M184.12,-186.25C198.75,-194.46 215.79,-204.03 230.61,-212.35"/>
</g>
<!-- r0_0c1_0b -->
<g id="node5" class="node">
<title>r0_0c1_0b</title>
<polygon fill="none" stroke="black" points="300.98,-185.6 235.09,-185.6 235.09,-144 300.98,-144 300.98,-185.6"/>
<polygon fill="none" stroke="black" points="304.98,-189.6 231.09,-189.6 231.09,-140 304.98,-140 304.98,-189.6"/>
<text text-anchor="middle" x="268.03" y="-169" font-family="Times,serif" font-size="14.00">0=b (2)</text>
<text text-anchor="middle" x="268.03" y="-152.2" font-family="Times,serif" font-size="14.00">bound=2</text>
</g>
<!-- r0_0c&#45;&#45;r0_0c1_0b -->
<g id="edge4" class="edge">
<title>r0_0c--r0_0c1_0b</title>
<path fill="none" stroke="black" d="M195.27,-166.02C207,-165.82 219.46,-165.61 230.65,-165.42"/>
</g>
<!-- r1_1c0_1x -->
<g id="node6" class="node">
<title>r1_1c0_1x</title>
<polygon fill="none" stroke="black" points="300.98,-113.6 235.09,-113.6 235.09,-72 300.98,-72 300.98,-113.6"/>
<polygon fill="none" stroke="black" points="304.98,-117.6 231.09,-117.6 231.09,-68 304.98,-68 304.98,-117.6"/>
<text text-anchor="middle" x="268.03" y="-97" font-family="Times,serif" font-size="14.00">1=x (3)</text>
<text text-anchor="middle" x="268.03" y="-80.2" font-family="Times,serif" font-size="14.00">bound=3</text>
</g>
<!-- r1_1c&#45;&#45;r1_1c0_1x -->
<g id="edge5" class="edge">
<title>r1_1c--r1_1c0_1x</title>
<path fill="none" stroke="black" d="M195.27,-90.97C207,-91.27 219.46,-91.59 230.65,-91.87"/>
</g>
<!-- r1_1c1_1y -->
<g id="node7" class="node">
<title>r1_1c1_1y</title>
<polygon fill="none" stroke="black" points="300.98,-45.6 235.09,-45.6 235.09,-4 300.98,-4 300.98,-45.6"/>
<polygon fill="none" stroke="black" points="304.98,-49.6 231.09,-49.6 231.09,0 304.98,0 304.98,-49.6"/>
<text text-anchor="middle" x="268.03" y="-29" font-family="Times,serif" font-size="14.00">1=y (4)</text>
<text text-anchor="middle" x="268.03" y="-12.2" font-family="Times,serif" font-size="14.00">bound=4</text>
</g>
<!-- r1_1c&#45;&#45;r1_1c1_1y -->
<g id="edge6" class="edge">
<title>r1_1c--r1_1c1_1y</title>
<path fill="none" stroke="black" d="M184.44,-70.47C199.06,-62.39 216.04,-53 230.79,-44.84"/>
</g>
</g>
</svg>