<svg xmlns="http://www.w3.org/2000/svg" xmlns:xlink="http://www.w3.org/1999/xlink" width="520pt" height="352pt" viewBox="0.00 0.00 520.00 352.00">
<g id="graph0" class="graph" transform="scale(1 1) rotate(0) translate(4 348)">
<polygon fill="white" stroke="none" points="-4,4 -4,-348 516,-348 516,4 -4,4"/>
<!-- _2c -->
<g id="node1" class="node">
<title>_2c</title>
<path fill="LightSalmon" stroke="black" stroke-width="0" d="M42,-151C42,-151 12,-151 12,-151 6,-151 0,-145 0,-139 0,-139 0,-127 0,-127 0,-121 6,-115 12,-115 12,-115 42,-115 42,-115 48,-115 54,-121 54,-127 54,-127 54,-139 54,-139 54,-145 48,-151 42,-151"/>
<text text-anchor="middle" x="27" y="-128.8" font-family="Comic Sans MS" font-size="14.00">8</text>
</g>
<!-- _2c0_1c -->
<g id="node2" class="node">
<title>_2c0_1c</title>
<path fill="PaleGreen" stroke="black" stroke-width="0" d="M132,-175C132,-175 102,-175 102,-175 96,-175 90,-169 90,-163 90,-163 90,-151 90,-151 90,-145 96,-139 102,-139 102,-139 132,-139 132,-139 138,-139 144,-145 144,-151 144,-151 144,-163 144,-163 144,-169 138,-175 132,-175"/>
<text text-anchor="middle" x="117" y="-152.8" font-family="Comic Sans MS" font-size="14.00">8</text>
</g>
<!-- _2c&#45;&#45;_2c0_1c -->
<g id="edge1" class="edge">
<title>_2c--_2c0_1c</title>
<path fill="none" stroke="black" d="M53.93,-140.07C65.38,-143.2 78.82,-146.86 90.26,-149.98"/>
</g>
<!-- _2c1_1c -->
<g id="node3" class="node">
<title>_2c1_1c</title>
<path fill="PaleGreen" stroke="black" stroke-width="0" d="M132,-104C132,-104 102,-104 102,-104 96,-104 90,-98 90,-92 90,-92 90,-80 90,-80 90,-74 96,-68 102,-68 102,-68 132,-68 132,-68 138,-68 144,-74 144,-80 144,-80 144,-92 144,-92 144,-98 138,-104 132,-104"/>
<text text-anchor="middle" x="117" y="-81.8" font-family="Comic Sans MS" font-size="14.00">4</text>
</g>
<!-- _2c&#45;&#45;_2c1_1c -->
<g id="edge2" class="edge">
<title>_2c--_2c1_1c</title>
<path fill="none" stroke="black" d="M53.93,-119.15C65.38,-113.03 78.82,-105.86 90.26,-99.75"/>
</g>
<!-- _2c0_1c0_0c -->
<g id="node4" class="node">
<title>_2c0_1c0_0c</title>
<path fill="LightSkyBlue" stroke="black" stroke-width="0" d="M222,-276C222,-276 192,-276 192,-276 186,-276 180,-270 180,-264 180,-264 180,-252 180,-252 180,-246 186,-240 192,-240 192,-240 222,-240 222,-240 228,-240 234,-246 234,-252 234,-252 234,-264 234,-264 234,-270 228,-276 222,-276"/>
<text text-anchor="middle" x="207" y="-253.8" font-family="Comic Sans MS" font-size="14.00">4</text>
</g>
<!-- _2c0_1c&#45;&#45;_2c0_1c0_0c -->
<g id="edge3" class="edge">
<title>_2c0_1c--_2c0_1c0_0c</title>
<path fill="none" stroke="black" d="M133.33,-174.59C149.38,-193.02 174.45,-221.79 190.55,-240.27"/>
</g>
<!-- _2c0_1c1_0c -->
<g id="node5" class="node">
<title>_2c0_1c1_0c</title>
<path fill="LightSkyBlue" stroke="black" stroke-width="0" d="M222,-175C222,-175 192,-175 192,-175 186,-175 180,-169 180,-163 180,-163 180,-151 180,-151 180,-145 186,-139 192,-139 192,-139 222,-139 222,-139 228,-139 234,-145 234,-151 234,-151 234,-163 234,-163 234,-169 228,-175 222,-175"/>
<text text-anchor="middle" x="207" y="-152.8" font-family="Comic Sans MS" font-size="14.00">8</text>
</g>
<!-- _2c0_1c&#45;&#45;_2c0_1c1_0c -->
<g id="edge4" class="edge">
<title>_2c0_1c--_2c0_1c1_0c</title>
<path fill="none" stroke="black" d="M143.93,-157C155.38,-157 168.82,-157 180.26,-157"/>
</g>
<!-- _2c1_1c0_0c -->
<g id="node19" class="node">
<title>_2c1_1c0_0c</title>
<path fill="LightSkyBlue" stroke="black" stroke-width="0" d="M222,-104C222,-104 192,-104 192,-104 186,-104 180,-98 180,-92 180,-92 180,-80 180,-80 180,-74 186,-68 192,-68 192,-68 222,-68 222,-68 228,-68 234,-74 234,-80 234,-80 234,-92 234,-92 234,-98 228,-104 222,-104"/>
<text text-anchor="middle" x="207" y="-81.8" font-family="Comic Sans MS" font-size="14.00">1</text>
</g>
<!-- _2c1_1c&#45;&#45;_2c1_1c0_0c -->
<g id="edge18" class="edge">
<title>_2c1_1c--_2c1_1c0_0c</title>
<path fill="none" stroke="black" d="M143.93,-86C155.38,-86 168.82,-86 180.26,-86"/>
</g>
<!-- _2c1_1c1_0c -->
<g id="node20" class="node">
<title>_2c1_1c1_0c</title>
<path fill="LightSkyBlue" stroke="black" stroke-width="0" d="M222,-59C222,-59 192,-59 192,-59 186,-59 180,-53 180,-47 180,-47 180,-35 180,-35 180,-29 186,-23 192,-23 192,-23 222,-23 222,-23 228,-23 234,-29 234,-35 234,-35 234,-47 234,-47 234,-53 228,-59 222,-59"/>
<text text-anchor="middle" x="207" y="-36.8" font-family="Comic Sans MS" font-size="14.00">4</text>
</g>
<!-- _2c1_1c&#45;&#45;_2c1_1c1_0c -->
<g id="edge19" class="edge">
<title>_2c1_1c--_2c1_1c1_0c</title>
<path fill="none" stroke="black" d="M143.93,-72.74C155.38,-66.88 168.82,-60.01 180.26,-54.16"/>
</g>
<!-- _2c0_1c0_0c0_0a -->
<g id="node6" class="node">
<title>_2c0_1c0_0c0_0a</title>
<path fill="none" stroke="black" d="M316,-323C316,-323 286,-323 286,-323 280,-323 274,-317 274,-311 274,-311 274,-299 274,-299 274,-293 280,-287 286,-287 286,-287 316,-287 316,-287 322,-287 328,-293 328,-299 328,-299 328,-311 328,-311 328,-317 322,-323 316,-323"/>
<path fill="none" stroke="black" d="M320,-327C320,-327 282,-327 282,-327 276,-327 270,-321 270,-315 270,-315 270,-295 270,-295 270,-289 276,-283 282,-283 282,-283 320,-283 320,-283 326,-283 332,-289 332,-295 332,-295 332,-315 332,-315 332,-321 326,-327 320,-327"/>
<text text-anchor="middle" x="301" y="-300.8" font-family="Comic Sans MS" font-size="14.00">4</text>
</g>
<!-- _2c0_1c0_0c&#45;&#45;_2c0_1c0_0c0_0a -->
<g id="edge5" class="edge">
<title>_2c0_1c0_0c--_2c0_1c0_0c0_0a</title>
<path fill="none" stroke="black" d="M233.63,-271.09C244.79,-276.8 257.96,-283.53 269.62,-289.48"/>
</g>
<!-- _2c0_1c0_0c1_0b0_3c -->
<g id="node7" class="node">
<title>_2c0_1c0_0c1_0b0_3c</title>
<path fill="Khaki" stroke="black" stroke-width="0" d="M316,-276C316,-276 286,-276 286,-276 280,-276 274,-270 274,-264 274,-264 274,-252 274,-252 274,-246 280,-240 286,-240 286,-240 316,-240 316,-240 322,-240 328,-246 328,-252 328,-252 328,-264 328,-264 328,-270 322,-276 316,-276"/>
<text text-anchor="middle" x="301" y="-253.8" font-family="Comic Sans MS" font-size="14.00">1</text>
</g>
<!-- _2c0_1c0_0c&#45;&#45;_2c0_1c0_0c1_0b0_3c -->
<g id="edge6" class="edge">
<title>_2c0_1c0_0c--_2c0_1c0_0c1_0b0_3c</title>
<path fill="none" stroke="black" d="M233.63,-258C246.28,-258 261.51,-258 274.19,-258"/>
</g>
<!-- _2c0_1c1_0c0_0a0_3c -->
<g id="node12" class="node">
<title>_2c0_1c1_0c0_0a0_3c</title>
<path fill="Khaki" stroke="black" stroke-width="0" d="M316,-198C316,-198 286,-198 286,-198 280,-198 274,-192 274,-186 274,-186 274,-174 274,-174 274,-168 280,-162 286,-162 286,-162 316,-162 316,-162 322,-162 328,-168 328,-174 328,-174 328,-186 328,-186 328,-192 322,-198 316,-198"/>
<text text-anchor="middle" x="301" y="-175.8" font-family="Comic Sans MS" font-size="14.00">8</text>
</g>
<!-- _2c0_1c1_0c&#45;&#45;_2c0_1c1_0c0_0a0_3c -->
<g id="edge11" class="edge">
<title>_2c0_1c1_0c--_2c0_1c1_0c0_0a0_3c</title>
<path fill="none" stroke="black" d="M233.63,-163.41C246.28,-166.57 261.51,-170.38 274.19,-173.55"/>
</g>
<!-- _2c0_1c1_0c1_0b -->
<g id="node13" class="node">
<title>_2c0_1c1_0c1_0b</title>
<path fill="none" stroke="black" d="M316,-151C316,-151 286,-151 286,-151 280,-151 274,-145 274,-139 274,-139 274,-127 274,-127 274,-121 280,-115 286,-115 286,-115 316,-115 316,-115 322,-115 328,-121 328,-127 328,-127 328,-139 328,-139 328,-145 322,-151 316,-151"/>
<path fill="none" stroke="black" d="M320,-155C320,-155 282,-155 282,-155 276,-155 270,-149 270,-143 270,-143 270,-123 270,-123 270,-117 276,-111 282,-111 282,-111 320,-111 320,-111 326,-111 332,-117 332,-123 332,-123 332,-143 332,-143 332,-149 326,-155 320,-155"/>
<text text-anchor="middle" x="301" y="-128.8" font-family="Comic Sans MS" font-size="14.00">4</text>
</g>
<!-- _2c0_1c1_0c&#45;&#45;_2c0_1c1_0c1_0b -->
<g id="edge12" class="edge">
<title>_2c0_1c1_0c--_2c0_1c1_0c1_0b</title>
<path fill="none" stroke="black" d="M233.63,-150.31C244.79,-147.4 257.96,-143.97 269.62,-140.93"/>
</g>
<!-- _2c0_1c0_0c0_0a0_3c -->
<g id="node8" class="node">
<title>_2c0_1c0_0c0_0a0_3c</title>
<path fill="Khaki" stroke="black" stroke-width="0" d="M410,-323C410,-323 380,-323 380,-323 374,-323 368,-317 368,-311 368,-311 368,-299 368,-299 368,-293 374,-287 380,-287 380,-287 410,-287 410,-287 416,-287 422,-293 422,-299 422,-299 422,-311 422,-311 422,-317 416,-323 410,-323"/>
<text text-anchor="middle" x="395" y="-300.8" font-family="Comic Sans MS" font-size="14.00">3</text>
</g>
<!-- _2c0_1c0_0c0_0a&#45;&#45;_2c0_1c0_0c0_0a0_3c -->
<g id="edge7" class="edge">
<title>_2c0_1c0_0c0_0a--_2c0_1c0_0c0_0a0_3c</title>
<path fill="none" stroke="black" d="M332.38,-305C344,-305 357.13,-305 368.27,-305"/>
</g>
<!-- _2c0_1c0_0c1_0b0_3c0_3g -->
<g id="node11" class="node">
<title>_2c0_1c0_0c1_0b0_3c0_3g</title>
<path fill="none" stroke="black" d="M410,-278C410,-278 380,-278 380,-278 374,-278 368,-272 368,-266 368,-266 368,-254 368,-254 368,-248 374,-242 380,-242 380,-242 410,-242 410,-242 416,-242 422,-248 422,-254 422,-254 422,-266 422,-266 422,-272 416,-278 410,-278"/>
<text text-anchor="middle" x="395" y="-255.8" font-family="Comic Sans MS" font-size="14.00">1</text>
</g>
<!-- _2c0_1c0_0c1_0b0_3c&#45;&#45;_2c0_1c0_0c1_0b0_3c0_3g -->
<g id="edge10" class="edge">
<title>_2c0_1c0_0c1_0b0_3c--_2c0_1c0_0c1_0b0_3c0_3g</title>
<path fill="none" stroke="black" d="M327.63,-258.56C340.07,-258.83 355,-259.15 367.55,-259.42"/>
</g>
<!-- _2c0_1c0_0c0_0a0_3c0_3g -->
<g id="node9" class="node">
<title>_2c0_1c0_0c0_0a0_3c0_3g</title>
<path fill="none" stroke="black" d="M500,-344C500,-344 470,-344 470,-344 464,-344 458,-338 458,-332 458,-332 458,-320 458,-320 458,-314 464,-308 470,-308 470,-308 500,-308 500,-308 506,-308 512,-314 512,-320 512,-320 512,-332 512,-332 512,-338 506,-344 500,-344"/>
<text text-anchor="middle" x="485" y="-321.8" font-family="Comic Sans MS" font-size="14.00">3</text>
</g>
<!-- _2c0_1c0_0c0_0a0_3c&#45;&#45;_2c0_1c0_0c0_0a0_3c0_3g -->
<g id="edge8" class="edge">
<title>_2c0_1c0_0c0_0a0_3c--_2c0_1c0_0c0_0a0_3c0_3g</title>
<path fill="none" stroke="black" d="M421.93,-311.19C433.18,-313.87 446.35,-317.01 457.65,-319.71"/>
</g>
<!-- _2c0_1c0_0c0_0a0_3c1_3h -->
<g id="node10" class="node">
<title>_2c0_1c0_0c0_0a0_3c1_3h</title>
<path fill="none" stroke="black" d="M500,-301C500,-301 470,-301 470,-301 464,-301 458,-295 458,-289 458,-289 458,-277 458,-277 458,-271 464,-265 470,-265 470,-265 500,-265 500,-265 506,-265 512,-271 512,-277 512,-277 512,-289 512,-289 512,-295 506,-301 500,-301"/>
<text text-anchor="middle" x="485" y="-278.8" font-family="Comic Sans MS" font-size="14.00">3</text>
</g>
<!-- _2c0_1c0_0c0_0a0_3c&#45;&#45;_2c0_1c0_0c0_0a0_3c1_3h -->
<g id="edge9" class="edge">
<title>_2c0_1c0_0c0_0a0_3c--_2c0_1c0_0c0_0a0_3c1_3h</title>
<path fill="none" stroke="black" d="M421.93,-298.52C433.18,-295.7 446.35,-292.41 457.65,-289.59"/>
</g>
<!-- _2c0_1c1_0c0_0a0_3c0_3g -->
<g id="node14" class="node">
<title>_2c0_1c1_0c0_0a0_3c0_3g</title>
<path fill="none" stroke="black" d="M410,-235C410,-235 380,-235 380,-235 374,-235 368,-229 368,-223 368,-223 368,-211 368,-211 368,-205 374,-199 380,-199 380,-199 410,-199 410,-199 416,-199 422,-205 422,-211 422,-211 422,-223 422,-223 422,-229 416,-235 410,-235"/>
<text text-anchor="middle" x="395" y="-212.8" font-family="Comic Sans MS" font-size="14.00">8</text>
</g>
<!-- _2c0_1c1_0c0_0a0_3c&#45;&#45;_2c0_1c1_0c0_0a0_3c0_3g -->
<g id="edge13" class="edge">
<title>_2c0_1c1_0c0_0a0_3c--_2c0_1c1_0c0_0a0_3c0_3g</title>
<path fill="none" stroke="black" d="M327.63,-190.31C340.07,-195.31 355,-201.32 367.55,-206.36"/>
</g>
<!-- _2c0_1c1_0c0_0a0_3c1_3h -->
<g id="node15" class="node">
<title>_2c0_1c1_0c0_0a0_3c1_3h</title>
<path fill="none" stroke="black" d="M410,-192C410,-192 380,-192 380,-192 374,-192 368,-186 368,-180 368,-180 368,-168 368,-168 368,-162 374,-156 380,-156 380,-156 410,-156 410,-156 416,-156 422,-162 422,-168 422,-168 422,-180 422,-180 422,-186 416,-192 410,-192"/>
<text text-anchor="middle" x="395" y="-169.8" font-family="Comic Sans MS" font-size="14.00">7</text>
</g>
<!-- _2c0_1c1_0c0_0a0_3c&#45;&#45;_2c0_1c1_0c0_0a0_3c1_3h -->
<g id="edge14" class="edge">
<title>_2c0_1c1_0c0_0a0_3c--_2c0_1c1_0c0_0a0_3c1_3h</title>
<path fill="none" stroke="black" d="M327.63,-178.33C340.07,-177.52 355,-176.54 367.55,-175.73"/>
</g>
<!-- _2c0_1c1_0c1_0b0_3c -->
<g id="node16" class="node">
<title>_2c0_1c1_0c1_0b0_3c</title>
<path fill="Khaki" stroke="black" stroke-width="0" d="M410,-149C410,-149 380,-149 380,-149 374,-149 368,-143 368,-137 368,-137 368,-125 368,-125 368,-119 374,-113 380,-113 380,-113 410,-113 410,-113 416,-113 422,-119 422,-125 422,-125 422,-137 422,-137 422,-143 416,-149 410,-149"/>
<text text-anchor="middle" x="395" y="-126.8" font-family="Comic Sans MS" font-size="14.00">2</text>
</g>
<!-- _2c0_1c1_0c1_0b&#45;&#45;_2c0_1c1_0c1_0b0_3c -->
<g id="edge15" class="edge">
<title>_2c0_1c1_0c1_0b--_2c0_1c1_0c1_0b0_3c</title>
<path fill="none" stroke="black" d="M332.38,-132.34C344,-132.09 357.13,-131.8 368.27,-131.56"/>
</g>
<!-- _2c0_1c1_0c1_0b0_3c0_3g -->
<g id="node17" class="node">
<title>_2c0_1c1_0c1_0b0_3c0_3g</title>
<path fill="none" stroke="black" d="M500,-179C500,-179 470,-179 470,-179 464,-179 458,-173 458,-167 458,-167 458,-155 458,-155 458,-149 464,-143 470,-143 470,-143 500,-143 500,-143 506,-143 512,-149 512,-155 512,-155 512,-167 512,-167 512,-173 506,-179 500,-179"/>
<text text-anchor="middle" x="485" y="-156.8" font-family="Comic Sans MS" font-size="14.00">2</text>
</g>
<!-- _2c0_1c1_0c1_0b0_3c&#45;&#45;_2c0_1c1_0c1_0b0_3c0_3g -->
<g id="edge16" class="edge">
<title>_2c0_1c1_0c1_0b0_3c--_2c0_1c1_0c1_0b0_3c0_3g</title>
<path fill="none" stroke="black" d="M421.93,-139.84C433.18,-143.68 446.35,-148.16 457.65,-152.02"/>
</g>
<!-- _2c0_1c1_0c1_0b0_3c1_3h -->
<g id="node18" class="node">
<title>_2c0_1c1_0c1_0b0_3c1_3h</title>
<path fill="none" stroke="black" d="M500,-136C500,-136 470,-136 470,-136 464,-136 458,-130 458,-124 458,-124 458,-112 458,-112 458,-106 464,-100 470,-100 470,-100 500,-100 500,-100 506,-100 512,-106 512,-112 512,-112 512,-124 512,-124 512,-130 506,-136 500,-136"/>
<text text-anchor="middle" x="485" y="-113.8" font-family="Comic Sans MS" font-size="14.00">1</text>
</g>
<!-- _2c0_1c1_0c1_0b0_3c&#45;&#45;_2c0_1c1_0c1_0b0_3c1_3h -->
<g id="edge17" class="edge">
<title>_2c0_1c1_0c1_0b0_3c--_2c0_1c1_0c1_0b0_3c1_3h</title>
<path fill="none" stroke="black" d="M421.93,-127.17C433.18,-125.51 446.35,-123.56 457.65,-121.89"/>
</g>
<!-- _2c1_1c0_0c0_0a0_3c -->
<g id="node21" class="node">
<title>_2c1_1c0_0c0_0a0_3c</title>
<path fill="Khaki" stroke="black" stroke-width="0" d="M316,-104C316,-104 286,-104 286,-104 280,-104 274,-98 274,-92 274,-92 274,-80 274,-80 274,-74 280,-68 286,-68 286,-68 316,-68 316,-68 322,-68 328,-74 328,-80 328,-80 328,-92 328,-92 328,-98 322,-104 316,-104"/>
<text text-anchor="middle" x="301" y="-81.8" font-family="Comic Sans MS" font-size="14.00">1</text>
</g>
<!-- _2c1_1c0_0c&#45;&#45;_2c1_1c0_0c0_0a0_3c -->
<g id="edge20" class="edge">
<title>_2c1_1c0_0c--_2c1_1c0_0c0_0a0_3c</title>
<path fill="none" stroke="black" d="M233.63,-86C246.28,-86 261.51,-86 274.19,-86"/>
</g>
<!-- _2c1_1c1_0c0_0a -->
<g id="node23" class="node">
<title>_2c1_1c1_0c0_0a</title>
<path fill="none" stroke="black" d="M316,-57C316,-57 286,-57 286,-57 280,-57 274,-51 274,-45 274,-45 274,-33 274,-33 274,-27 280,-21 286,-21 286,-21 316,-21 316,-21 322,-21 328,-27 328,-33 328,-33 328,-45 328,-45 328,-51 322,-57 316,-57"/>
<path fill="none" stroke="black" d="M320,-61C320,-61 282,-61 282,-61 276,-61 270,-55 270,-49 270,-49 270,-29 270,-29 270,-23 276,-17 282,-17 282,-17 320,-17 320,-17 326,-17 332,-23 332,-29 332,-29 332,-49 332,-49 332,-55 326,-61 320,-61"/>
<text text-anchor="middle" x="301" y="-34.8" font-family="Comic Sans MS" font-size="14.00">4</text>
</g>
<!-- _2c1_1c1_0c&#45;&#45;_2c1_1c1_0c0_0a -->
<g id="edge22" class="edge">
<title>_2c1_1c1_0c--_2c1_1c1_0c0_0a</title>
<path fill="none" stroke="black" d="M233.63,-40.44C244.79,-40.2 257.96,-39.91 269.62,-39.66"/>
</g>
<!-- _2c1_1c0_0c0_0a0_3c0_3g -->
<g id="node22" class="node">
<title>_2c1_1c0_0c0_0a0_3c0_3g</title>
<path fill="none" stroke="black" d="M410,-104C410,-104 380,-104 380,-104 374,-104 368,-98 368,-92 368,-92 368,-80 368,-80 368,-74 374,-68 380,-68 380,-68 410,-68 410,-68 416,-68 422,-74 422,-80 422,-80 422,-92 422,-92 422,-98 416,-104 410,-104"/>
<text text-anchor="middle" x="395" y="-81.8" font-family="Comic Sans MS" font-size="14.00">1</text>
</g>
<!-- _2c1_1c0_0c0_0a0_3c&#45;&#45;_2c1_1c0_0c0_0a0_3c0_3g -->
<g id="edge21" class="edge">
<title>_2c1_1c0_0c0_0a0_3c--_2c1_1c0_0c0_0a0_3c0_3g</title>
<path fill="none" stroke="black" d="M327.63,-86C340.07,-86 355,-86 367.55,-86"/>
</g>
<!-- _2c1_1c1_0c0_0a0_3c -->
<g id="node24" class="node">
<title>_2c1_1c1_0c0_0a0_3c</title>
<path fill="Khaki" stroke="black" stroke-width="0" d="M410,-57C410,-57 380,-57 380,-57 374,-57 368,-51 368,-45 368,-45 368,-33 368,-33 368,-27 374,-21 380,-21 380,-21 410,-21 410,-21 416,-21 422,-27 422,-33 422,-33 422,-45 422,-45 422,-51 416,-57 410,-57"/>
<text text-anchor="middle" x="395" y="-34.8" font-family="Comic Sans MS" font-size="14.00">3</text>
</g>
<!-- _2c1_1c1_0c0_0a&#45;&#45;_2c1_1c1_0c0_0a0_3c -->
<g id="edge23" class="edge">
<title>_2c1_1c1_0c0_0a--_2c1_1c1_0c0_0a0_3c</title>
<path fill="none" stroke="black" d="M332.38,-39C344,-39 357.13,-39 368.27,-39"/>
</g>
<!-- _2c1_1c1_0c0_0a0_3c0_3g -->
<g id="node25" class="node">
<title>_2c1_1c1_0c0_0a0_3c0_3g</title>
<path fill="none" stroke="black" d="M500,-79C500,-79 470,-79 470,-79 464,-79 458,-73 458,-67 458,-67 458,-55 458,-55 458,-49 464,-43 470,-43 470,-43 500,-43 500,-43 506,-43 512,-49 512,-55 512,-55 512,-67 512,-67 512,-73 506,-79 500,-79"/>
<text text-anchor="middle" x="485" y="-56.8" font-family="Comic Sans MS" font-size="14.00">3</text>
</g>
<!-- _2c1_1c1_0c0_0a0_3c&#45;&#45;_2c1_1c1_0c0_0a0_3c0_3g -->
<g id="edge24" class="edge">
<title>_2c1_1c1_0c0_0a0_3c--_2c1_1c1_0c0_0a0_3c0_3g</title>
<path fill="none" stroke="black" d="M421.93,-45.48C433.18,-48.3 446.35,-51.59 457.65,-54.41"/>
</g>
<!-- _2c1_1c1_0c0_0a0_3c1_3h -->
<g id="node26" class="node">
<title>_2c1_1c1_0c0_0a0_3c1_3h</title>
<path fill="none" stroke="black" d="M500,-36C500,-36 470,-36 470,-36 464,-36 458,-30 458,-24 458,-24 458,-12 458,-12 458,-6 464,0 470,0 470,0 500,0 500,0 506,0 512,-6 512,-12 512,-12 512,-24 512,-24 512,-30 506,-36 500,-36"/>
<text text-anchor="middle" x="485" y="-13.8" font-family="Comic Sans MS" font-size="14.00">2</text>
</g>
<!-- _2c1_1c1_0c0_0a0_3c&#45;&#45;_2c1_1c1_0c0_0a0_3c1_3h -->
<g id="edge25" class="edge">
<title>_2c1_1c1_0c0_0a0_3c--_2c1_1c1_0c0_0a0_3c1_3h</title>
<path fill="none" stroke="black" d="M421.93,-32.81C433.18,-30.13 446.35,-26.99 457.65,-24.29"/>
</g>
</g>
</svg>