<svg xmlns="http://www.w3.org/2000/svg" xmlns:xlink="http://www.w3.org/1999/xlink" width="700pt" height="517pt" viewBox="0.00 0.00 700.00 517.00">
<g id="graph0" class="graph" transform="scale(1 1) rotate(0) translate(4 513)">
<polygon fill="white" stroke="none" points="-4,4 -4,-513 696,-513 696,4 -4,4"/>
<!-- r -->
<g id="node1" class="node">
<title>r</title>
<path fill="none" stroke="black" d="M42,-132C42,-132 12,-132 12,-132 6,-132 0,-126 0,-120 0,-120 0,-108 0,-108 0,-102 6,-96 12,-96 12,-96 42,-96 42,-96 48,-96 54,-102 54,-108 54,-108 54,-120 54,-120 54,-126 48,-132 42,-132"/>
<text text-anchor="middle" x="27" y="-109.8" font-family="Comic Sans MS" font-size="14.00">8</text>
</g>
<!-- r0_0c -->
<g id="node2" class="node">
<title>r0_0c</title>
<path fill="LightSkyBlue" stroke="black" stroke-width="0" d="M132,-165C132,-165 102,-165 102,-165 96,-165 90,-159 90,-153 90,-153 90,-141 90,-141 90,-135 96,-129 102,-129 102,-129 132,-129 132,-129 138,-129 144,-135 144,-141 144,-141 144,-153 144,-153 144,-159 138,-165 132,-165"/>
<text text-anchor="middle" x="117" y="-142.8" font-family="Comic Sans MS" font-size="14.00">7</text>
</g>
<!-- r&#45;&#45;r0_0c -->
<g id="edge1" class="edge">
<title>r--r0_0c</title>
<path fill="none" stroke="black" d="M54.4,-123.9C65.74,-128.15 78.95,-133.11 90.22,-137.33"/>
</g>
<!-- r1_1c -->
<g id="node3" class="node">
<title>r1_1c</title>
<path fill="PaleGreen" stroke="black" stroke-width="0" d="M132,-111C132,-111 102,-111 102,-111 96,-111 90,-105 90,-99 90,-99 90,-87 90,-87 90,-81 96,-75 102,-75 102,-75 132,-75 132,-75 138,-75 144,-81 144,-87 144,-87 144,-99 144,-99 144,-105 138,-111 132,-111"/>
<text text-anchor="middle" x="117" y="-88.8" font-family="Comic Sans MS" font-size="14.00">1</text>
</g>
<!-- r&#45;&#45;r1_1c -->
<g id="edge2" class="edge">
<title>r--r1_1c</title>
<path fill="none" stroke="black" d="M54.4,-107.7C65.74,-104.99 78.95,-101.84 90.22,-99.15"/>
</g>
<!-- r0_0c0_0a -->
<g id="node4" class="node">
<title>r0_0c0_0a</title>
<path fill="none" stroke="black" d="M222,-229C222,-229 192,-229 192,-229 186,-229 180,-223 180,-217 180,-217 180,-205 180,-205 180,-199 186,-193 192,-193 192,-193 222,-193 222,-193 228,-193 234,-199 234,-205 234,-205 234,-217 234,-217 234,-223 228,-229 222,-229"/>
<text text-anchor="middle" x="207" y="-206.8" font-family="Comic Sans MS" font-size="14.00">7</text>
</g>
<!-- r0_0c&#45;&#45;r0_0c0_0a -->
<g id="edge3" class="edge">
<title>r0_0c--r0_0c0_0a</title>
<path fill="none" stroke="black" d="M142.51,-164.83C154.41,-173.48 168.7,-183.87 180.7,-192.6"/>
</g>
<!-- r0_0c1_0b -->
<g id="node5" class="node">
<title>r0_0c1_0b</title>
<path fill="none" stroke="black" d="M222,-165C222,-165 192,-165 192,-165 186,-165 180,-159 180,-153 180,-153 180,-141 180,-141 180,-135 186,-129 192,-129 192,-129 222,-129 222,-129 228,-129 234,-135 234,-141 234,-141 234,-153 234,-153 234,-159 228,-165 222,-165"/>
<text text-anchor="middle" x="207" y="-142.8" font-family="Comic Sans MS" font-size="14.00">3</text>
</g>
<!-- r0_0c&#45;&#45;r0_0c1_0b -->
<g id="edge4" class="edge">
<title>r0_0c--r0_0c1_0b</title>
<path fill="none" stroke="black" d="M143.93,-147C155.18,-147 168.35,-147 179.65,-147"/>
</g>
<!-- r1_1c0_1d0_2c -->
<g id="node33" class="node">
<title>r1_1c0_1d0_2c</title>
<path fill="LightSalmon" stroke="black" stroke-width="0" d="M222,-90C222,-90 192,-90 192,-90 186,-90 180,-84 180,-78 180,-78 180,-66 180,-66 180,-60 186,-54 192,-54 192,-54 222,-54 222,-54 228,-54 234,-60 234,-66 234,-66 234,-78 234,-78 234,-84 228,-90 222,-90"/>
<text text-anchor="middle" x="207" y="-67.8" font-family="Comic Sans MS" font-size="14.00">1</text>
</g>
<!-- r1_1c&#45;&#45;r1_1c0_1d0_2c -->
<g id="edge32" class="edge">
<title>r1_1c--r1_1c0_1d0_2c</title>
<path fill="none" stroke="black" d="M143.93,-86.81C155.38,-84.08 168.82,-80.87 180.26,-78.14"/>
</g>
<!-- r0_0c0_0a0_1c -->
<g id="node6" class="node">
<title>r0_0c0_0a0_1c</title>
<path fill="PaleGreen" stroke="black" stroke-width="0" d="M312,-358C312,-358 282,-358 282,-358 276,-358 270,-352 270,-346 270,-346 270,-334 270,-334 270,-328 276,-322 282,-322 282,-322 312,-322 312,-322 318,-322 324,-328 324,-334 324,-334 324,-346 324,-346 324,-352 318,-358 312,-358"/>
<text text-anchor="middle" x="297" y="-335.8" font-family="Comic Sans MS" font-size="14.00">5</text>
</g>
<!-- r0_0c0_0a&#45;&#45;r0_0c0_0a0_1c -->
<g id="edge5" class="edge">
<title>r0_0c0_0a--r0_0c0_0a0_1c</title>
<path fill="none" stroke="black" d="M220.61,-229.48C237.53,-254.28 267.37,-298.03 283.98,-322.38"/>
</g>
<!-- r0_0c0_0a1_2c -->
<g id="node7" class="node">
<title>r0_0c0_0a1_2c</title>
<path fill="LightSalmon" stroke="black" stroke-width="0" d="M312,-229C312,-229 282,-229 282,-229 276,-229 270,-223 270,-217 270,-217 270,-205 270,-205 270,-199 276,-193 282,-193 282,-193 312,-193 312,-193 318,-193 324,-199 324,-205 324,-205 324,-217 324,-217 324,-223 318,-229 312,-229"/>
<text text-anchor="middle" x="297" y="-206.8" font-family="Comic Sans MS" font-size="14.00">2</text>
</g>
<!-- r0_0c0_0a&#45;&#45;r0_0c0_0a1_2c -->
<g id="edge6" class="edge">
<title>r0_0c0_0a--r0_0c0_0a1_2c</title>
<path fill="none" stroke="black" d="M234.4,-211C245.74,-211 258.95,-211 270.22,-211"/>
</g>
<!-- r0_0c1_0b0_1c -->
<g id="node27" class="node">
<title>r0_0c1_0b0_1c</title>
<path fill="PaleGreen" stroke="black" stroke-width="0" d="M312,-165C312,-165 282,-165 282,-165 276,-165 270,-159 270,-153 270,-153 270,-141 270,-141 270,-135 276,-129 282,-129 282,-129 312,-129 312,-129 318,-129 324,-135 324,-141 324,-141 324,-153 324,-153 324,-159 318,-165 312,-165"/>
<text text-anchor="middle" x="297" y="-142.8" font-family="Comic Sans MS" font-size="14.00">2</text>
</g>
<!-- r0_0c1_0b&#45;&#45;r0_0c1_0b0_1c -->
<g id="edge26" class="edge">
<title>r0_0c1_0b--r0_0c1_0b0_1c</title>
<path fill="none" stroke="black" d="M234.4,-147C245.74,-147 258.95,-147 270.22,-147"/>
</g>
<!-- r0_0c1_0b1_2c -->
<g id="node28" class="node">
<title>r0_0c1_0b1_2c</title>
<path fill="LightSalmon" stroke="black" stroke-width="0" d="M312,-122C312,-122 282,-122 282,-122 276,-122 270,-116 270,-110 270,-110 270,-98 270,-98 270,-92 276,-86 282,-86 282,-86 312,-86 312,-86 318,-86 324,-92 324,-98 324,-98 324,-110 324,-110 324,-116 318,-122 312,-122"/>
<text text-anchor="middle" x="297" y="-99.8" font-family="Comic Sans MS" font-size="14.00">1</text>
</g>
<!-- r0_0c1_0b&#45;&#45;r0_0c1_0b1_2c -->
<g id="edge27" class="edge">
<title>r0_0c1_0b--r0_0c1_0b1_2c</title>
<path fill="none" stroke="black" d="M234.4,-134.1C245.74,-128.56 258.95,-122.1 270.22,-116.6"/>
</g>
<!-- r0_0c0_0a0_1c0_1c0_2c -->
<g id="node8" class="node">
<title>r0_0c0_0a0_1c0_1c0_2c</title>
<path fill="LightSalmon" stroke="black" stroke-width="0" d="M402,-433C402,-433 372,-433 372,-433 366,-433 360,-427 360,-421 360,-421 360,-409 360,-409 360,-403 366,-397 372,-397 372,-397 402,-397 402,-397 408,-397 414,-403 414,-409 414,-409 414,-421 414,-421 414,-427 408,-433 402,-433"/>
<text text-anchor="middle" x="387" y="-410.8" font-family="Comic Sans MS" font-size="14.00">3</text>
</g>
<!-- r0_0c0_0a0_1c&#45;&#45;r0_0c0_0a0_1c0_1c0_2c -->
<g id="edge7" class="edge">
<title>r0_0c0_0a0_1c--r0_0c0_0a0_1c0_1c0_2c</title>
<path fill="none" stroke="black" d="M318.85,-357.77C332.78,-369.64 351.03,-385.2 364.99,-397.09"/>
</g>
<!-- r0_0c0_0a0_1c1_1d -->
<g id="node9" class="node">
<title>r0_0c0_0a0_1c1_1d</title>
<path fill="none" stroke="black" d="M402,-358C402,-358 372,-358 372,-358 366,-358 360,-352 360,-346 360,-346 360,-334 360,-334 360,-328 366,-322 372,-322 372,-322 402,-322 402,-322 408,-322 414,-328 414,-334 414,-334 414,-346 414,-346 414,-352 408,-358 402,-358"/>
<text text-anchor="middle" x="387" y="-335.8" font-family="Comic Sans MS" font-size="14.00">5</text>
</g>
<!-- r0_0c0_0a0_1c&#45;&#45;r0_0c0_0a0_1c1_1d -->
<g id="edge8" class="edge">
<title>r0_0c0_0a0_1c--r0_0c0_0a0_1c1_1d</title>
<path fill="none" stroke="black" d="M323.93,-340C335.18,-340 348.35,-340 359.65,-340"/>
</g>
<!-- r0_0c0_0a1_2c0_2e0_3c -->
<g id="node22" class="node">
<title>r0_0c0_0a1_2c0_2e0_3c</title>
<path fill="Khaki" stroke="black" stroke-width="0" d="M402,-251C402,-251 372,-251 372,-251 366,-251 360,-245 360,-239 360,-239 360,-227 360,-227 360,-221 366,-215 372,-215 372,-215 402,-215 402,-215 408,-215 414,-221 414,-227 414,-227 414,-239 414,-239 414,-245 408,-251 402,-251"/>
<text text-anchor="middle" x="387" y="-228.8" font-family="Comic Sans MS" font-size="14.00">2</text>
</g>
<!-- r0_0c0_0a1_2c&#45;&#45;r0_0c0_0a1_2c0_2e0_3c -->
<g id="edge21" class="edge">
<title>r0_0c0_0a1_2c--r0_0c0_0a1_2c0_2e0_3c</title>
<path fill="none" stroke="black" d="M323.93,-217.48C335.38,-220.35 348.82,-223.71 360.26,-226.56"/>
</g>
<!-- r0_0c0_0a1_2c1_2f0_3c -->
<g id="node23" class="node">
<title>r0_0c0_0a1_2c1_2f0_3c</title>
<path fill="Khaki" stroke="black" stroke-width="0" d="M402,-208C402,-208 372,-208 372,-208 366,-208 360,-202 360,-196 360,-196 360,-184 360,-184 360,-178 366,-172 372,-172 372,-172 402,-172 402,-172 408,-172 414,-178 414,-184 414,-184 414,-196 414,-196 414,-202 408,-208 402,-208"/>
<text text-anchor="middle" x="387" y="-185.8" font-family="Comic Sans MS" font-size="14.00">1</text>
</g>
<!-- r0_0c0_0a1_2c&#45;&#45;r0_0c0_0a1_2c1_2f0_3c -->
<g id="edge22" class="edge">
<title>r0_0c0_0a1_2c--r0_0c0_0a1_2c1_2f0_3c</title>
<path fill="none" stroke="black" d="M323.93,-204.81C335.38,-202.08 348.82,-198.87 360.26,-196.14"/>
</g>
<!-- r0_0c0_0a0_1c0_1c0_2c0_2e -->
<g id="node10" class="node">
<title>r0_0c0_0a0_1c0_1c0_2c0_2e</title>
<path fill="none" stroke="black" d="M496,-450C496,-450 466,-450 466,-450 460,-450 454,-444 454,-438 454,-438 454,-426 454,-426 454,-420 460,-414 466,-414 466,-414 496,-414 496,-414 502,-414 508,-420 508,-426 508,-426 508,-438 508,-438 508,-444 502,-450 496,-450"/>
<path fill="none" stroke="black" d="M500,-454C500,-454 462,-454 462,-454 456,-454 450,-448 450,-442 450,-442 450,-422 450,-422 450,-416 456,-410 462,-410 462,-410 500,-410 500,-410 506,-410 512,-416 512,-422 512,-422 512,-442 512,-442 512,-448 506,-454 500,-454"/>
<text text-anchor="middle" x="481" y="-427.8" font-family="Comic Sans MS" font-size="14.00">3</text>
</g>
<!-- r0_0c0_0a0_1c0_1c0_2c&#45;&#45;r0_0c0_0a0_1c0_1c0_2c0_2e -->
<g id="edge9" class="edge">
<title>r0_0c0_0a0_1c0_1c0_2c--r0_0c0_0a0_1c0_1c0_2c0_2e</title>
<path fill="none" stroke="black" d="M413.63,-419.74C424.79,-421.8 437.96,-424.23 449.62,-426.39"/>
</g>
<!-- r0_0c0_0a0_1c1_1d0_2c -->
<g id="node14" class="node">
<title>r0_0c0_0a0_1c1_1d0_2c</title>
<path fill="LightSalmon" stroke="black" stroke-width="0" d="M496,-380C496,-380 466,-380 466,-380 460,-380 454,-374 454,-368 454,-368 454,-356 454,-356 454,-350 460,-344 466,-344 466,-344 496,-344 496,-344 502,-344 508,-350 508,-356 508,-356 508,-368 508,-368 508,-374 502,-380 496,-380"/>
<text text-anchor="middle" x="481" y="-357.8" font-family="Comic Sans MS" font-size="14.00">3</text>
</g>
<!-- r0_0c0_0a0_1c1_1d&#45;&#45;r0_0c0_0a0_1c1_1d0_2c -->
<g id="edge13" class="edge">
<title>r0_0c0_0a0_1c1_1d--r0_0c0_0a0_1c1_1d0_2c</title>
<path fill="none" stroke="black" d="M414.12,-346.25C426.65,-349.24 441.63,-352.82 454.14,-355.82"/>
</g>
<!-- r0_0c0_0a0_1c1_1d1_3c -->
<g id="node15" class="node">
<title>r0_0c0_0a0_1c1_1d1_3c</title>
<path fill="Khaki" stroke="black" stroke-width="0" d="M496,-337C496,-337 466,-337 466,-337 460,-337 454,-331 454,-325 454,-325 454,-313 454,-313 454,-307 460,-301 466,-301 466,-301 496,-301 496,-301 502,-301 508,-307 508,-313 508,-313 508,-325 508,-325 508,-331 502,-337 496,-337"/>
<text text-anchor="middle" x="481" y="-314.8" font-family="Comic Sans MS" font-size="14.00">2</text>
</g>
<!-- r0_0c0_0a0_1c1_1d&#45;&#45;r0_0c0_0a0_1c1_1d1_3c -->
<g id="edge14" class="edge">
<title>r0_0c0_0a0_1c1_1d--r0_0c0_0a0_1c1_1d1_3c</title>
<path fill="none" stroke="black" d="M414.12,-334.04C426.65,-331.18 441.63,-327.76 454.14,-324.9"/>
</g>
<!-- r0_0c0_0a0_1c0_1c0_2c0_2e0_3c -->
<g id="node11" class="node">
<title>r0_0c0_0a0_1c0_1c0_2c0_2e0_3c</title>
<path fill="Khaki" stroke="black" stroke-width="0" d="M590,-466C590,-466 560,-466 560,-466 554,-466 548,-460 548,-454 548,-454 548,-442 548,-442 548,-436 554,-430 560,-430 560,-430 590,-430 590,-430 596,-430 602,-436 602,-442 602,-442 602,-454 602,-454 602,-460 596,-466 590,-466"/>
<text text-anchor="middle" x="575" y="-443.8" font-family="Comic Sans MS" font-size="14.00">2</text>
</g>
<!-- r0_0c0_0a0_1c0_1c0_2c0_2e&#45;&#45;r0_0c0_0a0_1c0_1c0_2c0_2e0_3c -->
<g id="edge10" class="edge">
<title>r0_0c0_0a0_1c0_1c0_2c0_2e--r0_0c0_0a0_1c0_1c0_2c0_2e0_3c</title>
<path fill="none" stroke="black" d="M512.38,-437.28C524,-439.3 537.13,-441.59 548.27,-443.53"/>
</g>
<!-- r0_0c0_0a0_1c0_1c0_2c0_2e0_3c0_3g -->
<g id="node12" class="node">
<title>r0_0c0_0a0_1c0_1c0_2c0_2e0_3c0_3g</title>
<path fill="none" stroke="black" d="M680,-509C680,-509 650,-509 650,-509 644,-509 638,-503 638,-497 638,-497 638,-485 638,-485 638,-479 644,-473 650,-473 650,-473 680,-473 680,-473 686,-473 692,-479 692,-485 692,-485 692,-497 692,-497 692,-503 686,-509 680,-509"/>
<text text-anchor="middle" x="665" y="-486.8" font-family="Comic Sans MS" font-size="14.00">1</text>
</g>
<!-- r0_0c0_0a0_1c0_1c0_2c0_2e0_3c&#45;&#45;r0_0c0_0a0_1c0_1c0_2c0_2e0_3c0_3g -->
<g id="edge11" class="edge">
<title>r0_0c0_0a0_1c0_1c0_2c0_2e0_3c--r0_0c0_0a0_1c0_1c0_2c0_2e0_3c0_3g</title>
<path fill="none" stroke="black" d="M601.93,-460.67C613.18,-466.17 626.35,-472.6 637.65,-478.12"/>
</g>
<!-- r0_0c0_0a0_1c0_1c0_2c0_2e0_3c1_3h -->
<g id="node13" class="node">
<title>r0_0c0_0a0_1c0_1c0_2c0_2e0_3c1_3h</title>
<path fill="none" stroke="black" d="M680,-466C680,-466 650,-466 650,-466 644,-466 638,-460 638,-454 638,-454 638,-442 638,-442 638,-436 644,-430 650,-430 650,-430 680,-430 680,-430 686,-430 692,-436 692,-442 692,-442 692,-454 692,-454 692,-460 686,-466 680,-466"/>
<text text-anchor="middle" x="665" y="-443.8" font-family="Comic Sans MS" font-size="14.00">2</text>
</g>
<!-- r0_0c0_0a0_1c0_1c0_2c0_2e0_3c&#45;&#45;r0_0c0_0a0_1c0_1c0_2c0_2e0_3c1_3h -->
<g id="edge12" class="edge">
<title>r0_0c0_0a0_1c0_1c0_2c0_2e0_3c--r0_0c0_0a0_1c0_1c0_2c0_2e0_3c1_3h</title>
<path fill="none" stroke="black" d="M601.93,-448C613.18,-448 626.35,-448 637.65,-448"/>
</g>
<!-- r0_0c0_0a0_1c1_1d0_2c0_2e0_3c -->
<g id="node16" class="node">
<title>r0_0c0_0a0_1c1_1d0_2c0_2e0_3c</title>
<path fill="Khaki" stroke="black" stroke-width="0" d="M590,-423C590,-423 560,-423 560,-423 554,-423 548,-417 548,-411 548,-411 548,-399 548,-399 548,-393 554,-387 560,-387 560,-387 590,-387 590,-387 596,-387 602,-393 602,-399 602,-399 602,-411 602,-411 602,-417 596,-423 590,-423"/>
<text text-anchor="middle" x="575" y="-400.8" font-family="Comic Sans MS" font-size="14.00">3</text>
</g>
<!-- r0_0c0_0a0_1c1_1d0_2c&#45;&#45;r0_0c0_0a0_1c1_1d0_2c0_2e0_3c -->
<g id="edge15" class="edge">
<title>r0_0c0_0a0_1c1_1d0_2c--r0_0c0_0a0_1c1_1d0_2c0_2e0_3c</title>
<path fill="none" stroke="black" d="M507.63,-373.98C520.28,-379.89 535.51,-387.01 548.19,-392.94"/>
</g>
<!-- r0_0c0_0a0_1c1_1d0_2c1_2f -->
<g id="node17" class="node">
<title>r0_0c0_0a0_1c1_1d0_2c1_2f</title>
<path fill="none" stroke="black" d="M590,-380C590,-380 560,-380 560,-380 554,-380 548,-374 548,-368 548,-368 548,-356 548,-356 548,-350 554,-344 560,-344 560,-344 590,-344 590,-344 596,-344 602,-350 602,-356 602,-356 602,-368 602,-368 602,-374 596,-380 590,-380"/>
<text text-anchor="middle" x="575" y="-357.8" font-family="Comic Sans MS" font-size="14.00">1</text>
</g>
<!-- r0_0c0_0a0_1c1_1d0_2c&#45;&#45;r0_0c0_0a0_1c1_1d0_2c1_2f -->
<g id="edge16" class="edge">
<title>r0_0c0_0a0_1c1_1d0_2c--r0_0c0_0a0_1c1_1d0_2c1_2f</title>
<path fill="none" stroke="black" d="M507.63,-362C520.07,-362 535,-362 547.55,-362"/>
</g>
<!-- r0_0c0_0a0_1c1_1d1_3c0_3g -->
<g id="node20" class="node">
<title>r0_0c0_0a0_1c1_1d1_3c0_3g</title>
<path fill="none" stroke="black" d="M590,-337C590,-337 560,-337 560,-337 554,-337 548,-331 548,-325 548,-325 548,-313 548,-313 548,-307 554,-301 560,-301 560,-301 590,-301 590,-301 596,-301 602,-307 602,-313 602,-313 602,-325 602,-325 602,-331 596,-337 590,-337"/>
<text text-anchor="middle" x="575" y="-314.8" font-family="Comic Sans MS" font-size="14.00">2</text>
</g>
<!-- r0_0c0_0a0_1c1_1d1_3c&#45;&#45;r0_0c0_0a0_1c1_1d1_3c0_3g -->
<g id="edge19" class="edge">
<title>r0_0c0_0a0_1c1_1d1_3c--r0_0c0_0a0_1c1_1d1_3c0_3g</title>
<path fill="none" stroke="black" d="M507.63,-319C520.07,-319 535,-319 547.55,-319"/>
</g>
<!-- r0_0c0_0a0_1c1_1d1_3c1_3h -->
<g id="node21" class="node">
<title>r0_0c0_0a0_1c1_1d1_3c1_3h</title>
<path fill="none" stroke="black" d="M590,-294C590,-294 560,-294 560,-294 554,-294 548,-288 548,-282 548,-282 548,-270 548,-270 548,-264 554,-258 560,-258 560,-258 590,-258 590,-258 596,-258 602,-264 602,-270 602,-270 602,-282 602,-282 602,-288 596,-294 590,-294"/>
<text text-anchor="middle" x="575" y="-271.8" font-family="Comic Sans MS" font-size="14.00">2</text>
</g>
<!-- r0_0c0_0a0_1c1_1d1_3c&#45;&#45;r0_0c0_0a0_1c1_1d1_3c1_3h -->
<g id="edge20" class="edge">
<title>r0_0c0_0a0_1c1_1d1_3c--r0_0c0_0a0_1c1_1d1_3c1_3h</title>
<path fill="none" stroke="black" d="M507.63,-307.02C520.07,-301.21 535,-294.23 547.55,-288.36"/>
</g>
<!-- r0_0c0_0a0_1c1_1d0_2c0_2e0_3c0_3g -->
<g id="node18" class="node">
<title>r0_0c0_0a0_1c1_1d0_2c0_2e0_3c0_3g</title>
<path fill="none" stroke="black" d="M680,-423C680,-423 650,-423 650,-423 644,-423 638,-417 638,-411 638,-411 638,-399 638,-399 638,-393 644,-387 650,-387 650,-387 680,-387 680,-387 686,-387 692,-393 692,-399 692,-399 692,-411 692,-411 692,-417 686,-423 680,-423"/>
<text text-anchor="middle" x="665" y="-400.8" font-family="Comic Sans MS" font-size="14.00">3</text>
</g>
<!-- r0_0c0_0a0_1c1_1d0_2c0_2e0_3c&#45;&#45;r0_0c0_0a0_1c1_1d0_2c0_2e0_3c0_3g -->
<g id="edge17" class="edge">
<title>r0_0c0_0a0_1c1_1d0_2c0_2e0_3c--r0_0c0_0a0_1c1_1d0_2c0_2e0_3c0_3g</title>
<path fill="none" stroke="black" d="M601.93,-405C613.18,-405 626.35,-405 637.65,-405"/>
</g>
<!-- r0_0c0_0a0_1c1_1d0_2c0_2e0_3c1_3h -->
<g id="node19" class="node">
<title>r0_0c0_0a0_1c1_1d0_2c0_2e0_3c1_3h</title>
<path fill="none" stroke="black" d="M680,-380C680,-380 650,-380 650,-380 644,-380 638,-374 638,-368 638,-368 638,-356 638,-356 638,-350 644,-344 650,-344 650,-344 680,-344 680,-344 686,-344 692,-350 692,-356 692,-356 692,-368 692,-368 692,-374 686,-380 680,-380"/>
<text text-anchor="middle" x="665" y="-357.8" font-family="Comic Sans MS" font-size="14.00">3</text>
</g>
<!-- r0_0c0_0a0_1c1_1d0_2c0_2e0_3c&#45;&#45;r0_0c0_0a0_1c1_1d0_2c0_2e0_3c1_3h -->
<g id="edge18" class="edge">
<title>r0_0c0_0a0_1c1_1d0_2c0_2e0_3c--r0_0c0_0a0_1c1_1d0_2c0_2e0_3c1_3h</title>
<path fill="none" stroke="black" d="M601.93,-392.33C613.18,-386.83 626.35,-380.4 637.65,-374.88"/>
</g>
<!-- r0_0c0_0a1_2c0_2e0_3c0_3g -->
<g id="node24" class="node">
<title>r0_0c0_0a1_2c0_2e0_3c0_3g</title>
<path fill="none" stroke="black" d="M496,-294C496,-294 466,-294 466,-294 460,-294 454,-288 454,-282 454,-282 454,-270 454,-270 454,-264 460,-258 466,-258 466,-258 496,-258 496,-258 502,-258 508,-264 508,-270 508,-270 508,-282 508,-282 508,-288 502,-294 496,-294"/>
<text text-anchor="middle" x="481" y="-271.8" font-family="Comic Sans MS" font-size="14.00">2</text>
</g>
<!-- r0_0c0_0a1_2c0_2e0_3c&#45;&#45;r0_0c0_0a1_2c0_2e0_3c0_3g -->
<g id="edge23" class="edge">
<title>r0_0c0_0a1_2c0_2e0_3c--r0_0c0_0a1_2c0_2e0_3c0_3g</title>
<path fill="none" stroke="black" d="M413.63,-244.98C426.07,-250.79 441,-257.77 453.55,-263.64"/>
</g>
<!-- r0_0c0_0a1_2c0_2e0_3c1_3h -->
<g id="node25" class="node">
<title>r0_0c0_0a1_2c0_2e0_3c1_3h</title>
<path fill="none" stroke="black" d="M496,-251C496,-251 466,-251 466,-251 460,-251 454,-245 454,-239 454,-239 454,-227 454,-227 454,-221 460,-215 466,-215 466,-215 496,-215 496,-215 502,-215 508,-221 508,-227 508,-227 508,-239 508,-239 508,-245 502,-251 496,-251"/>
<text text-anchor="middle" x="481" y="-228.8" font-family="Comic Sans MS" font-size="14.00">1</text>
</g>
<!-- r0_0c0_0a1_2c0_2e0_3c&#45;&#45;r0_0c0_0a1_2c0_2e0_3c1_3h -->
<g id="edge24" class="edge">
<title>r0_0c0_0a1_2c0_2e0_3c--r0_0c0_0a1_2c0_2e0_3c1_3h</title>
<path fill="none" stroke="black" d="M413.63,-233C426.07,-233 441,-233 453.55,-233"/>
</g>
<!-- r0_0c0_0a1_2c1_2f0_3c0_3g -->
<g id="node26" class="node">
<title>r0_0c0_0a1_2c1_2f0_3c0_3g</title>
<path fill="none" stroke="black" d="M496,-208C496,-208 466,-208 466,-208 460,-208 454,-202 454,-196 454,-196 454,-184 454,-184 454,-178 460,-172 466,-172 466,-172 496,-172 496,-172 502,-172 508,-178 508,-184 508,-184 508,-196 508,-196 508,-202 502,-208 496,-208"/>
<text text-anchor="middle" x="481" y="-185.8" font-family="Comic Sans MS" font-size="14.00">1</text>
</g>
<!-- r0_0c0_0a1_2c1_2f0_3c&#45;&#45;r0_0c0_0a1_2c1_2f0_3c0_3g -->
<g id="edge25" class="edge">
<title>r0_0c0_0a1_2c1_2f0_3c--r0_0c0_0a1_2c1_2f0_3c0_3g</title>
<path fill="none" stroke="black" d="M413.63,-190C426.07,-190 441,-190 453.55,-190"/>
</g>
<!-- r0_0c1_0b0_1c0_1d0_2c -->
<g id="node29" class="node">
<title>r0_0c1_0b0_1c0_1d0_2c</title>
<path fill="LightSalmon" stroke="black" stroke-width="0" d="M402,-165C402,-165 372,-165 372,-165 366,-165 360,-159 360,-153 360,-153 360,-141 360,-141 360,-135 366,-129 372,-129 372,-129 402,-129 402,-129 408,-129 414,-135 414,-141 414,-141 414,-153 414,-153 414,-159 408,-165 402,-165"/>
<text text-anchor="middle" x="387" y="-142.8" font-family="Comic Sans MS" font-size="14.00">2</text>
</g>
<!-- r0_0c1_0b0_1c&#45;&#45;r0_0c1_0b0_1c0_1d0_2c -->
<g id="edge28" class="edge">
<title>r0_0c1_0b0_1c--r0_0c1_0b0_1c0_1d0_2c</title>
<path fill="none" stroke="black" d="M323.93,-147C335.38,-147 348.82,-147 360.26,-147"/>
</g>
<!-- r0_0c1_0b1_2c0_2e0_3c -->
<g id="node31" class="node">
<title>r0_0c1_0b1_2c0_2e0_3c</title>
<path fill="Khaki" stroke="black" stroke-width="0" d="M402,-122C402,-122 372,-122 372,-122 366,-122 360,-116 360,-110 360,-110 360,-98 360,-98 360,-92 366,-86 372,-86 372,-86 402,-86 402,-86 408,-86 414,-92 414,-98 414,-98 414,-110 414,-110 414,-116 408,-122 402,-122"/>
<text text-anchor="middle" x="387" y="-99.8" font-family="Comic Sans MS" font-size="14.00">1</text>
</g>
<!-- r0_0c1_0b1_2c&#45;&#45;r0_0c1_0b1_2c0_2e0_3c -->
<g id="edge30" class="edge">
<title>r0_0c1_0b1_2c--r0_0c1_0b1_2c0_2e0_3c</title>
<path fill="none" stroke="black" d="M323.93,-104C335.38,-104 348.82,-104 360.26,-104"/>
</g>
<!-- r0_0c1_0b0_1c0_1d0_2c0_2e -->
<g id="node30" class="node">
<title>r0_0c1_0b0_1c0_1d0_2c0_2e</title>
<path fill="none" stroke="black" d="M496,-165C496,-165 466,-165 466,-165 460,-165 454,-159 454,-153 454,-153 454,-141 454,-141 454,-135 460,-129 466,-129 466,-129 496,-129 496,-129 502,-129 508,-135 508,-141 508,-141 508,-153 508,-153 508,-159 502,-165 496,-165"/>
<text text-anchor="middle" x="481" y="-142.8" font-family="Comic Sans MS" font-size="14.00">2</text>
</g>
<!-- r0_0c1_0b0_1c0_1d0_2c&#45;&#45;r0_0c1_0b0_1c0_1d0_2c0_2e -->
<g id="edge29" class="edge">
<title>r0_0c1_0b0_1c0_1d0_2c--r0_0c1_0b0_1c0_1d0_2c0_2e</title>
<path fill="none" stroke="black" d="M413.63,-147C426.07,-147 441,-147 453.55,-147"/>
</g>
<!-- r0_0c1_0b1_2c0_2e0_3c0_3g -->
<g id="node32" class="node">
<title>r0_0c1_0b1_2c0_2e0_3c0_3g</title>
<path fill="none" stroke="black" d="M496,-122C496,-122 466,-122 466,-122 460,-122 454,-116 454,-110 454,-110 454,-98 454,-98 454,-92 460,-86 466,-86 466,-86 496,-86 496,-86 502,-86 508,-92 508,-98 508,-98 508,-110 508,-110 508,-116 502,-122 496,-122"/>
<text text-anchor="middle" x="481" y="-99.8" font-family="Comic Sans MS" font-size="14.00">1</text>
</g>
<!-- r0_0c1_0b1_2c0_2e0_3c&#45;&#45;r0_0c1_0b1_2c0_2e0_3c0_3g -->
<g id="edge31" class="edge">
<title>r0_0c1_0b1_2c0_2e0_3c--r0_0c1_0b1_2c0_2e0_3c0_3g</title>
<path fill="none" stroke="black" d="M413.63,-104C426.07,-104 441,-104 453.55,-104"/>
</g>
<!-- r1_1c0_1d0_2c0_2e0_3c -->
<g id="node34" class="node">
<title>r1_1c0_1d0_2c0_2e0_3c</title>
<path fill="Khaki" stroke="black" stroke-width="0" d="M312,-79C312,-79 282,-79 282,-79 276,-79 270,-73 270,-67 270,-67 270,-55 270,-55 270,-49 276,-43 282,-43 282,-43 312,-43 312,-43 318,-43 324,-49 324,-55 324,-55 324,-67 324,-67 324,-73 318,-79 312,-79"/>
<text text-anchor="middle" x="297" y="-56.8" font-family="Comic Sans MS" font-size="14.00">1</text>
</g>
<!-- r1_1c0_1d0_2c&#45;&#45;r1_1c0_1d0_2c0_2e0_3c -->
<g id="edge33" class="edge">
<title>r1_1c0_1d0_2c--r1_1c0_1d0_2c0_2e0_3c</title>
<path fill="none" stroke="black" d="M233.93,-68.76C245.38,-67.33 258.82,-65.65 270.26,-64.22"/>
</g>
<!-- r1_1c0_1d0_2c0_2e0_3c0_3g -->
<g id="node35" class="node">
<title>r1_1c0_1d0_2c0_2e0_3c0_3g</title>
<path fill="none" stroke="black" d="M402,-79C402,-79 372,-79 372,-79 366,-79 360,-73 360,-67 360,-67 360,-55 360,-55 360,-49 366,-43 372,-43 372,-43 402,-43 402,-43 408,-43 414,-49 414,-55 414,-55 414,-67 414,-67 414,-73 408,-79 402,-79"/>
<text text-anchor="middle" x="387" y="-56.8" font-family="Comic Sans MS" font-size="14.00">1</text>
</g>
<!-- r1_1c0_1d0_2c0_2e0_3c&#45;&#45;r1_1c0_1d0_2c0_2e0_3c0_3g -->
<g id="edge34" class="edge">
<title>r1_1c0_1d0_2c0_2e0_3c--r1_1c0_1d0_2c0_2e0_3c0_3g</title>
<path fill="none" stroke="black" d="M323.93,-61C335.18,-61 348.35,-61 359.65,-61"/>
</g>
<!-- r1_1c0_1d0_2c0_2e0_3c1_3h -->
<g id="node36" class="node">
<title>r1_1c0_1d0_2c0_2e0_3c1_3h</title>
<path fill="none" stroke="black" d="M402,-36C402,-36 372,-36 372,-36 366,-36 360,-30 360,-24 360,-24 360,-12 360,-12 360,-6 366,0 372,0 372,0 402,0 402,0 408,0 414,-6 414,-12 414,-12 414,-24 414,-24 414,-30 408,-36 402,-36"/>
<text text-anchor="middle" x="387" y="-13.8" font-family="Comic Sans MS" font-size="14.00">1</text>
</g>
<!-- r1_1c0_1d0_2c0_2e0_3c&#45;&#45;r1_1c0_1d0_2c0_2e0_3c1_3h -->
<g id="edge35" class="edge">
<title>r1_1c0_1d0_2c0_2e0_3c--r1_1c0_1d0_2c0_2e0_3c1_3h</title>
<path fill="none" stroke="black" d="M323.93,-48.33C335.18,-42.83 348.35,-36.4 359.65,-30.88"/>
</g>
</g>
</svg>