<svg xmlns="http://www.w3.org/2000/svg" xmlns:xlink="http://www.w3.org/1999/xlink" width="700pt" height="697pt" viewBox="0.00 0.00 700.00 697.00">
<g id="graph0" class="graph" transform="scale(1 1) rotate(0) translate(4 693)">
<polygon fill="white" stroke="none" points="-4,4 -4,-693 696,-693 696,4 -4,4"/>
<!-- _0c -->
<g id="node1" class="node">
<title>_0c</title>
<path fill="LightSkyBlue" stroke="black" stroke-width="0" d="M42,-230C42,-230 12,-230 12,-230 6,-230 0,-224 0,-218 0,-218 0,-206 0,-206 0,-200 6,-194 12,-194 12,-194 42,-194 42,-194 48,-194 54,-200 54,-206 54,-206 54,-218 54,-218 54,-224 48,-230 42,-230"/>
<text text-anchor="middle" x="27" y="-207.8" font-family="Comic Sans MS" font-size="14.00">10</text>
</g>
<!-- _0c0_0a -->
<g id="node2" class="node">
<title>_0c0_0a</title>
<path fill="none" stroke="black" d="M132,-355C132,-355 102,-355 102,-355 96,-355 90,-349 90,-343 90,-343 90,-331 90,-331 90,-325 96,-319 102,-319 102,-319 132,-319 132,-319 138,-319 144,-325 144,-331 144,-331 144,-343 144,-343 144,-349 138,-355 132,-355"/>
<text text-anchor="middle" x="117" y="-332.8" font-family="Comic Sans MS" font-size="14.00">10</text>
</g>
<!-- _0c&#45;&#45;_0c0_0a -->
<g id="edge1" class="edge">
<title>_0c--_0c0_0a</title>
<path fill="none" stroke="black" d="M40.61,-229.91C57.24,-253.54 86.36,-294.9 103.13,-318.72"/>
</g>
<!-- _0c1_0b -->
<g id="node3" class="node">
<title>_0c1_0b</title>
<path fill="none" stroke="black" d="M132,-144C132,-144 102,-144 102,-144 96,-144 90,-138 90,-132 90,-132 90,-120 90,-120 90,-114 96,-108 102,-108 102,-108 132,-108 132,-108 138,-108 144,-114 144,-120 144,-120 144,-132 144,-132 144,-138 138,-144 132,-144"/>
<text text-anchor="middle" x="117" y="-121.8" font-family="Comic Sans MS" font-size="14.00">5</text>
</g>
<!-- _0c&#45;&#45;_0c1_0b -->
<g id="edge2" class="edge">
<title>_0c--_0c1_0b</title>
<path fill="none" stroke="black" d="M46.23,-194.18C61.14,-179.62 82.12,-159.11 97.18,-144.39"/>
</g>
<!-- _0c0_0a0_1c -->
<g id="node4" class="node">
<title>_0c0_0a0_1c</title>
<path fill="PaleGreen" stroke="black" stroke-width="0" d="M222,-582C222,-582 192,-582 192,-582 186,-582 180,-576 180,-570 180,-570 180,-558 180,-558 180,-552 186,-546 192,-546 192,-546 222,-546 222,-546 228,-546 234,-552 234,-558 234,-558 234,-570 234,-570 234,-576 228,-582 222,-582"/>
<text text-anchor="middle" x="207" y="-559.8" font-family="Comic Sans MS" font-size="14.00">2</text>
</g>
<!-- _0c0_0a&#45;&#45;_0c0_0a0_1c -->
<g id="edge3" class="edge">
<title>_0c0_0a--_0c0_0a0_1c</title>
<path fill="none" stroke="black" d="M125.05,-355.19C141.57,-397.8 182.61,-503.65 199.04,-546.04"/>
</g>
<!-- _0c0_0a1_2c -->
<g id="node5" class="node">
<title>_0c0_0a1_2c</title>
<path fill="LightSalmon" stroke="black" stroke-width="0" d="M222,-399C222,-399 192,-399 192,-399 186,-399 180,-393 180,-387 180,-387 180,-375 180,-375 180,-369 186,-363 192,-363 192,-363 222,-363 222,-363 228,-363 234,-369 234,-375 234,-375 234,-387 234,-387 234,-393 228,-399 222,-399"/>
<text text-anchor="middle" x="207" y="-376.8" font-family="Comic Sans MS" font-size="14.00">2</text>
</g>
<!-- _0c0_0a&#45;&#45;_0c0_0a1_2c -->
<g id="edge4" class="edge">
<title>_0c0_0a--_0c0_0a1_2c</title>
<path fill="none" stroke="black" d="M144.4,-350.2C155.74,-355.87 168.95,-362.48 180.22,-368.11"/>
</g>
<!-- _0c0_0a2_3c -->
<g id="node6" class="node">
<title>_0c0_0a2_3c</title>
<path fill="Khaki" stroke="black" stroke-width="0" d="M222,-334C222,-334 192,-334 192,-334 186,-334 180,-328 180,-322 180,-322 180,-310 180,-310 180,-304 186,-298 192,-298 192,-298 222,-298 222,-298 228,-298 234,-304 234,-310 234,-310 234,-322 234,-322 234,-328 228,-334 222,-334"/>
<text text-anchor="middle" x="207" y="-311.8" font-family="Comic Sans MS" font-size="14.00">6</text>
</g>
<!-- _0c0_0a&#45;&#45;_0c0_0a2_3c -->
<g id="edge5" class="edge">
<title>_0c0_0a--_0c0_0a2_3c</title>
<path fill="none" stroke="black" d="M144.4,-330.7C155.74,-327.99 168.95,-324.84 180.22,-322.15"/>
</g>
<!-- _0c1_0b0_1c -->
<g id="node48" class="node">
<title>_0c1_0b0_1c</title>
<path fill="PaleGreen" stroke="black" stroke-width="0" d="M222,-165C222,-165 192,-165 192,-165 186,-165 180,-159 180,-153 180,-153 180,-141 180,-141 180,-135 186,-129 192,-129 192,-129 222,-129 222,-129 228,-129 234,-135 234,-141 234,-141 234,-153 234,-153 234,-159 228,-165 222,-165"/>
<text text-anchor="middle" x="207" y="-142.8" font-family="Comic Sans MS" font-size="14.00">1</text>
</g>
<!-- _0c1_0b&#45;&#45;_0c1_0b0_1c -->
<g id="edge47" class="edge">
<title>_0c1_0b--_0c1_0b0_1c</title>
<path fill="none" stroke="black" d="M144.4,-132.3C155.74,-135.01 168.95,-138.16 180.22,-140.85"/>
</g>
<!-- _0c1_0b1_2c -->
<g id="node49" class="node">
<title>_0c1_0b1_2c</title>
<path fill="LightSalmon" stroke="black" stroke-width="0" d="M222,-122C222,-122 192,-122 192,-122 186,-122 180,-116 180,-110 180,-110 180,-98 180,-98 180,-92 186,-86 192,-86 192,-86 222,-86 222,-86 228,-86 234,-92 234,-98 234,-98 234,-110 234,-110 234,-116 228,-122 222,-122"/>
<text text-anchor="middle" x="207" y="-99.8" font-family="Comic Sans MS" font-size="14.00">3</text>
</g>
<!-- _0c1_0b&#45;&#45;_0c1_0b1_2c -->
<g id="edge48" class="edge">
<title>_0c1_0b--_0c1_0b1_2c</title>
<path fill="none" stroke="black" d="M144.4,-119.4C155.74,-116.56 168.95,-113.26 180.22,-110.44"/>
</g>
<!-- _0c1_0b2_3c -->
<g id="node50" class="node">
<title>_0c1_0b2_3c</title>
<path fill="Khaki" stroke="black" stroke-width="0" d="M222,-68C222,-68 192,-68 192,-68 186,-68 180,-62 180,-56 180,-56 180,-44 180,-44 180,-38 186,-32 192,-32 192,-32 222,-32 222,-32 228,-32 234,-38 234,-44 234,-44 234,-56 234,-56 234,-62 228,-68 222,-68"/>
<text text-anchor="middle" x="207" y="-45.8" font-family="Comic Sans MS" font-size="14.00">1</text>
</g>
<!-- _0c1_0b&#45;&#45;_0c1_0b2_3c -->
<g id="edge49" class="edge">
<title>_0c1_0b--_0c1_0b2_3c</title>
<path fill="none" stroke="black" d="M139.3,-107.6C153.24,-95.57 171.36,-79.92 185.2,-67.97"/>
</g>
<!-- _0c0_0a0_1c0_1c -->
<g id="node7" class="node">
<title>_0c0_0a0_1c0_1c</title>
<path fill="none" stroke="black" d="M312,-646C312,-646 282,-646 282,-646 276,-646 270,-640 270,-634 270,-634 270,-622 270,-622 270,-616 276,-610 282,-610 282,-610 312,-610 312,-610 318,-610 324,-616 324,-622 324,-622 324,-634 324,-634 324,-640 318,-646 312,-646"/>
<text text-anchor="middle" x="297" y="-623.8" font-family="Comic Sans MS" font-size="14.00">2</text>
</g>
<!-- _0c0_0a0_1c&#45;&#45;_0c0_0a0_1c0_1c -->
<g id="edge6" class="edge">
<title>_0c0_0a0_1c--_0c0_0a0_1c0_1c</title>
<path fill="none" stroke="black" d="M232.51,-581.83C244.41,-590.48 258.7,-600.87 270.7,-609.6"/>
</g>
<!-- _0c0_0a0_1c1_1d0_3c -->
<g id="node8" class="node">
<title>_0c0_0a0_1c1_1d0_3c</title>
<path fill="Khaki" stroke="black" stroke-width="0" d="M312,-582C312,-582 282,-582 282,-582 276,-582 270,-576 270,-570 270,-570 270,-558 270,-558 270,-552 276,-546 282,-546 282,-546 312,-546 312,-546 318,-546 324,-552 324,-558 324,-558 324,-570 324,-570 324,-576 318,-582 312,-582"/>
<text text-anchor="middle" x="297" y="-559.8" font-family="Comic Sans MS" font-size="14.00">1</text>
</g>
<!-- _0c0_0a0_1c&#45;&#45;_0c0_0a0_1c1_1d0_3c -->
<g id="edge7" class="edge">
<title>_0c0_0a0_1c--_0c0_0a0_1c1_1d0_3c</title>
<path fill="none" stroke="black" d="M233.93,-564C245.38,-564 258.82,-564 270.26,-564"/>
</g>
<!-- _0c0_0a1_2c0_2e -->
<g id="node18" class="node">
<title>_0c0_0a1_2c0_2e</title>
<path fill="none" stroke="black" d="M312,-474C312,-474 282,-474 282,-474 276,-474 270,-468 270,-462 270,-462 270,-450 270,-450 270,-444 276,-438 282,-438 282,-438 312,-438 312,-438 318,-438 324,-444 324,-450 324,-450 324,-462 324,-462 324,-468 318,-474 312,-474"/>
<text text-anchor="middle" x="297" y="-451.8" font-family="Comic Sans MS" font-size="14.00">2</text>
</g>
<!-- _0c0_0a1_2c&#45;&#45;_0c0_0a1_2c0_2e -->
<g id="edge17" class="edge">
<title>_0c0_0a1_2c--_0c0_0a1_2c0_2e</title>
<path fill="none" stroke="black" d="M228.85,-398.77C242.58,-410.47 260.5,-425.74 274.38,-437.57"/>
</g>
<!-- _0c0_0a1_2c1_2f -->
<g id="node19" class="node">
<title>_0c0_0a1_2c1_2f</title>
<path fill="none" stroke="black" d="M312,-399C312,-399 282,-399 282,-399 276,-399 270,-393 270,-387 270,-387 270,-375 270,-375 270,-369 276,-363 282,-363 282,-363 312,-363 312,-363 318,-363 324,-369 324,-375 324,-375 324,-387 324,-387 324,-393 318,-399 312,-399"/>
<text text-anchor="middle" x="297" y="-376.8" font-family="Comic Sans MS" font-size="14.00">2</text>
</g>
<!-- _0c0_0a1_2c&#45;&#45;_0c0_0a1_2c1_2f -->
<g id="edge18" class="edge">
<title>_0c0_0a1_2c--_0c0_0a1_2c1_2f</title>
<path fill="none" stroke="black" d="M233.93,-381C245.18,-381 258.35,-381 269.65,-381"/>
</g>
<!-- _0c0_0a2_3c0_3g -->
<g id="node32" class="node">
<title>_0c0_0a2_3c0_3g</title>
<path fill="none" stroke="black" d="M312,-334C312,-334 282,-334 282,-334 276,-334 270,-328 270,-322 270,-322 270,-310 270,-310 270,-304 276,-298 282,-298 282,-298 312,-298 312,-298 318,-298 324,-304 324,-310 324,-310 324,-322 324,-322 324,-328 318,-334 312,-334"/>
<text text-anchor="middle" x="297" y="-311.8" font-family="Comic Sans MS" font-size="14.00">6</text>
</g>
<!-- _0c0_0a2_3c&#45;&#45;_0c0_0a2_3c0_3g -->
<g id="edge31" class="edge">
<title>_0c0_0a2_3c--_0c0_0a2_3c0_3g</title>
<path fill="none" stroke="black" d="M233.93,-316C245.18,-316 258.35,-316 269.65,-316"/>
</g>
<!-- _0c0_0a2_3c1_3h -->
<g id="node33" class="node">
<title>_0c0_0a2_3c1_3h</title>
<path fill="none" stroke="black" d="M312,-251C312,-251 282,-251 282,-251 276,-251 270,-245 270,-239 270,-239 270,-227 270,-227 270,-221 276,-215 282,-215 282,-215 312,-215 312,-215 318,-215 324,-221 324,-227 324,-227 324,-239 324,-239 324,-245 318,-251 312,-251"/>
<text text-anchor="middle" x="297" y="-228.8" font-family="Comic Sans MS" font-size="14.00">5</text>
</g>
<!-- _0c0_0a2_3c&#45;&#45;_0c0_0a2_3c1_3h -->
<g id="edge32" class="edge">
<title>_0c0_0a2_3c--_0c0_0a2_3c1_3h</title>
<path fill="none" stroke="black" d="M226.66,-298.4C241.29,-284.6 261.6,-265.45 276.45,-251.44"/>
</g>
<!-- _0c0_0a0_1c0_1c0_2c -->
<g id="node9" class="node">
<title>_0c0_0a0_1c0_1c0_2c</title>
<path fill="LightSalmon" stroke="black" stroke-width="0" d="M402,-689C402,-689 372,-689 372,-689 366,-689 360,-683 360,-677 360,-677 360,-665 360,-665 360,-659 366,-653 372,-653 372,-653 402,-653 402,-653 408,-653 414,-659 414,-665 414,-665 414,-677 414,-677 414,-683 408,-689 402,-689"/>
<text text-anchor="middle" x="387" y="-666.8" font-family="Comic Sans MS" font-size="14.00">1</text>
</g>
<!-- _0c0_0a0_1c0_1c&#45;&#45;_0c0_0a0_1c0_1c0_2c -->
<g id="edge8" class="edge">
<title>_0c0_0a0_1c0_1c--_0c0_0a0_1c0_1c0_2c</title>
<path fill="none" stroke="black" d="M324.4,-640.9C335.74,-646.44 348.95,-652.9 360.22,-658.4"/>
</g>
<!-- _0c0_0a0_1c0_1c1_3c -->
<g id="node10" class="node">
<title>_0c0_0a0_1c0_1c1_3c</title>
<path fill="Khaki" stroke="black" stroke-width="0" d="M402,-646C402,-646 372,-646 372,-646 366,-646 360,-640 360,-634 360,-634 360,-622 360,-622 360,-616 366,-610 372,-610 372,-610 402,-610 402,-610 408,-610 414,-616 414,-622 414,-622 414,-634 414,-634 414,-640 408,-646 402,-646"/>
<text text-anchor="middle" x="387" y="-623.8" font-family="Comic Sans MS" font-size="14.00">1</text>
</g>
<!-- _0c0_0a0_1c0_1c&#45;&#45;_0c0_0a0_1c0_1c1_3c -->
<g id="edge9" class="edge">
<title>_0c0_0a0_1c0_1c--_0c0_0a0_1c0_1c1_3c</title>
<path fill="none" stroke="black" d="M324.4,-628C335.74,-628 348.95,-628 360.22,-628"/>
</g>
<!-- _0c0_0a0_1c1_1d0_3c0_3g -->
<g id="node16" class="node">
<title>_0c0_0a0_1c1_1d0_3c0_3g</title>
<path fill="none" stroke="black" d="M402,-603C402,-603 372,-603 372,-603 366,-603 360,-597 360,-591 360,-591 360,-579 360,-579 360,-573 366,-567 372,-567 372,-567 402,-567 402,-567 408,-567 414,-573 414,-579 414,-579 414,-591 414,-591 414,-597 408,-603 402,-603"/>
<text text-anchor="middle" x="387" y="-580.8" font-family="Comic Sans MS" font-size="14.00">1</text>
</g>
<!-- _0c0_0a0_1c1_1d0_3c&#45;&#45;_0c0_0a0_1c1_1d0_3c0_3g -->
<g id="edge15" class="edge">
<title>_0c0_0a0_1c1_1d0_3c--_0c0_0a0_1c1_1d0_3c0_3g</title>
<path fill="none" stroke="black" d="M323.93,-570.19C335.18,-572.87 348.35,-576.01 359.65,-578.71"/>
</g>
<!-- _0c0_0a0_1c1_1d0_3c1_3h -->
<g id="node17" class="node">
<title>_0c0_0a0_1c1_1d0_3c1_3h</title>
<path fill="none" stroke="black" d="M402,-560C402,-560 372,-560 372,-560 366,-560 360,-554 360,-548 360,-548 360,-536 360,-536 360,-530 366,-524 372,-524 372,-524 402,-524 402,-524 408,-524 414,-530 414,-536 414,-536 414,-548 414,-548 414,-554 408,-560 402,-560"/>
<text text-anchor="middle" x="387" y="-537.8" font-family="Comic Sans MS" font-size="14.00">1</text>
</g>
<!-- _0c0_0a0_1c1_1d0_3c&#45;&#45;_0c0_0a0_1c1_1d0_3c1_3h -->
<g id="edge16" class="edge">
<title>_0c0_0a0_1c1_1d0_3c--_0c0_0a0_1c1_1d0_3c1_3h</title>
<path fill="none" stroke="black" d="M323.93,-557.52C335.18,-554.7 348.35,-551.41 359.65,-548.59"/>
</g>
<!-- _0c0_0a0_1c0_1c0_2c0_2e -->
<g id="node11" class="node">
<title>_0c0_0a0_1c0_1c0_2c0_2e</title>
<path fill="none" stroke="black" d="M496,-689C496,-689 466,-689 466,-689 460,-689 454,-683 454,-677 454,-677 454,-665 454,-665 454,-659 460,-653 466,-653 466,-653 496,-653 496,-653 502,-653 508,-659 508,-665 508,-665 508,-677 508,-677 508,-683 502,-689 496,-689"/>
<text text-anchor="middle" x="481" y="-666.8" font-family="Comic Sans MS" font-size="14.00">1</text>
</g>
<!-- _0c0_0a0_1c0_1c0_2c&#45;&#45;_0c0_0a0_1c0_1c0_2c0_2e -->
<g id="edge10" class="edge">
<title>_0c0_0a0_1c0_1c0_2c--_0c0_0a0_1c0_1c0_2c0_2e</title>
<path fill="none" stroke="black" d="M413.63,-671C426.07,-671 441,-671 453.55,-671"/>
</g>
<!-- _0c0_0a0_1c0_1c1_3c0_3g0_2c -->
<g id="node12" class="node">
<title>_0c0_0a0_1c0_1c1_3c0_3g0_2c</title>
<path fill="LightSalmon" stroke="black" stroke-width="0" d="M496,-646C496,-646 466,-646 466,-646 460,-646 454,-640 454,-634 454,-634 454,-622 454,-622 454,-616 460,-610 466,-610 466,-610 496,-610 496,-610 502,-610 508,-616 508,-622 508,-622 508,-634 508,-634 508,-640 502,-646 496,-646"/>
<text text-anchor="middle" x="481" y="-623.8" font-family="Comic Sans MS" font-size="14.00">1</text>
</g>
<!-- _0c0_0a0_1c0_1c1_3c&#45;&#45;_0c0_0a0_1c0_1c1_3c0_3g0_2c -->
<g id="edge11" class="edge">
<title>_0c0_0a0_1c0_1c1_3c--_0c0_0a0_1c0_1c1_3c0_3g0_2c</title>
<path fill="none" stroke="black" d="M413.63,-628C426.28,-628 441.51,-628 454.19,-628"/>
</g>
<!-- _0c0_0a0_1c0_1c1_3c1_3h0_2c -->
<g id="node13" class="node">
<title>_0c0_0a0_1c0_1c1_3c1_3h0_2c</title>
<path fill="LightSalmon" stroke="black" stroke-width="0" d="M496,-603C496,-603 466,-603 466,-603 460,-603 454,-597 454,-591 454,-591 454,-579 454,-579 454,-573 460,-567 466,-567 466,-567 496,-567 496,-567 502,-567 508,-573 508,-579 508,-579 508,-591 508,-591 508,-597 502,-603 496,-603"/>
<text text-anchor="middle" x="481" y="-580.8" font-family="Comic Sans MS" font-size="14.00">1</text>
</g>
<!-- _0c0_0a0_1c0_1c1_3c&#45;&#45;_0c0_0a0_1c0_1c1_3c1_3h0_2c -->
<g id="edge12" class="edge">
<title>_0c0_0a0_1c0_1c1_3c--_0c0_0a0_1c0_1c1_3c1_3h0_2c</title>
<path fill="none" stroke="black" d="M413.63,-616.02C426.28,-610.11 441.51,-602.99 454.19,-597.06"/>
</g>
<!-- _0c0_0a0_1c0_1c1_3c0_3g0_2c0_2e -->
<g id="node14" class="node">
<title>_0c0_0a0_1c0_1c1_3c0_3g0_2c0_2e</title>
<path fill="none" stroke="black" d="M590,-646C590,-646 560,-646 560,-646 554,-646 548,-640 548,-634 548,-634 548,-622 548,-622 548,-616 554,-610 560,-610 560,-610 590,-610 590,-610 596,-610 602,-616 602,-622 602,-622 602,-634 602,-634 602,-640 596,-646 590,-646"/>
<text text-anchor="middle" x="575" y="-623.8" font-family="Comic Sans MS" font-size="14.00">1</text>
</g>
<!-- _0c0_0a0_1c0_1c1_3c0_3g0_2c&#45;&#45;_0c0_0a0_1c0_1c1_3c0_3g0_2c0_2e -->
<g id="edge13" class="edge">
<title>_0c0_0a0_1c0_1c1_3c0_3g0_2c--_0c0_0a0_1c0_1c1_3c0_3g0_2c0_2e</title>
<path fill="none" stroke="black" d="M507.63,-628C520.07,-628 535,-628 547.55,-628"/>
</g>
<!-- _0c0_0a0_1c0_1c1_3c1_3h0_2c0_2e -->
<g id="node15" class="node">
<title>_0c0_0a0_1c0_1c1_3c1_3h0_2c0_2e</title>
<path fill="none" stroke="black" d="M590,-603C590,-603 560,-603 560,-603 554,-603 548,-597 548,-591 548,-591 548,-579 548,-579 548,-573 554,-567 560,-567 560,-567 590,-567 590,-567 596,-567 602,-573 602,-579 602,-579 602,-591 602,-591 602,-597 596,-603 590,-603"/>
<text text-anchor="middle" x="575" y="-580.8" font-family="Comic Sans MS" font-size="14.00">1</text>
</g>
<!-- _0c0_0a0_1c0_1c1_3c1_3h0_2c&#45;&#45;_0c0_0a0_1c0_1c1_3c1_3h0_2c0_2e -->
<g id="edge14" class="edge">
<title>_0c0_0a0_1c0_1c1_3c1_3h0_2c--_0c0_0a0_1c0_1c1_3c1_3h0_2c0_2e</title>
<path fill="none" stroke="black" d="M507.63,-585C520.07,-585 535,-585 547.55,-585"/>
</g>
<!-- _0c0_0a1_2c0_2e0_1c -->
<g id="node20" class="node">
<title>_0c0_0a1_2c0_2e0_1c</title>
<path fill="PaleGreen" stroke="black" stroke-width="0" d="M402,-517C402,-517 372,-517 372,-517 366,-517 360,-511 360,-505 360,-505 360,-493 360,-493 360,-487 366,-481 372,-481 372,-481 402,-481 402,-481 408,-481 414,-487 414,-493 414,-493 414,-505 414,-505 414,-511 408,-517 402,-517"/>
<text text-anchor="middle" x="387" y="-494.8" font-family="Comic Sans MS" font-size="14.00">1</text>
</g>
<!-- _0c0_0a1_2c0_2e&#45;&#45;_0c0_0a1_2c0_2e0_1c -->
<g id="edge19" class="edge">
<title>_0c0_0a1_2c0_2e--_0c0_0a1_2c0_2e0_1c</title>
<path fill="none" stroke="black" d="M324.4,-468.9C335.74,-474.44 348.95,-480.9 360.22,-486.4"/>
</g>
<!-- _0c0_0a1_2c0_2e1_3c -->
<g id="node21" class="node">
<title>_0c0_0a1_2c0_2e1_3c</title>
<path fill="Khaki" stroke="black" stroke-width="0" d="M402,-474C402,-474 372,-474 372,-474 366,-474 360,-468 360,-462 360,-462 360,-450 360,-450 360,-444 366,-438 372,-438 372,-438 402,-438 402,-438 408,-438 414,-444 414,-450 414,-450 414,-462 414,-462 414,-468 408,-474 402,-474"/>
<text text-anchor="middle" x="387" y="-451.8" font-family="Comic Sans MS" font-size="14.00">1</text>
</g>
<!-- _0c0_0a1_2c0_2e&#45;&#45;_0c0_0a1_2c0_2e1_3c -->
<g id="edge20" class="edge">
<title>_0c0_0a1_2c0_2e--_0c0_0a1_2c0_2e1_3c</title>
<path fill="none" stroke="black" d="M324.4,-456C335.74,-456 348.95,-456 360.22,-456"/>
</g>
<!-- _0c0_0a1_2c1_2f0_1c -->
<g id="node28" class="node">
<title>_0c0_0a1_2c1_2f0_1c</title>
<path fill="PaleGreen" stroke="black" stroke-width="0" d="M402,-431C402,-431 372,-431 372,-431 366,-431 360,-425 360,-419 360,-419 360,-407 360,-407 360,-401 366,-395 372,-395 372,-395 402,-395 402,-395 408,-395 414,-401 414,-407 414,-407 414,-419 414,-419 414,-425 408,-431 402,-431"/>
<text text-anchor="middle" x="387" y="-408.8" font-family="Comic Sans MS" font-size="14.00">1</text>
</g>
<!-- _0c0_0a1_2c1_2f&#45;&#45;_0c0_0a1_2c1_2f0_1c -->
<g id="edge27" class="edge">
<title>_0c0_0a1_2c1_2f--_0c0_0a1_2c1_2f0_1c</title>
<path fill="none" stroke="black" d="M324.4,-390.6C335.74,-394.72 348.95,-399.53 360.22,-403.63"/>
</g>
<!-- _0c0_0a1_2c1_2f1_3c -->
<g id="node29" class="node">
<title>_0c0_0a1_2c1_2f1_3c</title>
<path fill="Khaki" stroke="black" stroke-width="0" d="M402,-388C402,-388 372,-388 372,-388 366,-388 360,-382 360,-376 360,-376 360,-364 360,-364 360,-358 366,-352 372,-352 372,-352 402,-352 402,-352 408,-352 414,-358 414,-364 414,-364 414,-376 414,-376 414,-382 408,-388 402,-388"/>
<text text-anchor="middle" x="387" y="-365.8" font-family="Comic Sans MS" font-size="14.00">1</text>
</g>
<!-- _0c0_0a1_2c1_2f&#45;&#45;_0c0_0a1_2c1_2f1_3c -->
<g id="edge28" class="edge">
<title>_0c0_0a1_2c1_2f--_0c0_0a1_2c1_2f1_3c</title>
<path fill="none" stroke="black" d="M324.4,-377.7C335.74,-376.28 348.95,-374.63 360.22,-373.22"/>
</g>
<!-- _0c0_0a1_2c0_2e0_1c0_1c0_3c -->
<g id="node22" class="node">
<title>_0c0_0a1_2c0_2e0_1c0_1c0_3c</title>
<path fill="Khaki" stroke="black" stroke-width="0" d="M496,-560C496,-560 466,-560 466,-560 460,-560 454,-554 454,-548 454,-548 454,-536 454,-536 454,-530 460,-524 466,-524 466,-524 496,-524 496,-524 502,-524 508,-530 508,-536 508,-536 508,-548 508,-548 508,-554 502,-560 496,-560"/>
<text text-anchor="middle" x="481" y="-537.8" font-family="Comic Sans MS" font-size="14.00">1</text>
</g>
<!-- _0c0_0a1_2c0_2e0_1c&#45;&#45;_0c0_0a1_2c0_2e0_1c0_1c0_3c -->
<g id="edge21" class="edge">
<title>_0c0_0a1_2c0_2e0_1c--_0c0_0a1_2c0_2e0_1c0_1c0_3c</title>
<path fill="none" stroke="black" d="M413.63,-510.98C426.28,-516.89 441.51,-524.01 454.19,-529.94"/>
</g>
<!-- _0c0_0a1_2c0_2e0_1c1_1d0_3c -->
<g id="node23" class="node">
<title>_0c0_0a1_2c0_2e0_1c1_1d0_3c</title>
<path fill="Khaki" stroke="black" stroke-width="0" d="M496,-517C496,-517 466,-517 466,-517 460,-517 454,-511 454,-505 454,-505 454,-493 454,-493 454,-487 460,-481 466,-481 466,-481 496,-481 496,-481 502,-481 508,-487 508,-493 508,-493 508,-505 508,-505 508,-511 502,-517 496,-517"/>
<text text-anchor="middle" x="481" y="-494.8" font-family="Comic Sans MS" font-size="14.00">1</text>
</g>
<!-- _0c0_0a1_2c0_2e0_1c&#45;&#45;_0c0_0a1_2c0_2e0_1c1_1d0_3c -->
<g id="edge22" class="edge">
<title>_0c0_0a1_2c0_2e0_1c--_0c0_0a1_2c0_2e0_1c1_1d0_3c</title>
<path fill="none" stroke="black" d="M413.63,-499C426.28,-499 441.51,-499 454.19,-499"/>
</g>
<!-- _0c0_0a1_2c0_2e1_3c0_3g0_1c -->
<g id="node26" class="node">
<title>_0c0_0a1_2c0_2e1_3c0_3g0_1c</title>
<path fill="PaleGreen" stroke="black" stroke-width="0" d="M496,-474C496,-474 466,-474 466,-474 460,-474 454,-468 454,-462 454,-462 454,-450 454,-450 454,-444 460,-438 466,-438 466,-438 496,-438 496,-438 502,-438 508,-444 508,-450 508,-450 508,-462 508,-462 508,-468 502,-474 496,-474"/>
<text text-anchor="middle" x="481" y="-451.8" font-family="Comic Sans MS" font-size="14.00">1</text>
</g>
<!-- _0c0_0a1_2c0_2e1_3c&#45;&#45;_0c0_0a1_2c0_2e1_3c0_3g0_1c -->
<g id="edge25" class="edge">
<title>_0c0_0a1_2c0_2e1_3c--_0c0_0a1_2c0_2e1_3c0_3g0_1c</title>
<path fill="none" stroke="black" d="M413.63,-456C426.28,-456 441.51,-456 454.19,-456"/>
</g>
<!-- _0c0_0a1_2c0_2e0_1c0_1c0_3c0_3h -->
<g id="node24" class="node">
<title>_0c0_0a1_2c0_2e0_1c0_1c0_3c0_3h</title>
<path fill="none" stroke="black" d="M590,-560C590,-560 560,-560 560,-560 554,-560 548,-554 548,-548 548,-548 548,-536 548,-536 548,-530 554,-524 560,-524 560,-524 590,-524 590,-524 596,-524 602,-530 602,-536 602,-536 602,-548 602,-548 602,-554 596,-560 590,-560"/>
<text text-anchor="middle" x="575" y="-537.8" font-family="Comic Sans MS" font-size="14.00">1</text>
</g>
<!-- _0c0_0a1_2c0_2e0_1c0_1c0_3c&#45;&#45;_0c0_0a1_2c0_2e0_1c0_1c0_3c0_3h -->
<g id="edge23" class="edge">
<title>_0c0_0a1_2c0_2e0_1c0_1c0_3c--_0c0_0a1_2c0_2e0_1c0_1c0_3c0_3h</title>
<path fill="none" stroke="black" d="M507.63,-542C520.07,-542 535,-542 547.55,-542"/>
</g>
<!-- _0c0_0a1_2c0_2e0_1c1_1d0_3c0_3h -->
<g id="node25" class="node">
<title>_0c0_0a1_2c0_2e0_1c1_1d0_3c0_3h</title>
<path fill="none" stroke="black" d="M590,-517C590,-517 560,-517 560,-517 554,-517 548,-511 548,-505 548,-505 548,-493 548,-493 548,-487 554,-481 560,-481 560,-481 590,-481 590,-481 596,-481 602,-487 602,-493 602,-493 602,-505 602,-505 602,-511 596,-517 590,-517"/>
<text text-anchor="middle" x="575" y="-494.8" font-family="Comic Sans MS" font-size="14.00">1</text>
</g>
<!-- _0c0_0a1_2c0_2e0_1c1_1d0_3c&#45;&#45;_0c0_0a1_2c0_2e0_1c1_1d0_3c0_3h -->
<g id="edge24" class="edge">
<title>_0c0_0a1_2c0_2e0_1c1_1d0_3c--_0c0_0a1_2c0_2e0_1c1_1d0_3c0_3h</title>
<path fill="none" stroke="black" d="M507.63,-499C520.07,-499 535,-499 547.55,-499"/>
</g>
<!-- _0c0_0a1_2c0_2e1_3c0_3g0_1c0_1d -->
<g id="node27" class="node">
<title>_0c0_0a1_2c0_2e1_3c0_3g0_1c0_1d</title>
<path fill="none" stroke="black" d="M590,-474C590,-474 560,-474 560,-474 554,-474 548,-468 548,-462 548,-462 548,-450 548,-450 548,-444 554,-438 560,-438 560,-438 590,-438 590,-438 596,-438 602,-444 602,-450 602,-450 602,-462 602,-462 602,-468 596,-474 590,-474"/>
<text text-anchor="middle" x="575" y="-451.8" font-family="Comic Sans MS" font-size="14.00">1</text>
</g>
<!-- _0c0_0a1_2c0_2e1_3c0_3g0_1c&#45;&#45;_0c0_0a1_2c0_2e1_3c0_3g0_1c0_1d -->
<g id="edge26" class="edge">
<title>_0c0_0a1_2c0_2e1_3c0_3g0_1c--_0c0_0a1_2c0_2e1_3c0_3g0_1c0_1d</title>
<path fill="none" stroke="black" d="M507.63,-456C520.07,-456 535,-456 547.55,-456"/>
</g>
<!-- _0c0_0a1_2c1_2f0_1c0_1d -->
<g id="node30" class="node">
<title>_0c0_0a1_2c1_2f0_1c0_1d</title>
<path fill="none" stroke="black" d="M496,-431C496,-431 466,-431 466,-431 460,-431 454,-425 454,-419 454,-419 454,-407 454,-407 454,-401 460,-395 466,-395 466,-395 496,-395 496,-395 502,-395 508,-401 508,-407 508,-407 508,-419 508,-419 508,-425 502,-431 496,-431"/>
<text text-anchor="middle" x="481" y="-408.8" font-family="Comic Sans MS" font-size="14.00">1</text>
</g>
<!-- _0c0_0a1_2c1_2f0_1c&#45;&#45;_0c0_0a1_2c1_2f0_1c0_1d -->
<g id="edge29" class="edge">
<title>_0c0_0a1_2c1_2f0_1c--_0c0_0a1_2c1_2f0_1c0_1d</title>
<path fill="none" stroke="black" d="M413.63,-413C426.07,-413 441,-413 453.55,-413"/>
</g>
<!-- _0c0_0a1_2c1_2f1_3c0_3g -->
<g id="node31" class="node">
<title>_0c0_0a1_2c1_2f1_3c0_3g</title>
<path fill="none" stroke="black" d="M496,-388C496,-388 466,-388 466,-388 460,-388 454,-382 454,-376 454,-376 454,-364 454,-364 454,-358 460,-352 466,-352 466,-352 496,-352 496,-352 502,-352 508,-358 508,-364 508,-364 508,-376 508,-376 508,-382 502,-388 496,-388"/>
<text text-anchor="middle" x="481" y="-365.8" font-family="Comic Sans MS" font-size="14.00">1</text>
</g>
<!-- _0c0_0a1_2c1_2f1_3c&#45;&#45;_0c0_0a1_2c1_2f1_3c0_3g -->
<g id="edge30" class="edge">
<title>_0c0_0a1_2c1_2f1_3c--_0c0_0a1_2c1_2f1_3c0_3g</title>
<path fill="none" stroke="black" d="M413.63,-370C426.07,-370 441,-370 453.55,-370"/>
</g>
<!-- _0c0_0a2_3c0_3g0_1c -->
<g id="node34" class="node">
<title>_0c0_0a2_3c0_3g0_1c</title>
<path fill="PaleGreen" stroke="black" stroke-width="0" d="M402,-345C402,-345 372,-345 372,-345 366,-345 360,-339 360,-333 360,-333 360,-321 360,-321 360,-315 366,-309 372,-309 372,-309 402,-309 402,-309 408,-309 414,-315 414,-321 414,-321 414,-333 414,-333 414,-339 408,-345 402,-345"/>
<text text-anchor="middle" x="387" y="-322.8" font-family="Comic Sans MS" font-size="14.00">1</text>
</g>
<!-- _0c0_0a2_3c0_3g&#45;&#45;_0c0_0a2_3c0_3g0_1c -->
<g id="edge33" class="edge">
<title>_0c0_0a2_3c0_3g--_0c0_0a2_3c0_3g0_1c</title>
<path fill="none" stroke="black" d="M324.4,-319.3C335.74,-320.72 348.95,-322.37 360.22,-323.78"/>
</g>
<!-- _0c0_0a2_3c0_3g1_2c -->
<g id="node35" class="node">
<title>_0c0_0a2_3c0_3g1_2c</title>
<path fill="LightSalmon" stroke="black" stroke-width="0" d="M402,-300C402,-300 372,-300 372,-300 366,-300 360,-294 360,-288 360,-288 360,-276 360,-276 360,-270 366,-264 372,-264 372,-264 402,-264 402,-264 408,-264 414,-270 414,-276 414,-276 414,-288 414,-288 414,-294 408,-300 402,-300"/>
<text text-anchor="middle" x="387" y="-277.8" font-family="Comic Sans MS" font-size="14.00">5</text>
</g>
<!-- _0c0_0a2_3c0_3g&#45;&#45;_0c0_0a2_3c0_3g1_2c -->
<g id="edge34" class="edge">
<title>_0c0_0a2_3c0_3g--_0c0_0a2_3c0_3g1_2c</title>
<path fill="none" stroke="black" d="M324.4,-305.8C335.74,-301.42 348.95,-296.31 360.22,-291.96"/>
</g>
<!-- _0c0_0a2_3c1_3h0_1c -->
<g id="node40" class="node">
<title>_0c0_0a2_3c1_3h0_1c</title>
<path fill="PaleGreen" stroke="black" stroke-width="0" d="M402,-251C402,-251 372,-251 372,-251 366,-251 360,-245 360,-239 360,-239 360,-227 360,-227 360,-221 366,-215 372,-215 372,-215 402,-215 402,-215 408,-215 414,-221 414,-227 414,-227 414,-239 414,-239 414,-245 408,-251 402,-251"/>
<text text-anchor="middle" x="387" y="-228.8" font-family="Comic Sans MS" font-size="14.00">2</text>
</g>
<!-- _0c0_0a2_3c1_3h&#45;&#45;_0c0_0a2_3c1_3h0_1c -->
<g id="edge39" class="edge">
<title>_0c0_0a2_3c1_3h--_0c0_0a2_3c1_3h0_1c</title>
<path fill="none" stroke="black" d="M324.4,-233C335.74,-233 348.95,-233 360.22,-233"/>
</g>
<!-- _0c0_0a2_3c1_3h1_2c -->
<g id="node41" class="node">
<title>_0c0_0a2_3c1_3h1_2c</title>
<path fill="LightSalmon" stroke="black" stroke-width="0" d="M402,-208C402,-208 372,-208 372,-208 366,-208 360,-202 360,-196 360,-196 360,-184 360,-184 360,-178 366,-172 372,-172 372,-172 402,-172 402,-172 408,-172 414,-178 414,-184 414,-184 414,-196 414,-196 414,-202 408,-208 402,-208"/>
<text text-anchor="middle" x="387" y="-185.8" font-family="Comic Sans MS" font-size="14.00">3</text>
</g>
<!-- _0c0_0a2_3c1_3h&#45;&#45;_0c0_0a2_3c1_3h1_2c -->
<g id="edge40" class="edge">
<title>_0c0_0a2_3c1_3h--_0c0_0a2_3c1_3h1_2c</title>
<path fill="none" stroke="black" d="M324.4,-220.1C335.74,-214.56 348.95,-208.1 360.22,-202.6"/>
</g>
<!-- _0c0_0a2_3c0_3g0_1c0_1d -->
<g id="node36" class="node">
<title>_0c0_0a2_3c0_3g0_1c0_1d</title>
<path fill="none" stroke="black" d="M496,-345C496,-345 466,-345 466,-345 460,-345 454,-339 454,-333 454,-333 454,-321 454,-321 454,-315 460,-309 466,-309 466,-309 496,-309 496,-309 502,-309 508,-315 508,-321 508,-321 508,-333 508,-333 508,-339 502,-345 496,-345"/>
<text text-anchor="middle" x="481" y="-322.8" font-family="Comic Sans MS" font-size="14.00">1</text>
</g>
<!-- _0c0_0a2_3c0_3g0_1c&#45;&#45;_0c0_0a2_3c0_3g0_1c0_1d -->
<g id="edge35" class="edge">
<title>_0c0_0a2_3c0_3g0_1c--_0c0_0a2_3c0_3g0_1c0_1d</title>
<path fill="none" stroke="black" d="M413.63,-327C426.07,-327 441,-327 453.55,-327"/>
</g>
<!-- _0c0_0a2_3c0_3g1_2c0_2e -->
<g id="node37" class="node">
<title>_0c0_0a2_3c0_3g1_2c0_2e</title>
<path fill="none" stroke="black" d="M496,-298C496,-298 466,-298 466,-298 460,-298 454,-292 454,-286 454,-286 454,-274 454,-274 454,-268 460,-262 466,-262 466,-262 496,-262 496,-262 502,-262 508,-268 508,-274 508,-274 508,-286 508,-286 508,-292 502,-298 496,-298"/>
<path fill="none" stroke="black" d="M500,-302C500,-302 462,-302 462,-302 456,-302 450,-296 450,-290 450,-290 450,-270 450,-270 450,-264 456,-258 462,-258 462,-258 500,-258 500,-258 506,-258 512,-264 512,-270 512,-270 512,-290 512,-290 512,-296 506,-302 500,-302"/>
<text text-anchor="middle" x="481" y="-275.8" font-family="Comic Sans MS" font-size="14.00">5</text>
</g>
<!-- _0c0_0a2_3c0_3g1_2c&#45;&#45;_0c0_0a2_3c0_3g1_2c0_2e -->
<g id="edge36" class="edge">
<title>_0c0_0a2_3c0_3g1_2c--_0c0_0a2_3c0_3g1_2c0_2e</title>
<path fill="none" stroke="black" d="M413.63,-281.44C424.79,-281.2 437.96,-280.91 449.62,-280.66"/>
</g>
<!-- _0c0_0a2_3c0_3g1_2c0_2e0_1c -->
<g id="node38" class="node">
<title>_0c0_0a2_3c0_3g1_2c0_2e0_1c</title>
<path fill="PaleGreen" stroke="black" stroke-width="0" d="M590,-298C590,-298 560,-298 560,-298 554,-298 548,-292 548,-286 548,-286 548,-274 548,-274 548,-268 554,-262 560,-262 560,-262 590,-262 590,-262 596,-262 602,-268 602,-274 602,-274 602,-286 602,-286 602,-292 596,-298 590,-298"/>
<text text-anchor="middle" x="575" y="-275.8" font-family="Comic Sans MS" font-size="14.00">3</text>
</g>
<!-- _0c0_0a2_3c0_3g1_2c0_2e&#45;&#45;_0c0_0a2_3c0_3g1_2c0_2e0_1c -->
<g id="edge37" class="edge">
<title>_0c0_0a2_3c0_3g1_2c0_2e--_0c0_0a2_3c0_3g1_2c0_2e0_1c</title>
<path fill="none" stroke="black" d="M512.38,-280C524,-280 537.13,-280 548.27,-280"/>
</g>
<!-- _0c0_0a2_3c0_3g1_2c0_2e0_1c0_1d -->
<g id="node39" class="node">
<title>_0c0_0a2_3c0_3g1_2c0_2e0_1c0_1d</title>
<path fill="none" stroke="black" d="M680,-298C680,-298 650,-298 650,-298 644,-298 638,-292 638,-286 638,-286 638,-274 638,-274 638,-268 644,-262 650,-262 650,-262 680,-262 680,-262 686,-262 692,-268 692,-274 692,-274 692,-286 692,-286 692,-292 686,-298 680,-298"/>
<text text-anchor="middle" x="665" y="-275.8" font-family="Comic Sans MS" font-size="14.00">3</text>
</g>
<!-- _0c0_0a2_3c0_3g1_2c0_2e0_1c&#45;&#45;_0c0_0a2_3c0_3g1_2c0_2e0_1c0_1d -->
<g id="edge38" class="edge">
<title>_0c0_0a2_3c0_3g1_2c0_2e0_1c--_0c0_0a2_3c0_3g1_2c0_2e0_1c0_1d</title>
<path fill="none" stroke="black" d="M601.93,-280C613.18,-280 626.35,-280 637.65,-280"/>
</g>
<!-- _0c0_0a2_3c1_3h0_1c0_1d -->
<g id="node42" class="node">
<title>_0c0_0a2_3c1_3h0_1c0_1d</title>
<path fill="none" stroke="black" d="M496,-247C496,-247 466,-247 466,-247 460,-247 454,-241 454,-235 454,-235 454,-223 454,-223 454,-217 460,-211 466,-211 466,-211 496,-211 496,-211 502,-211 508,-217 508,-223 508,-223 508,-235 508,-235 508,-241 502,-247 496,-247"/>
<path fill="none" stroke="black" d="M500,-251C500,-251 462,-251 462,-251 456,-251 450,-245 450,-239 450,-239 450,-219 450,-219 450,-213 456,-207 462,-207 462,-207 500,-207 500,-207 506,-207 512,-213 512,-219 512,-219 512,-239 512,-239 512,-245 506,-251 500,-251"/>
<text text-anchor="middle" x="481" y="-224.8" font-family="Comic Sans MS" font-size="14.00">2</text>
</g>
<!-- _0c0_0a2_3c1_3h0_1c&#45;&#45;_0c0_0a2_3c1_3h0_1c0_1d -->
<g id="edge41" class="edge">
<title>_0c0_0a2_3c1_3h0_1c--_0c0_0a2_3c1_3h0_1c0_1d</title>
<path fill="none" stroke="black" d="M413.63,-231.89C424.79,-231.4 437.96,-230.83 449.62,-230.32"/>
</g>
<!-- _0c0_0a2_3c1_3h1_2c0_2e -->
<g id="node45" class="node">
<title>_0c0_0a2_3c1_3h1_2c0_2e</title>
<path fill="none" stroke="black" d="M496,-196C496,-196 466,-196 466,-196 460,-196 454,-190 454,-184 454,-184 454,-172 454,-172 454,-166 460,-160 466,-160 466,-160 496,-160 496,-160 502,-160 508,-166 508,-172 508,-172 508,-184 508,-184 508,-190 502,-196 496,-196"/>
<path fill="none" stroke="black" d="M500,-200C500,-200 462,-200 462,-200 456,-200 450,-194 450,-188 450,-188 450,-168 450,-168 450,-162 456,-156 462,-156 462,-156 500,-156 500,-156 506,-156 512,-162 512,-168 512,-168 512,-188 512,-188 512,-194 506,-200 500,-200"/>
<text text-anchor="middle" x="481" y="-173.8" font-family="Comic Sans MS" font-size="14.00">3</text>
</g>
<!-- _0c0_0a2_3c1_3h1_2c&#45;&#45;_0c0_0a2_3c1_3h1_2c0_2e -->
<g id="edge44" class="edge">
<title>_0c0_0a2_3c1_3h1_2c--_0c0_0a2_3c1_3h1_2c0_2e</title>
<path fill="none" stroke="black" d="M413.63,-186.66C424.79,-185.2 437.96,-183.48 449.62,-181.96"/>
</g>
<!-- _0c0_0a2_3c1_3h0_1c0_1d0_2c -->
<g id="node43" class="node">
<title>_0c0_0a2_3c1_3h0_1c0_1d0_2c</title>
<path fill="LightSalmon" stroke="black" stroke-width="0" d="M590,-247C590,-247 560,-247 560,-247 554,-247 548,-241 548,-235 548,-235 548,-223 548,-223 548,-217 554,-211 560,-211 560,-211 590,-211 590,-211 596,-211 602,-217 602,-223 602,-223 602,-235 602,-235 602,-241 596,-247 590,-247"/>
<text text-anchor="middle" x="575" y="-224.8" font-family="Comic Sans MS" font-size="14.00">1</text>
</g>
<!-- _0c0_0a2_3c1_3h0_1c0_1d&#45;&#45;_0c0_0a2_3c1_3h0_1c0_1d0_2c -->
<g id="edge42" class="edge">
<title>_0c0_0a2_3c1_3h0_1c0_1d--_0c0_0a2_3c1_3h0_1c0_1d0_2c</title>
<path fill="none" stroke="black" d="M512.38,-229C524,-229 537.13,-229 548.27,-229"/>
</g>
<!-- _0c0_0a2_3c1_3h0_1c0_1d0_2c0_2e -->
<g id="node44" class="node">
<title>_0c0_0a2_3c1_3h0_1c0_1d0_2c0_2e</title>
<path fill="none" stroke="black" d="M680,-247C680,-247 650,-247 650,-247 644,-247 638,-241 638,-235 638,-235 638,-223 638,-223 638,-217 644,-211 650,-211 650,-211 680,-211 680,-211 686,-211 692,-217 692,-223 692,-223 692,-235 692,-235 692,-241 686,-247 680,-247"/>
<text text-anchor="middle" x="665" y="-224.8" font-family="Comic Sans MS" font-size="14.00">1</text>
</g>
<!-- _0c0_0a2_3c1_3h0_1c0_1d0_2c&#45;&#45;_0c0_0a2_3c1_3h0_1c0_1d0_2c0_2e -->
<g id="edge43" class="edge">
<title>_0c0_0a2_3c1_3h0_1c0_1d0_2c--_0c0_0a2_3c1_3h0_1c0_1d0_2c0_2e</title>
<path fill="none" stroke="black" d="M601.93,-229C613.18,-229 626.35,-229 637.65,-229"/>
</g>
<!-- _0c0_0a2_3c1_3h1_2c0_2e0_1c -->
<g id="node46" class="node">
<title>_0c0_0a2_3c1_3h1_2c0_2e0_1c</title>
<path fill="PaleGreen" stroke="black" stroke-width="0" d="M590,-196C590,-196 560,-196 560,-196 554,-196 548,-190 548,-184 548,-184 548,-172 548,-172 548,-166 554,-160 560,-160 560,-160 590,-160 590,-160 596,-160 602,-166 602,-172 602,-172 602,-184 602,-184 602,-190 596,-196 590,-196"/>
<text text-anchor="middle" x="575" y="-173.8" font-family="Comic Sans MS" font-size="14.00">2</text>
</g>
<!-- _0c0_0a2_3c1_3h1_2c0_2e&#45;&#45;_0c0_0a2_3c1_3h1_2c0_2e0_1c -->
<g id="edge45" class="edge">
<title>_0c0_0a2_3c1_3h1_2c0_2e--_0c0_0a2_3c1_3h1_2c0_2e0_1c</title>
<path fill="none" stroke="black" d="M512.38,-178C524,-178 537.13,-178 548.27,-178"/>
</g>
<!-- _0c0_0a2_3c1_3h1_2c0_2e0_1c0_1d -->
<g id="node47" class="node">
<title>_0c0_0a2_3c1_3h1_2c0_2e0_1c0_1d</title>
<path fill="none" stroke="black" d="M680,-196C680,-196 650,-196 650,-196 644,-196 638,-190 638,-184 638,-184 638,-172 638,-172 638,-166 644,-160 650,-160 650,-160 680,-160 680,-160 686,-160 692,-166 692,-172 692,-172 692,-184 692,-184 692,-190 686,-196 680,-196"/>
<text text-anchor="middle" x="665" y="-173.8" font-family="Comic Sans MS" font-size="14.00">2</text>
</g>
<!-- _0c0_0a2_3c1_3h1_2c0_2e0_1c&#45;&#45;_0c0_0a2_3c1_3h1_2c0_2e0_1c0_1d -->
<g id="edge46" class="edge">
<title>_0c0_0a2_3c1_3h1_2c0_2e0_1c--_0c0_0a2_3c1_3h1_2c0_2e0_1c0_1d</title>
<path fill="none" stroke="black" d="M601.93,-178C613.18,-178 626.35,-178 637.65,-178"/>
</g>
<!-- _0c1_0b0_1c1_1d0_2c -->
<g id="node51" class="node">
<title>_0c1_0b0_1c1_1d0_2c</title>
<path fill="LightSalmon" stroke="black" stroke-width="0" d="M312,-165C312,-165 282,-165 282,-165 276,-165 270,-159 270,-153 270,-153 270,-141 270,-141 270,-135 276,-129 282,-129 282,-129 312,-129 312,-129 318,-129 324,-135 324,-141 324,-141 324,-153 324,-153 324,-159 318,-165 312,-165"/>
<text text-anchor="middle" x="297" y="-142.8" font-family="Comic Sans MS" font-size="14.00">1</text>
</g>
<!-- _0c1_0b0_1c&#45;&#45;_0c1_0b0_1c1_1d0_2c -->
<g id="edge50" class="edge">
<title>_0c1_0b0_1c--_0c1_0b0_1c1_1d0_2c</title>
<path fill="none" stroke="black" d="M233.93,-147C245.38,-147 258.82,-147 270.26,-147"/>
</g>
<!-- _0c1_0b1_2c0_2e -->
<g id="node53" class="node">
<title>_0c1_0b1_2c0_2e</title>
<path fill="none" stroke="black" d="M312,-122C312,-122 282,-122 282,-122 276,-122 270,-116 270,-110 270,-110 270,-98 270,-98 270,-92 276,-86 282,-86 282,-86 312,-86 312,-86 318,-86 324,-92 324,-98 324,-98 324,-110 324,-110 324,-116 318,-122 312,-122"/>
<text text-anchor="middle" x="297" y="-99.8" font-family="Comic Sans MS" font-size="14.00">3</text>
</g>
<!-- _0c1_0b1_2c&#45;&#45;_0c1_0b1_2c0_2e -->
<g id="edge52" class="edge">
<title>_0c1_0b1_2c--_0c1_0b1_2c0_2e</title>
<path fill="none" stroke="black" d="M233.93,-104C245.18,-104 258.35,-104 269.65,-104"/>
</g>
<!-- _0c1_0b2_3c0_3g0_2c -->
<g id="node60" class="node">
<title>_0c1_0b2_3c0_3g0_2c</title>
<path fill="LightSalmon" stroke="black" stroke-width="0" d="M312,-47C312,-47 282,-47 282,-47 276,-47 270,-41 270,-35 270,-35 270,-23 270,-23 270,-17 276,-11 282,-11 282,-11 312,-11 312,-11 318,-11 324,-17 324,-23 324,-23 324,-35 324,-35 324,-41 318,-47 312,-47"/>
<text text-anchor="middle" x="297" y="-24.8" font-family="Comic Sans MS" font-size="14.00">1</text>
</g>
<!-- _0c1_0b2_3c&#45;&#45;_0c1_0b2_3c0_3g0_2c -->
<g id="edge59" class="edge">
<title>_0c1_0b2_3c--_0c1_0b2_3c0_3g0_2c</title>
<path fill="none" stroke="black" d="M233.93,-43.81C245.38,-41.08 258.82,-37.87 270.26,-35.14"/>
</g>
<!-- _0c1_0b0_1c1_1d0_2c0_2e -->
<g id="node52" class="node">
<title>_0c1_0b0_1c1_1d0_2c0_2e</title>
<path fill="none" stroke="black" d="M402,-165C402,-165 372,-165 372,-165 366,-165 360,-159 360,-153 360,-153 360,-141 360,-141 360,-135 366,-129 372,-129 372,-129 402,-129 402,-129 408,-129 414,-135 414,-141 414,-141 414,-153 414,-153 414,-159 408,-165 402,-165"/>
<text text-anchor="middle" x="387" y="-142.8" font-family="Comic Sans MS" font-size="14.00">1</text>
</g>
<!-- _0c1_0b0_1c1_1d0_2c&#45;&#45;_0c1_0b0_1c1_1d0_2c0_2e -->
<g id="edge51" class="edge">
<title>_0c1_0b0_1c1_1d0_2c--_0c1_0b0_1c1_1d0_2c0_2e</title>
<path fill="none" stroke="black" d="M323.93,-147C335.18,-147 348.35,-147 359.65,-147"/>
</g>
<!-- _0c1_0b1_2c0_2e0_1c -->
<g id="node54" class="node">
<title>_0c1_0b1_2c0_2e0_1c</title>
<path fill="PaleGreen" stroke="black" stroke-width="0" d="M402,-122C402,-122 372,-122 372,-122 366,-122 360,-116 360,-110 360,-110 360,-98 360,-98 360,-92 366,-86 372,-86 372,-86 402,-86 402,-86 408,-86 414,-92 414,-98 414,-98 414,-110 414,-110 414,-116 408,-122 402,-122"/>
<text text-anchor="middle" x="387" y="-99.8" font-family="Comic Sans MS" font-size="14.00">2</text>
</g>
<!-- _0c1_0b1_2c0_2e&#45;&#45;_0c1_0b1_2c0_2e0_1c -->
<g id="edge53" class="edge">
<title>_0c1_0b1_2c0_2e--_0c1_0b1_2c0_2e0_1c</title>
<path fill="none" stroke="black" d="M324.4,-104C335.74,-104 348.95,-104 360.22,-104"/>
</g>
<!-- _0c1_0b1_2c0_2e1_3c -->
<g id="node55" class="node">
<title>_0c1_0b1_2c0_2e1_3c</title>
<path fill="Khaki" stroke="black" stroke-width="0" d="M402,-79C402,-79 372,-79 372,-79 366,-79 360,-73 360,-67 360,-67 360,-55 360,-55 360,-49 366,-43 372,-43 372,-43 402,-43 402,-43 408,-43 414,-49 414,-55 414,-55 414,-67 414,-67 414,-73 408,-79 402,-79"/>
<text text-anchor="middle" x="387" y="-56.8" font-family="Comic Sans MS" font-size="14.00">1</text>
</g>
<!-- _0c1_0b1_2c0_2e&#45;&#45;_0c1_0b1_2c0_2e1_3c -->
<g id="edge54" class="edge">
<title>_0c1_0b1_2c0_2e--_0c1_0b1_2c0_2e1_3c</title>
<path fill="none" stroke="black" d="M324.4,-91.1C335.74,-85.56 348.95,-79.1 360.22,-73.6"/>
</g>
<!-- _0c1_0b1_2c0_2e0_1c0_1d -->
<g id="node56" class="node">
<title>_0c1_0b1_2c0_2e0_1c0_1d</title>
<path fill="none" stroke="black" d="M496,-126C496,-126 466,-126 466,-126 460,-126 454,-120 454,-114 454,-114 454,-102 454,-102 454,-96 460,-90 466,-90 466,-90 496,-90 496,-90 502,-90 508,-96 508,-102 508,-102 508,-114 508,-114 508,-120 502,-126 496,-126"/>
<path fill="none" stroke="black" d="M500,-130C500,-130 462,-130 462,-130 456,-130 450,-124 450,-118 450,-118 450,-98 450,-98 450,-92 456,-86 462,-86 462,-86 500,-86 500,-86 506,-86 512,-92 512,-98 512,-98 512,-118 512,-118 512,-124 506,-130 500,-130"/>
<text text-anchor="middle" x="481" y="-103.8" font-family="Comic Sans MS" font-size="14.00">2</text>
</g>
<!-- _0c1_0b1_2c0_2e0_1c&#45;&#45;_0c1_0b1_2c0_2e0_1c0_1d -->
<g id="edge55" class="edge">
<title>_0c1_0b1_2c0_2e0_1c--_0c1_0b1_2c0_2e0_1c0_1d</title>
<path fill="none" stroke="black" d="M413.63,-105.11C424.79,-105.6 437.96,-106.17 449.62,-106.68"/>
</g>
<!-- _0c1_0b1_2c0_2e1_3c0_3g -->
<g id="node59" class="node">
<title>_0c1_0b1_2c0_2e1_3c0_3g</title>
<path fill="none" stroke="black" d="M496,-79C496,-79 466,-79 466,-79 460,-79 454,-73 454,-67 454,-67 454,-55 454,-55 454,-49 460,-43 466,-43 466,-43 496,-43 496,-43 502,-43 508,-49 508,-55 508,-55 508,-67 508,-67 508,-73 502,-79 496,-79"/>
<text text-anchor="middle" x="481" y="-56.8" font-family="Comic Sans MS" font-size="14.00">1</text>
</g>
<!-- _0c1_0b1_2c0_2e1_3c&#45;&#45;_0c1_0b1_2c0_2e1_3c0_3g -->
<g id="edge58" class="edge">
<title>_0c1_0b1_2c0_2e1_3c--_0c1_0b1_2c0_2e1_3c0_3g</title>
<path fill="none" stroke="black" d="M413.63,-61C426.07,-61 441,-61 453.55,-61"/>
</g>
<!-- _0c1_0b1_2c0_2e0_1c0_1d0_3c -->
<g id="node57" class="node">
<title>_0c1_0b1_2c0_2e0_1c0_1d0_3c</title>
<path fill="Khaki" stroke="black" stroke-width="0" d="M590,-126C590,-126 560,-126 560,-126 554,-126 548,-120 548,-114 548,-114 548,-102 548,-102 548,-96 554,-90 560,-90 560,-90 590,-90 590,-90 596,-90 602,-96 602,-102 602,-102 602,-114 602,-114 602,-120 596,-126 590,-126"/>
<text text-anchor="middle" x="575" y="-103.8" font-family="Comic Sans MS" font-size="14.00">1</text>
</g>
<!-- _0c1_0b1_2c0_2e0_1c0_1d&#45;&#45;_0c1_0b1_2c0_2e0_1c0_1d0_3c -->
<g id="edge56" class="edge">
<title>_0c1_0b1_2c0_2e0_1c0_1d--_0c1_0b1_2c0_2e0_1c0_1d0_3c</title>
<path fill="none" stroke="black" d="M512.38,-108C524,-108 537.13,-108 548.27,-108"/>
</g>
<!-- _0c1_0b1_2c0_2e0_1c0_1d0_3c0_3h -->
<g id="node58" class="node">
<title>_0c1_0b1_2c0_2e0_1c0_1d0_3c0_3h</title>
<path fill="none" stroke="black" d="M680,-126C680,-126 650,-126 650,-126 644,-126 638,-120 638,-114 638,-114 638,-102 638,-102 638,-96 644,-90 650,-90 650,-90 680,-90 680,-90 686,-90 692,-96 692,-102 692,-102 692,-114 692,-114 692,-120 686,-126 680,-126"/>
<text text-anchor="middle" x="665" y="-103.8" font-family="Comic Sans MS" font-size="14.00">1</text>
</g>
<!-- _0c1_0b1_2c0_2e0_1c0_1d0_3c&#45;&#45;_0c1_0b1_2c0_2e0_1c0_1d0_3c0_3h -->
<g id="edge57" class="edge">
<title>_0c1_0b1_2c0_2e0_1c0_1d0_3c--_0c1_0b1_2c0_2e0_1c0_1d0_3c0_3h</title>
<path fill="none" stroke="black" d="M601.93,-108C613.18,-108 626.35,-108 637.65,-108"/>
</g>
<!-- _0c1_0b2_3c0_3g0_2c0_2e0_1c -->
<g id="node61" class="node">
<title>_0c1_0b2_3c0_3g0_2c0_2e0_1c</title>
<path fill="PaleGreen" stroke="black" stroke-width="0" d="M402,-36C402,-36 372,-36 372,-36 366,-36 360,-30 360,-24 360,-24 360,-12 360,-12 360,-6 366,0 372,0 372,0 402,0 402,0 408,0 414,-6 414,-12 414,-12 414,-24 414,-24 414,-30 408,-36 402,-36"/>
<text text-anchor="middle" x="387" y="-13.8" font-family="Comic Sans MS" font-size="14.00">1</text>
</g>
<!-- _0c1_0b2_3c0_3g0_2c&#45;&#45;_0c1_0b2_3c0_3g0_2c0_2e0_1c -->
<g id="edge60" class="edge">
<title>_0c1_0b2_3c0_3g0_2c--_0c1_0b2_3c0_3g0_2c0_2e0_1c</title>
<path fill="none" stroke="black" d="M323.93,-25.76C335.38,-24.33 348.82,-22.65 360.26,-21.22"/>
</g>
<!-- _0c1_0b2_3c0_3g0_2c0_2e0_1c0_1d -->
<g id="node62" class="node">
<title>_0c1_0b2_3c0_3g0_2c0_2e0_1c0_1d</title>
<path fill="none" stroke="black" d="M496,-36C496,-36 466,-36 466,-36 460,-36 454,-30 454,-24 454,-24 454,-12 454,-12 454,-6 460,0 466,0 466,0 496,0 496,0 502,0 508,-6 508,-12 508,-12 508,-24 508,-24 508,-30 502,-36 496,-36"/>
<text text-anchor="middle" x="481" y="-13.8" font-family="Comic Sans MS" font-size="14.00">1</text>
</g>
<!-- _0c1_0b2_3c0_3g0_2c0_2e0_1c&#45;&#45;_0c1_0b2_3c0_3g0_2c0_2e0_1c0_1d -->
<g id="edge61" class="edge">
<title>_0c1_0b2_3c0_3g0_2c0_2e0_1c--_0c1_0b2_3c0_3g0_2c0_2e0_1c0_1d</title>
<path fill="none" stroke="black" d="M413.63,-18C426.07,-18 441,-18 453.55,-18"/>
</g>
</g>
</svg>