<svg xmlns="http://www.w3.org/2000/svg" xmlns:xlink="http://www.w3.org/1999/xlink" width="610pt" height="514pt" viewBox="0.00 0.00 610.00 514.00">
<g id="graph0" class="graph" transform="scale(1 1) rotate(0) translate(4 510)">
<polygon fill="white" stroke="none" points="-4,4 -4,-510 606,-510 606,4 -4,4"/>
<!-- _1c -->
<g id="node1" class="node">
<title>_1c</title>
<path fill="PaleGreen" stroke="black" stroke-width="0" d="M42,-280C42,-280 12,-280 12,-280 6,-280 0,-274 0,-268 0,-268 0,-256 0,-256 0,-250 6,-244 12,-244 12,-244 42,-244 42,-244 48,-244 54,-250 54,-256 54,-256 54,-268 54,-268 54,-274 48,-280 42,-280"/>
<text text-anchor="middle" x="27" y="-257.8" font-family="Comic Sans MS" font-size="14.00">9</text>
</g>
<!-- _1c0_0c -->
<g id="node2" class="node">
<title>_1c0_0c</title>
<path fill="LightSkyBlue" stroke="black" stroke-width="0" d="M132,-326C132,-326 102,-326 102,-326 96,-326 90,-320 90,-314 90,-314 90,-302 90,-302 90,-296 96,-290 102,-290 102,-290 132,-290 132,-290 138,-290 144,-296 144,-302 144,-302 144,-314 144,-314 144,-320 138,-326 132,-326"/>
<text text-anchor="middle" x="117" y="-303.8" font-family="Comic Sans MS" font-size="14.00">5</text>
</g>
<!-- _1c&#45;&#45;_1c0_0c -->
<g id="edge1" class="edge">
<title>_1c--_1c0_0c</title>
<path fill="none" stroke="black" d="M53.93,-275.55C65.38,-281.54 78.82,-288.57 90.26,-294.54"/>
</g>
<!-- _1c1_0c -->
<g id="node3" class="node">
<title>_1c1_0c</title>
<path fill="LightSkyBlue" stroke="black" stroke-width="0" d="M132,-210C132,-210 102,-210 102,-210 96,-210 90,-204 90,-198 90,-198 90,-186 90,-186 90,-180 96,-174 102,-174 102,-174 132,-174 132,-174 138,-174 144,-180 144,-186 144,-186 144,-198 144,-198 144,-204 138,-210 132,-210"/>
<text text-anchor="middle" x="117" y="-187.8" font-family="Comic Sans MS" font-size="14.00">9</text>
</g>
<!-- _1c&#45;&#45;_1c1_0c -->
<g id="edge2" class="edge">
<title>_1c--_1c1_0c</title>
<path fill="none" stroke="black" d="M50.21,-244.34C63.44,-233.81 80.2,-220.47 93.49,-209.9"/>
</g>
<!-- _1c0_0c0_0a -->
<g id="node4" class="node">
<title>_1c0_0c0_0a</title>
<path fill="none" stroke="black" d="M222,-391C222,-391 192,-391 192,-391 186,-391 180,-385 180,-379 180,-379 180,-367 180,-367 180,-361 186,-355 192,-355 192,-355 222,-355 222,-355 228,-355 234,-361 234,-367 234,-367 234,-379 234,-379 234,-385 228,-391 222,-391"/>
<text text-anchor="middle" x="207" y="-368.8" font-family="Comic Sans MS" font-size="14.00">5</text>
</g>
<!-- _1c0_0c&#45;&#45;_1c0_0c0_0a -->
<g id="edge3" class="edge">
<title>_1c0_0c--_1c0_0c0_0a</title>
<path fill="none" stroke="black" d="M142.05,-325.76C154.16,-334.71 168.83,-345.54 181.06,-354.58"/>
</g>
<!-- _1c0_0c1_0b0_2c -->
<g id="node5" class="node">
<title>_1c0_0c1_0b0_2c</title>
<path fill="LightSalmon" stroke="black" stroke-width="0" d="M222,-326C222,-326 192,-326 192,-326 186,-326 180,-320 180,-314 180,-314 180,-302 180,-302 180,-296 186,-290 192,-290 192,-290 222,-290 222,-290 228,-290 234,-296 234,-302 234,-302 234,-314 234,-314 234,-320 228,-326 222,-326"/>
<text text-anchor="middle" x="207" y="-303.8" font-family="Comic Sans MS" font-size="14.00">1</text>
</g>
<!-- _1c0_0c&#45;&#45;_1c0_0c1_0b0_2c -->
<g id="edge4" class="edge">
<title>_1c0_0c--_1c0_0c1_0b0_2c</title>
<path fill="none" stroke="black" d="M143.93,-308C155.38,-308 168.82,-308 180.26,-308"/>
</g>
<!-- _1c1_0c0_0a -->
<g id="node19" class="node">
<title>_1c1_0c0_0a</title>
<path fill="none" stroke="black" d="M222,-210C222,-210 192,-210 192,-210 186,-210 180,-204 180,-198 180,-198 180,-186 180,-186 180,-180 186,-174 192,-174 192,-174 222,-174 222,-174 228,-174 234,-180 234,-186 234,-186 234,-198 234,-198 234,-204 228,-210 222,-210"/>
<text text-anchor="middle" x="207" y="-187.8" font-family="Comic Sans MS" font-size="14.00">9</text>
</g>
<!-- _1c1_0c&#45;&#45;_1c1_0c0_0a -->
<g id="edge18" class="edge">
<title>_1c1_0c--_1c1_0c0_0a</title>
<path fill="none" stroke="black" d="M143.93,-192C155.18,-192 168.35,-192 179.65,-192"/>
</g>
<!-- _1c1_0c1_0b -->
<g id="node20" class="node">
<title>_1c1_0c1_0b</title>
<path fill="none" stroke="black" d="M222,-83C222,-83 192,-83 192,-83 186,-83 180,-77 180,-71 180,-71 180,-59 180,-59 180,-53 186,-47 192,-47 192,-47 222,-47 222,-47 228,-47 234,-53 234,-59 234,-59 234,-71 234,-71 234,-77 228,-83 222,-83"/>
<text text-anchor="middle" x="207" y="-60.8" font-family="Comic Sans MS" font-size="14.00">4</text>
</g>
<!-- _1c1_0c&#45;&#45;_1c1_0c1_0b -->
<g id="edge19" class="edge">
<title>_1c1_0c--_1c1_0c1_0b</title>
<path fill="none" stroke="black" d="M130.42,-174.07C147.1,-150.01 176.57,-107.48 193.36,-83.25"/>
</g>
<!-- _1c0_0c0_0a0_2c -->
<g id="node6" class="node">
<title>_1c0_0c0_0a0_2c</title>
<path fill="LightSalmon" stroke="black" stroke-width="0" d="M312,-455C312,-455 282,-455 282,-455 276,-455 270,-449 270,-443 270,-443 270,-431 270,-431 270,-425 276,-419 282,-419 282,-419 312,-419 312,-419 318,-419 324,-425 324,-431 324,-431 324,-443 324,-443 324,-449 318,-455 312,-455"/>
<text text-anchor="middle" x="297" y="-432.8" font-family="Comic Sans MS" font-size="14.00">2</text>
</g>
<!-- _1c0_0c0_0a&#45;&#45;_1c0_0c0_0a0_2c -->
<g id="edge5" class="edge">
<title>_1c0_0c0_0a--_1c0_0c0_0a0_2c</title>
<path fill="none" stroke="black" d="M232.98,-391.17C244.97,-399.89 259.3,-410.31 271.26,-419.01"/>
</g>
<!-- _1c0_0c0_0a1_3c -->
<g id="node7" class="node">
<title>_1c0_0c0_0a1_3c</title>
<path fill="Khaki" stroke="black" stroke-width="0" d="M312,-391C312,-391 282,-391 282,-391 276,-391 270,-385 270,-379 270,-379 270,-367 270,-367 270,-361 276,-355 282,-355 282,-355 312,-355 312,-355 318,-355 324,-361 324,-367 324,-367 324,-379 324,-379 324,-385 318,-391 312,-391"/>
<text text-anchor="middle" x="297" y="-368.8" font-family="Comic Sans MS" font-size="14.00">3</text>
</g>
<!-- _1c0_0c0_0a&#45;&#45;_1c0_0c0_0a1_3c -->
<g id="edge6" class="edge">
<title>_1c0_0c0_0a--_1c0_0c0_0a1_3c</title>
<path fill="none" stroke="black" d="M234.4,-373C245.74,-373 258.95,-373 270.22,-373"/>
</g>
<!-- _1c0_0c1_0b0_2c0_2e0_3c -->
<g id="node17" class="node">
<title>_1c0_0c1_0b0_2c0_2e0_3c</title>
<path fill="Khaki" stroke="black" stroke-width="0" d="M312,-326C312,-326 282,-326 282,-326 276,-326 270,-320 270,-314 270,-314 270,-302 270,-302 270,-296 276,-290 282,-290 282,-290 312,-290 312,-290 318,-290 324,-296 324,-302 324,-302 324,-314 324,-314 324,-320 318,-326 312,-326"/>
<text text-anchor="middle" x="297" y="-303.8" font-family="Comic Sans MS" font-size="14.00">1</text>
</g>
<!-- _1c0_0c1_0b0_2c&#45;&#45;_1c0_0c1_0b0_2c0_2e0_3c -->
<g id="edge16" class="edge">
<title>_1c0_0c1_0b0_2c--_1c0_0c1_0b0_2c0_2e0_3c</title>
<path fill="none" stroke="black" d="M233.93,-308C245.38,-308 258.82,-308 270.26,-308"/>
</g>
<!-- _1c0_0c0_0a0_2c0_2e -->
<g id="node8" class="node">
<title>_1c0_0c0_0a0_2c0_2e</title>
<path fill="none" stroke="black" d="M406,-502C406,-502 376,-502 376,-502 370,-502 364,-496 364,-490 364,-490 364,-478 364,-478 364,-472 370,-466 376,-466 376,-466 406,-466 406,-466 412,-466 418,-472 418,-478 418,-478 418,-490 418,-490 418,-496 412,-502 406,-502"/>
<path fill="none" stroke="black" d="M410,-506C410,-506 372,-506 372,-506 366,-506 360,-500 360,-494 360,-494 360,-474 360,-474 360,-468 366,-462 372,-462 372,-462 410,-462 410,-462 416,-462 422,-468 422,-474 422,-474 422,-494 422,-494 422,-500 416,-506 410,-506"/>
<text text-anchor="middle" x="391" y="-479.8" font-family="Comic Sans MS" font-size="14.00">2</text>
</g>
<!-- _1c0_0c0_0a0_2c&#45;&#45;_1c0_0c0_0a0_2c0_2e -->
<g id="edge7" class="edge">
<title>_1c0_0c0_0a0_2c--_1c0_0c0_0a0_2c0_2e</title>
<path fill="none" stroke="black" d="M323.63,-450.09C334.79,-455.8 347.96,-462.53 359.62,-468.48"/>
</g>
<!-- _1c0_0c0_0a0_2c1_2f0_3c -->
<g id="node9" class="node">
<title>_1c0_0c0_0a0_2c1_2f0_3c</title>
<path fill="Khaki" stroke="black" stroke-width="0" d="M406,-455C406,-455 376,-455 376,-455 370,-455 364,-449 364,-443 364,-443 364,-431 364,-431 364,-425 370,-419 376,-419 376,-419 406,-419 406,-419 412,-419 418,-425 418,-431 418,-431 418,-443 418,-443 418,-449 412,-455 406,-455"/>
<text text-anchor="middle" x="391" y="-432.8" font-family="Comic Sans MS" font-size="14.00">1</text>
</g>
<!-- _1c0_0c0_0a0_2c&#45;&#45;_1c0_0c0_0a0_2c1_2f0_3c -->
<g id="edge8" class="edge">
<title>_1c0_0c0_0a0_2c--_1c0_0c0_0a0_2c1_2f0_3c</title>
<path fill="none" stroke="black" d="M323.63,-437C336.28,-437 351.51,-437 364.19,-437"/>
</g>
<!-- _1c0_0c0_0a1_3c0_3g0_2c -->
<g id="node13" class="node">
<title>_1c0_0c0_0a1_3c0_3g0_2c</title>
<path fill="LightSalmon" stroke="black" stroke-width="0" d="M406,-412C406,-412 376,-412 376,-412 370,-412 364,-406 364,-400 364,-400 364,-388 364,-388 364,-382 370,-376 376,-376 376,-376 406,-376 406,-376 412,-376 418,-382 418,-388 418,-388 418,-400 418,-400 418,-406 412,-412 406,-412"/>
<text text-anchor="middle" x="391" y="-389.8" font-family="Comic Sans MS" font-size="14.00">3</text>
</g>
<!-- _1c0_0c0_0a1_3c&#45;&#45;_1c0_0c0_0a1_3c0_3g0_2c -->
<g id="edge12" class="edge">
<title>_1c0_0c0_0a1_3c--_1c0_0c0_0a1_3c0_3g0_2c</title>
<path fill="none" stroke="black" d="M323.63,-378.85C336.28,-381.74 351.51,-385.21 364.19,-388.11"/>
</g>
<!-- _1c0_0c0_0a1_3c1_3h0_2c -->
<g id="node14" class="node">
<title>_1c0_0c0_0a1_3c1_3h0_2c</title>
<path fill="LightSalmon" stroke="black" stroke-width="0" d="M406,-369C406,-369 376,-369 376,-369 370,-369 364,-363 364,-357 364,-357 364,-345 364,-345 364,-339 370,-333 376,-333 376,-333 406,-333 406,-333 412,-333 418,-339 418,-345 418,-345 418,-357 418,-357 418,-363 412,-369 406,-369"/>
<text text-anchor="middle" x="391" y="-346.8" font-family="Comic Sans MS" font-size="14.00">2</text>
</g>
<!-- _1c0_0c0_0a1_3c&#45;&#45;_1c0_0c0_0a1_3c1_3h0_2c -->
<g id="edge13" class="edge">
<title>_1c0_0c0_0a1_3c--_1c0_0c0_0a1_3c1_3h0_2c</title>
<path fill="none" stroke="black" d="M323.63,-366.87C336.28,-363.85 351.51,-360.2 364.19,-357.17"/>
</g>
<!-- _1c0_0c0_0a0_2c0_2e0_3c -->
<g id="node10" class="node">
<title>_1c0_0c0_0a0_2c0_2e0_3c</title>
<path fill="Khaki" stroke="black" stroke-width="0" d="M500,-502C500,-502 470,-502 470,-502 464,-502 458,-496 458,-490 458,-490 458,-478 458,-478 458,-472 464,-466 470,-466 470,-466 500,-466 500,-466 506,-466 512,-472 512,-478 512,-478 512,-490 512,-490 512,-496 506,-502 500,-502"/>
<text text-anchor="middle" x="485" y="-479.8" font-family="Comic Sans MS" font-size="14.00">1</text>
</g>
<!-- _1c0_0c0_0a0_2c0_2e&#45;&#45;_1c0_0c0_0a0_2c0_2e0_3c -->
<g id="edge9" class="edge">
<title>_1c0_0c0_0a0_2c0_2e--_1c0_0c0_0a0_2c0_2e0_3c</title>
<path fill="none" stroke="black" d="M422.38,-484C434,-484 447.13,-484 458.27,-484"/>
</g>
<!-- _1c0_0c0_0a0_2c1_2f0_3c0_3g -->
<g id="node12" class="node">
<title>_1c0_0c0_0a0_2c1_2f0_3c0_3g</title>
<path fill="none" stroke="black" d="M500,-455C500,-455 470,-455 470,-455 464,-455 458,-449 458,-443 458,-443 458,-431 458,-431 458,-425 464,-419 470,-419 470,-419 500,-419 500,-419 506,-419 512,-425 512,-431 512,-431 512,-443 512,-443 512,-449 506,-455 500,-455"/>
<text text-anchor="middle" x="485" y="-432.8" font-family="Comic Sans MS" font-size="14.00">1</text>
</g>
<!-- _1c0_0c0_0a0_2c1_2f0_3c&#45;&#45;_1c0_0c0_0a0_2c1_2f0_3c0_3g -->
<g id="edge11" class="edge">
<title>_1c0_0c0_0a0_2c1_2f0_3c--_1c0_0c0_0a0_2c1_2f0_3c0_3g</title>
<path fill="none" stroke="black" d="M417.63,-437C430.07,-437 445,-437 457.55,-437"/>
</g>
<!-- _1c0_0c0_0a0_2c0_2e0_3c0_3h -->
<g id="node11" class="node">
<title>_1c0_0c0_0a0_2c0_2e0_3c0_3h</title>
<path fill="none" stroke="black" d="M590,-502C590,-502 560,-502 560,-502 554,-502 548,-496 548,-490 548,-490 548,-478 548,-478 548,-472 554,-466 560,-466 560,-466 590,-466 590,-466 596,-466 602,-472 602,-478 602,-478 602,-490 602,-490 602,-496 596,-502 590,-502"/>
<text text-anchor="middle" x="575" y="-479.8" font-family="Comic Sans MS" font-size="14.00">1</text>
</g>
<!-- _1c0_0c0_0a0_2c0_2e0_3c&#45;&#45;_1c0_0c0_0a0_2c0_2e0_3c0_3h -->
<g id="edge10" class="edge">
<title>_1c0_0c0_0a0_2c0_2e0_3c--_1c0_0c0_0a0_2c0_2e0_3c0_3h</title>
<path fill="none" stroke="black" d="M511.93,-484C523.18,-484 536.35,-484 547.65,-484"/>
</g>
<!-- _1c0_0c0_0a1_3c0_3g0_2c0_2e -->
<g id="node15" class="node">
<title>_1c0_0c0_0a1_3c0_3g0_2c0_2e</title>
<path fill="none" stroke="black" d="M500,-412C500,-412 470,-412 470,-412 464,-412 458,-406 458,-400 458,-400 458,-388 458,-388 458,-382 464,-376 470,-376 470,-376 500,-376 500,-376 506,-376 512,-382 512,-388 512,-388 512,-400 512,-400 512,-406 506,-412 500,-412"/>
<text text-anchor="middle" x="485" y="-389.8" font-family="Comic Sans MS" font-size="14.00">3</text>
</g>
<!-- _1c0_0c0_0a1_3c0_3g0_2c&#45;&#45;_1c0_0c0_0a1_3c0_3g0_2c0_2e -->
<g id="edge14" class="edge">
<title>_1c0_0c0_0a1_3c0_3g0_2c--_1c0_0c0_0a1_3c0_3g0_2c0_2e</title>
<path fill="none" stroke="black" d="M417.63,-394C430.07,-394 445,-394 457.55,-394"/>
</g>
<!-- _1c0_0c0_0a1_3c1_3h0_2c0_2e -->
<g id="node16" class="node">
<title>_1c0_0c0_0a1_3c1_3h0_2c0_2e</title>
<path fill="none" stroke="black" d="M500,-369C500,-369 470,-369 470,-369 464,-369 458,-363 458,-357 458,-357 458,-345 458,-345 458,-339 464,-333 470,-333 470,-333 500,-333 500,-333 506,-333 512,-339 512,-345 512,-345 512,-357 512,-357 512,-363 506,-369 500,-369"/>
<text text-anchor="middle" x="485" y="-346.8" font-family="Comic Sans MS" font-size="14.00">2</text>
</g>
<!-- _1c0_0c0_0a1_3c1_3h0_2c&#45;&#45;_1c0_0c0_0a1_3c1_3h0_2c0_2e -->
<g id="edge15" class="edge">
<title>_1c0_0c0_0a1_3c1_3h0_2c--_1c0_0c0_0a1_3c1_3h0_2c0_2e</title>
<path fill="none" stroke="black" d="M417.63,-351C430.07,-351 445,-351 457.55,-351"/>
</g>
<!-- _1c0_0c1_0b0_2c0_2e0_3c0_3g -->
<g id="node18" class="node">
<title>_1c0_0c1_0b0_2c0_2e0_3c0_3g</title>
<path fill="none" stroke="black" d="M406,-326C406,-326 376,-326 376,-326 370,-326 364,-320 364,-314 364,-314 364,-302 364,-302 364,-296 370,-290 376,-290 376,-290 406,-290 406,-290 412,-290 418,-296 418,-302 418,-302 418,-314 418,-314 418,-320 412,-326 406,-326"/>
<text text-anchor="middle" x="391" y="-303.8" font-family="Comic Sans MS" font-size="14.00">1</text>
</g>
<!-- _1c0_0c1_0b0_2c0_2e0_3c&#45;&#45;_1c0_0c1_0b0_2c0_2e0_3c0_3g -->
<g id="edge17" class="edge">
<title>_1c0_0c1_0b0_2c0_2e0_3c--_1c0_0c1_0b0_2c0_2e0_3c0_3g</title>
<path fill="none" stroke="black" d="M323.63,-308C336.07,-308 351,-308 363.55,-308"/>
</g>
<!-- _1c1_0c0_0a0_2c -->
<g id="node21" class="node">
<title>_1c1_0c0_0a0_2c</title>
<path fill="LightSalmon" stroke="black" stroke-width="0" d="M312,-236C312,-236 282,-236 282,-236 276,-236 270,-230 270,-224 270,-224 270,-212 270,-212 270,-206 276,-200 282,-200 282,-200 312,-200 312,-200 318,-200 324,-206 324,-212 324,-212 324,-224 324,-224 324,-230 318,-236 312,-236"/>
<text text-anchor="middle" x="297" y="-213.8" font-family="Comic Sans MS" font-size="14.00">2</text>
</g>
<!-- _1c1_0c0_0a&#45;&#45;_1c1_0c0_0a0_2c -->
<g id="edge20" class="edge">
<title>_1c1_0c0_0a--_1c1_0c0_0a0_2c</title>
<path fill="none" stroke="black" d="M234.4,-199.8C245.74,-203.15 258.95,-207.05 270.22,-210.38"/>
</g>
<!-- _1c1_0c0_0a1_3c -->
<g id="node22" class="node">
<title>_1c1_0c0_0a1_3c</title>
<path fill="Khaki" stroke="black" stroke-width="0" d="M312,-185C312,-185 282,-185 282,-185 276,-185 270,-179 270,-173 270,-173 270,-161 270,-161 270,-155 276,-149 282,-149 282,-149 312,-149 312,-149 318,-149 324,-155 324,-161 324,-161 324,-173 324,-173 324,-179 318,-185 312,-185"/>
<text text-anchor="middle" x="297" y="-162.8" font-family="Comic Sans MS" font-size="14.00">7</text>
</g>
<!-- _1c1_0c0_0a&#45;&#45;_1c1_0c0_0a1_3c -->
<g id="edge21" class="edge">
<title>_1c1_0c0_0a--_1c1_0c0_0a1_3c</title>
<path fill="none" stroke="black" d="M234.4,-184.5C245.74,-181.28 258.95,-177.53 270.22,-174.32"/>
</g>
<!-- _1c1_0c1_0b0_2c -->
<g id="node35" class="node">
<title>_1c1_0c1_0b0_2c</title>
<path fill="LightSalmon" stroke="black" stroke-width="0" d="M312,-83C312,-83 282,-83 282,-83 276,-83 270,-77 270,-71 270,-71 270,-59 270,-59 270,-53 276,-47 282,-47 282,-47 312,-47 312,-47 318,-47 324,-53 324,-59 324,-59 324,-71 324,-71 324,-77 318,-83 312,-83"/>
<text text-anchor="middle" x="297" y="-60.8" font-family="Comic Sans MS" font-size="14.00">3</text>
</g>
<!-- _1c1_0c1_0b&#45;&#45;_1c1_0c1_0b0_2c -->
<g id="edge34" class="edge">
<title>_1c1_0c1_0b--_1c1_0c1_0b0_2c</title>
<path fill="none" stroke="black" d="M234.4,-65C245.74,-65 258.95,-65 270.22,-65"/>
</g>
<!-- _1c1_0c1_0b1_3c -->
<g id="node36" class="node">
<title>_1c1_0c1_0b1_3c</title>
<path fill="Khaki" stroke="black" stroke-width="0" d="M312,-38C312,-38 282,-38 282,-38 276,-38 270,-32 270,-26 270,-26 270,-14 270,-14 270,-8 276,-2 282,-2 282,-2 312,-2 312,-2 318,-2 324,-8 324,-14 324,-14 324,-26 324,-26 324,-32 318,-38 312,-38"/>
<text text-anchor="middle" x="297" y="-15.8" font-family="Comic Sans MS" font-size="14.00">1</text>
</g>
<!-- _1c1_0c1_0b&#45;&#45;_1c1_0c1_0b1_3c -->
<g id="edge35" class="edge">
<title>_1c1_0c1_0b--_1c1_0c1_0b1_3c</title>
<path fill="none" stroke="black" d="M234.4,-51.5C245.74,-45.7 258.95,-38.95 270.22,-33.18"/>
</g>
<!-- _1c1_0c0_0a0_2c0_2e0_3c -->
<g id="node23" class="node">
<title>_1c1_0c0_0a0_2c0_2e0_3c</title>
<path fill="Khaki" stroke="black" stroke-width="0" d="M406,-283C406,-283 376,-283 376,-283 370,-283 364,-277 364,-271 364,-271 364,-259 364,-259 364,-253 370,-247 376,-247 376,-247 406,-247 406,-247 412,-247 418,-253 418,-259 418,-259 418,-271 418,-271 418,-277 412,-283 406,-283"/>
<text text-anchor="middle" x="391" y="-260.8" font-family="Comic Sans MS" font-size="14.00">1</text>
</g>
<!-- _1c1_0c0_0a0_2c&#45;&#45;_1c1_0c0_0a0_2c0_2e0_3c -->
<g id="edge22" class="edge">
<title>_1c1_0c0_0a0_2c--_1c1_0c0_0a0_2c0_2e0_3c</title>
<path fill="none" stroke="black" d="M323.63,-231.09C336.28,-237.56 351.51,-245.34 364.19,-251.82"/>
</g>
<!-- _1c1_0c0_0a0_2c1_2f -->
<g id="node24" class="node">
<title>_1c1_0c0_0a0_2c1_2f</title>
<path fill="none" stroke="black" d="M406,-236C406,-236 376,-236 376,-236 370,-236 364,-230 364,-224 364,-224 364,-212 364,-212 364,-206 370,-200 376,-200 376,-200 406,-200 406,-200 412,-200 418,-206 418,-212 418,-212 418,-224 418,-224 418,-230 412,-236 406,-236"/>
<path fill="none" stroke="black" d="M410,-240C410,-240 372,-240 372,-240 366,-240 360,-234 360,-228 360,-228 360,-208 360,-208 360,-202 366,-196 372,-196 372,-196 410,-196 410,-196 416,-196 422,-202 422,-208 422,-208 422,-228 422,-228 422,-234 416,-240 410,-240"/>
<text text-anchor="middle" x="391" y="-213.8" font-family="Comic Sans MS" font-size="14.00">2</text>
</g>
<!-- _1c1_0c0_0a0_2c&#45;&#45;_1c1_0c0_0a0_2c1_2f -->
<g id="edge23" class="edge">
<title>_1c1_0c0_0a0_2c--_1c1_0c0_0a0_2c1_2f</title>
<path fill="none" stroke="black" d="M323.63,-218C334.79,-218 347.96,-218 359.62,-218"/>
</g>
<!-- _1c1_0c0_0a1_3c0_3g -->
<g id="node29" class="node">
<title>_1c1_0c0_0a1_3c0_3g</title>
<path fill="none" stroke="black" d="M406,-185C406,-185 376,-185 376,-185 370,-185 364,-179 364,-173 364,-173 364,-161 364,-161 364,-155 370,-149 376,-149 376,-149 406,-149 406,-149 412,-149 418,-155 418,-161 418,-161 418,-173 418,-173 418,-179 412,-185 406,-185"/>
<path fill="none" stroke="black" d="M410,-189C410,-189 372,-189 372,-189 366,-189 360,-183 360,-177 360,-177 360,-157 360,-157 360,-151 366,-145 372,-145 372,-145 410,-145 410,-145 416,-145 422,-151 422,-157 422,-157 422,-177 422,-177 422,-183 416,-189 410,-189"/>
<text text-anchor="middle" x="391" y="-162.8" font-family="Comic Sans MS" font-size="14.00">7</text>
</g>
<!-- _1c1_0c0_0a1_3c&#45;&#45;_1c1_0c0_0a1_3c0_3g -->
<g id="edge28" class="edge">
<title>_1c1_0c0_0a1_3c--_1c1_0c0_0a1_3c0_3g</title>
<path fill="none" stroke="black" d="M323.63,-167C334.79,-167 347.96,-167 359.62,-167"/>
</g>
<!-- _1c1_0c0_0a1_3c1_3h -->
<g id="node30" class="node">
<title>_1c1_0c0_0a1_3c1_3h</title>
<path fill="none" stroke="black" d="M406,-134C406,-134 376,-134 376,-134 370,-134 364,-128 364,-122 364,-122 364,-110 364,-110 364,-104 370,-98 376,-98 376,-98 406,-98 406,-98 412,-98 418,-104 418,-110 418,-110 418,-122 418,-122 418,-128 412,-134 406,-134"/>
<path fill="none" stroke="black" d="M410,-138C410,-138 372,-138 372,-138 366,-138 360,-132 360,-126 360,-126 360,-106 360,-106 360,-100 366,-94 372,-94 372,-94 410,-94 410,-94 416,-94 422,-100 422,-106 422,-106 422,-126 422,-126 422,-132 416,-138 410,-138"/>
<text text-anchor="middle" x="391" y="-111.8" font-family="Comic Sans MS" font-size="14.00">6</text>
</g>
<!-- _1c1_0c0_0a1_3c&#45;&#45;_1c1_0c0_0a1_3c1_3h -->
<g id="edge29" class="edge">
<title>_1c1_0c0_0a1_3c--_1c1_0c0_0a1_3c1_3h</title>
<path fill="none" stroke="black" d="M323.63,-152.79C334.79,-146.6 347.96,-139.3 359.62,-132.84"/>
</g>
<!-- _1c1_0c0_0a0_2c0_2e0_3c0_3g -->
<g id="node25" class="node">
<title>_1c1_0c0_0a0_2c0_2e0_3c0_3g</title>
<path fill="none" stroke="black" d="M500,-324C500,-324 470,-324 470,-324 464,-324 458,-318 458,-312 458,-312 458,-300 458,-300 458,-294 464,-288 470,-288 470,-288 500,-288 500,-288 506,-288 512,-294 512,-300 512,-300 512,-312 512,-312 512,-318 506,-324 500,-324"/>
<text text-anchor="middle" x="485" y="-301.8" font-family="Comic Sans MS" font-size="14.00">1</text>
</g>
<!-- _1c1_0c0_0a0_2c0_2e0_3c&#45;&#45;_1c1_0c0_0a0_2c0_2e0_3c0_3g -->
<g id="edge24" class="edge">
<title>_1c1_0c0_0a0_2c0_2e0_3c--_1c1_0c0_0a0_2c0_2e0_3c0_3g</title>
<path fill="none" stroke="black" d="M417.63,-276.42C430.07,-281.97 445,-288.62 457.55,-294.21"/>
</g>
<!-- _1c1_0c0_0a0_2c0_2e0_3c1_3h -->
<g id="node26" class="node">
<title>_1c1_0c0_0a0_2c0_2e0_3c1_3h</title>
<path fill="none" stroke="black" d="M500,-281C500,-281 470,-281 470,-281 464,-281 458,-275 458,-269 458,-269 458,-257 458,-257 458,-251 464,-245 470,-245 470,-245 500,-245 500,-245 506,-245 512,-251 512,-257 512,-257 512,-269 512,-269 512,-275 506,-281 500,-281"/>
<text text-anchor="middle" x="485" y="-258.8" font-family="Comic Sans MS" font-size="14.00">1</text>
</g>
<!-- _1c1_0c0_0a0_2c0_2e0_3c&#45;&#45;_1c1_0c0_0a0_2c0_2e0_3c1_3h -->
<g id="edge25" class="edge">
<title>_1c1_0c0_0a0_2c0_2e0_3c--_1c1_0c0_0a0_2c0_2e0_3c1_3h</title>
<path fill="none" stroke="black" d="M417.63,-264.44C430.07,-264.17 445,-263.85 457.55,-263.58"/>
</g>
<!-- _1c1_0c0_0a0_2c1_2f0_3c -->
<g id="node27" class="node">
<title>_1c1_0c0_0a0_2c1_2f0_3c</title>
<path fill="Khaki" stroke="black" stroke-width="0" d="M500,-236C500,-236 470,-236 470,-236 464,-236 458,-230 458,-224 458,-224 458,-212 458,-212 458,-206 464,-200 470,-200 470,-200 500,-200 500,-200 506,-200 512,-206 512,-212 512,-212 512,-224 512,-224 512,-230 506,-236 500,-236"/>
<text text-anchor="middle" x="485" y="-213.8" font-family="Comic Sans MS" font-size="14.00">1</text>
</g>
<!-- _1c1_0c0_0a0_2c1_2f&#45;&#45;_1c1_0c0_0a0_2c1_2f0_3c -->
<g id="edge26" class="edge">
<title>_1c1_0c0_0a0_2c1_2f--_1c1_0c0_0a0_2c1_2f0_3c</title>
<path fill="none" stroke="black" d="M422.38,-218C434,-218 447.13,-218 458.27,-218"/>
</g>
<!-- _1c1_0c0_0a0_2c1_2f0_3c0_3g -->
<g id="node28" class="node">
<title>_1c1_0c0_0a0_2c1_2f0_3c0_3g</title>
<path fill="none" stroke="black" d="M590,-236C590,-236 560,-236 560,-236 554,-236 548,-230 548,-224 548,-224 548,-212 548,-212 548,-206 554,-200 560,-200 560,-200 590,-200 590,-200 596,-200 602,-206 602,-212 602,-212 602,-224 602,-224 602,-230 596,-236 590,-236"/>
<text text-anchor="middle" x="575" y="-213.8" font-family="Comic Sans MS" font-size="14.00">1</text>
</g>
<!-- _1c1_0c0_0a0_2c1_2f0_3c&#45;&#45;_1c1_0c0_0a0_2c1_2f0_3c0_3g -->
<g id="edge27" class="edge">
<title>_1c1_0c0_0a0_2c1_2f0_3c--_1c1_0c0_0a0_2c1_2f0_3c0_3g</title>
<path fill="none" stroke="black" d="M511.93,-218C523.18,-218 536.35,-218 547.65,-218"/>
</g>
<!-- _1c1_0c0_0a1_3c0_3g0_2c -->
<g id="node31" class="node">
<title>_1c1_0c0_0a1_3c0_3g0_2c</title>
<path fill="LightSalmon" stroke="black" stroke-width="0" d="M500,-185C500,-185 470,-185 470,-185 464,-185 458,-179 458,-173 458,-173 458,-161 458,-161 458,-155 464,-149 470,-149 470,-149 500,-149 500,-149 506,-149 512,-155 512,-161 512,-161 512,-173 512,-173 512,-179 506,-185 500,-185"/>
<text text-anchor="middle" x="485" y="-162.8" font-family="Comic Sans MS" font-size="14.00">5</text>
</g>
<!-- _1c1_0c0_0a1_3c0_3g&#45;&#45;_1c1_0c0_0a1_3c0_3g0_2c -->
<g id="edge30" class="edge">
<title>_1c1_0c0_0a1_3c0_3g--_1c1_0c0_0a1_3c0_3g0_2c</title>
<path fill="none" stroke="black" d="M422.38,-167C434,-167 447.13,-167 458.27,-167"/>
</g>
<!-- _1c1_0c0_0a1_3c1_3h0_2c -->
<g id="node33" class="node">
<title>_1c1_0c0_0a1_3c1_3h0_2c</title>
<path fill="LightSalmon" stroke="black" stroke-width="0" d="M500,-134C500,-134 470,-134 470,-134 464,-134 458,-128 458,-122 458,-122 458,-110 458,-110 458,-104 464,-98 470,-98 470,-98 500,-98 500,-98 506,-98 512,-104 512,-110 512,-110 512,-122 512,-122 512,-128 506,-134 500,-134"/>
<text text-anchor="middle" x="485" y="-111.8" font-family="Comic Sans MS" font-size="14.00">4</text>
</g>
<!-- _1c1_0c0_0a1_3c1_3h&#45;&#45;_1c1_0c0_0a1_3c1_3h0_2c -->
<g id="edge32" class="edge">
<title>_1c1_0c0_0a1_3c1_3h--_1c1_0c0_0a1_3c1_3h0_2c</title>
<path fill="none" stroke="black" d="M422.38,-116C434,-116 447.13,-116 458.27,-116"/>
</g>
<!-- _1c1_0c0_0a1_3c0_3g0_2c0_2e -->
<g id="node32" class="node">
<title>_1c1_0c0_0a1_3c0_3g0_2c0_2e</title>
<path fill="none" stroke="black" d="M590,-185C590,-185 560,-185 560,-185 554,-185 548,-179 548,-173 548,-173 548,-161 548,-161 548,-155 554,-149 560,-149 560,-149 590,-149 590,-149 596,-149 602,-155 602,-161 602,-161 602,-173 602,-173 602,-179 596,-185 590,-185"/>
<text text-anchor="middle" x="575" y="-162.8" font-family="Comic Sans MS" font-size="14.00">5</text>
</g>
<!-- _1c1_0c0_0a1_3c0_3g0_2c&#45;&#45;_1c1_0c0_0a1_3c0_3g0_2c0_2e -->
<g id="edge31" class="edge">
<title>_1c1_0c0_0a1_3c0_3g0_2c--_1c1_0c0_0a1_3c0_3g0_2c0_2e</title>
<path fill="none" stroke="black" d="M511.93,-167C523.18,-167 536.35,-167 547.65,-167"/>
</g>
<!-- _1c1_0c0_0a1_3c1_3h0_2c0_2e -->
<g id="node34" class="node">
<title>_1c1_0c0_0a1_3c1_3h0_2c0_2e</title>
<path fill="none" stroke="black" d="M590,-134C590,-134 560,-134 560,-134 554,-134 548,-128 548,-122 548,-122 548,-110 548,-110 548,-104 554,-98 560,-98 560,-98 590,-98 590,-98 596,-98 602,-104 602,-110 602,-110 602,-122 602,-122 602,-128 596,-134 590,-134"/>
<text text-anchor="middle" x="575" y="-111.8" font-family="Comic Sans MS" font-size="14.00">4</text>
</g>
<!-- _1c1_0c0_0a1_3c1_3h0_2c&#45;&#45;_1c1_0c0_0a1_3c1_3h0_2c0_2e -->
<g id="edge33" class="edge">
<title>_1c1_0c0_0a1_3c1_3h0_2c--_1c1_0c0_0a1_3c1_3h0_2c0_2e</title>
<path fill="none" stroke="black" d="M511.93,-116C523.18,-116 536.35,-116 547.65,-116"/>
</g>
<!-- _1c1_0c1_0b0_2c0_2e -->
<g id="node37" class="node">
<title>_1c1_0c1_0b0_2c0_2e</title>
<path fill="none" stroke="black" d="M406,-83C406,-83 376,-83 376,-83 370,-83 364,-77 364,-71 364,-71 364,-59 364,-59 364,-53 370,-47 376,-47 376,-47 406,-47 406,-47 412,-47 418,-53 418,-59 418,-59 418,-71 418,-71 418,-77 412,-83 406,-83"/>
<path fill="none" stroke="black" d="M410,-87C410,-87 372,-87 372,-87 366,-87 360,-81 360,-75 360,-75 360,-55 360,-55 360,-49 366,-43 372,-43 372,-43 410,-43 410,-43 416,-43 422,-49 422,-55 422,-55 422,-75 422,-75 422,-81 416,-87 410,-87"/>
<text text-anchor="middle" x="391" y="-60.8" font-family="Comic Sans MS" font-size="14.00">3</text>
</g>
<!-- _1c1_0c1_0b0_2c&#45;&#45;_1c1_0c1_0b0_2c0_2e -->
<g id="edge36" class="edge">
<title>_1c1_0c1_0b0_2c--_1c1_0c1_0b0_2c0_2e</title>
<path fill="none" stroke="black" d="M323.63,-65C334.79,-65 347.96,-65 359.62,-65"/>
</g>
<!-- _1c1_0c1_0b1_3c0_3g0_2c -->
<g id="node41" class="node">
<title>_1c1_0c1_0b1_3c0_3g0_2c</title>
<path fill="LightSalmon" stroke="black" stroke-width="0" d="M406,-36C406,-36 376,-36 376,-36 370,-36 364,-30 364,-24 364,-24 364,-12 364,-12 364,-6 370,0 376,0 376,0 406,0 406,0 412,0 418,-6 418,-12 418,-12 418,-24 418,-24 418,-30 412,-36 406,-36"/>
<text text-anchor="middle" x="391" y="-13.8" font-family="Comic Sans MS" font-size="14.00">1</text>
</g>
<!-- _1c1_0c1_0b1_3c&#45;&#45;_1c1_0c1_0b1_3c0_3g0_2c -->
<g id="edge40" class="edge">
<title>_1c1_0c1_0b1_3c--_1c1_0c1_0b1_3c0_3g0_2c</title>
<path fill="none" stroke="black" d="M323.63,-19.44C336.28,-19.17 351.51,-18.84 364.19,-18.56"/>
</g>
<!-- _1c1_0c1_0b0_2c0_2e0_3c -->
<g id="node38" class="node">
<title>_1c1_0c1_0b0_2c0_2e0_3c</title>
<path fill="Khaki" stroke="black" stroke-width="0" d="M500,-83C500,-83 470,-83 470,-83 464,-83 458,-77 458,-71 458,-71 458,-59 458,-59 458,-53 464,-47 470,-47 470,-47 500,-47 500,-47 506,-47 512,-53 512,-59 512,-59 512,-71 512,-71 512,-77 506,-83 500,-83"/>
<text text-anchor="middle" x="485" y="-60.8" font-family="Comic Sans MS" font-size="14.00">1</text>
</g>
<!-- _1c1_0c1_0b0_2c0_2e&#45;&#45;_1c1_0c1_0b0_2c0_2e0_3c -->
<g id="edge37" class="edge">
<title>_1c1_0c1_0b0_2c0_2e--_1c1_0c1_0b0_2c0_2e0_3c</title>
<path fill="none" stroke="black" d="M422.38,-65C434,-65 447.13,-65 458.27,-65"/>
</g>
<!-- _1c1_0c1_0b0_2c0_2e0_3c0_3g -->
<g id="node39" class="node">
<title>_1c1_0c1_0b0_2c0_2e0_3c0_3g</title>
<path fill="none" stroke="black" d="M590,-87C590,-87 560,-87 560,-87 554,-87 548,-81 548,-75 548,-75 548,-63 548,-63 548,-57 554,-51 560,-51 560,-51 590,-51 590,-51 596,-51 602,-57 602,-63 602,-63 602,-75 602,-75 602,-81 596,-87 590,-87"/>
<text text-anchor="middle" x="575" y="-64.8" font-family="Comic Sans MS" font-size="14.00">1</text>
</g>
<!-- _1c1_0c1_0b0_2c0_2e0_3c&#45;&#45;_1c1_0c1_0b0_2c0_2e0_3c0_3g -->
<g id="edge38" class="edge">
<title>_1c1_0c1_0b0_2c0_2e0_3c--_1c1_0c1_0b0_2c0_2e0_3c0_3g</title>
<path fill="none" stroke="black" d="M511.93,-66.18C523.18,-66.69 536.35,-67.29 547.65,-67.8"/>
</g>
<!-- _1c1_0c1_0b0_2c0_2e0_3c1_3h -->
<g id="node40" class="node">
<title>_1c1_0c1_0b0_2c0_2e0_3c1_3h</title>
<path fill="none" stroke="black" d="M590,-44C590,-44 560,-44 560,-44 554,-44 548,-38 548,-32 548,-32 548,-20 548,-20 548,-14 554,-8 560,-8 560,-8 590,-8 590,-8 596,-8 602,-14 602,-20 602,-20 602,-32 602,-32 602,-38 596,-44 590,-44"/>
<text text-anchor="middle" x="575" y="-21.8" font-family="Comic Sans MS" font-size="14.00">1</text>
</g>
<!-- _1c1_0c1_0b0_2c0_2e0_3c&#45;&#45;_1c1_0c1_0b0_2c0_2e0_3c1_3h -->
<g id="edge39" class="edge">
<title>_1c1_0c1_0b0_2c0_2e0_3c--_1c1_0c1_0b0_2c0_2e0_3c1_3h</title>
<path fill="none" stroke="black" d="M511.93,-53.51C523.18,-48.52 536.35,-42.69 547.65,-37.68"/>
</g>
<!-- _1c1_0c1_0b1_3c0_3g0_2c0_2e -->
<g id="node42" class="node">
<title>_1c1_0c1_0b1_3c0_3g0_2c0_2e</title>
<path fill="none" stroke="black" d="M500,-36C500,-36 470,-36 470,-36 464,-36 458,-30 458,-24 458,-24 458,-12 458,-12 458,-6 464,0 470,0 470,0 500,0 500,0 506,0 512,-6 512,-12 512,-12 512,-24 512,-24 512,-30 506,-36 500,-36"/>
<text text-anchor="middle" x="485" y="-13.8" font-family="Comic Sans MS" font-size="14.00">1</text>
</g>
<!-- _1c1_0c1_0b1_3c0_3g0_2c&#45;&#45;_1c1_0c1_0b1_3c0_3g0_2c0_2e -->
<g id="edge41" class="edge">
<title>_1c1_0c1_0b1_3c0_3g0_2c--_1c1_0c1_0b1_3c0_3g0_2c0_2e</title>
<path fill="none" stroke="black" d="M417.63,-18C430.07,-18 445,-18 457.55,-18"/>
</g>
</g>
</svg>