<svg xmlns="http://www.w3.org/2000/svg" xmlns:xlink="http://www.w3.org/1999/xlink" width="798pt" height="873pt" viewBox="0.00 0.00 798.00 873.00">
<g id="graph0" class="graph" transform="scale(1 1) rotate(0) translate(4 869)">
<polygon fill="white" stroke="none" points="-4,4 -4,-869 794,-869 794,4 -4,4"/>
<!-- r -->
<g id="node1" class="node">
<title>r</title>
<path fill="none" stroke="black" d="M42,-491C42,-491 12,-491 12,-491 6,-491 0,-485 0,-479 0,-479 0,-467 0,-467 0,-461 6,-455 12,-455 12,-455 42,-455 42,-455 48,-455 54,-461 54,-467 54,-467 54,-479 54,-479 54,-485 48,-491 42,-491"/>
<text text-anchor="middle" x="27" y="-468.8" font-family="Comic Sans MS" font-size="14.00">14</text>
</g>
<!-- r0_0c -->
<g id="node2" class="node">
<title>r0_0c</title>
<path fill="LightSkyBlue" stroke="black" stroke-width="0" d="M132,-707C132,-707 102,-707 102,-707 96,-707 90,-701 90,-695 90,-695 90,-683 90,-683 90,-677 96,-671 102,-671 102,-671 132,-671 132,-671 138,-671 144,-677 144,-683 144,-683 144,-695 144,-695 144,-701 138,-707 132,-707"/>
<text text-anchor="middle" x="117" y="-684.8" font-family="Comic Sans MS" font-size="14.00">4</text>
</g>
<!-- r&#45;&#45;r0_0c -->
<g id="edge1" class="edge">
<title>r--r0_0c</title>
<path fill="none" stroke="black" d="M35.5,-491.42C52.21,-532.43 92.31,-630.84 108.76,-671.24"/>
</g>
<!-- r1_1c -->
<g id="node3" class="node">
<title>r1_1c</title>
<path fill="PaleGreen" stroke="black" stroke-width="0" d="M132,-535C132,-535 102,-535 102,-535 96,-535 90,-529 90,-523 90,-523 90,-511 90,-511 90,-505 96,-499 102,-499 102,-499 132,-499 132,-499 138,-499 144,-505 144,-511 144,-511 144,-523 144,-523 144,-529 138,-535 132,-535"/>
<text text-anchor="middle" x="117" y="-512.8" font-family="Comic Sans MS" font-size="14.00">2</text>
</g>
<!-- r&#45;&#45;r1_1c -->
<g id="edge2" class="edge">
<title>r--r1_1c</title>
<path fill="none" stroke="black" d="M54.4,-486.2C65.74,-491.87 78.95,-498.48 90.22,-504.11"/>
</g>
<!-- r2_2c -->
<g id="node4" class="node">
<title>r2_2c</title>
<path fill="LightSalmon" stroke="black" stroke-width="0" d="M132,-427C132,-427 102,-427 102,-427 96,-427 90,-421 90,-415 90,-415 90,-403 90,-403 90,-397 96,-391 102,-391 102,-391 132,-391 132,-391 138,-391 144,-397 144,-403 144,-403 144,-415 144,-415 144,-421 138,-427 132,-427"/>
<text text-anchor="middle" x="117" y="-404.8" font-family="Comic Sans MS" font-size="14.00">3</text>
</g>
<!-- r&#45;&#45;r2_2c -->
<g id="edge3" class="edge">
<title>r--r2_2c</title>
<path fill="none" stroke="black" d="M52.98,-454.83C64.97,-446.11 79.3,-435.69 91.26,-426.99"/>
</g>
<!-- r3_3c -->
<g id="node5" class="node">
<title>r3_3c</title>
<path fill="Khaki" stroke="black" stroke-width="0" d="M132,-191C132,-191 102,-191 102,-191 96,-191 90,-185 90,-179 90,-179 90,-167 90,-167 90,-161 96,-155 102,-155 102,-155 132,-155 132,-155 138,-155 144,-161 144,-167 144,-167 144,-179 144,-179 144,-185 138,-191 132,-191"/>
<text text-anchor="middle" x="117" y="-168.8" font-family="Comic Sans MS" font-size="14.00">5</text>
</g>
<!-- r&#45;&#45;r3_3c -->
<g id="edge4" class="edge">
<title>r--r3_3c</title>
<path fill="none" stroke="black" d="M33.37,-454.69C49.16,-400.87 95.26,-243.71 110.81,-190.7"/>
</g>
<!-- r0_0c0_0a -->
<g id="node6" class="node">
<title>r0_0c0_0a</title>
<path fill="none" stroke="black" d="M222,-775C222,-775 192,-775 192,-775 186,-775 180,-769 180,-763 180,-763 180,-751 180,-751 180,-745 186,-739 192,-739 192,-739 222,-739 222,-739 228,-739 234,-745 234,-751 234,-751 234,-763 234,-763 234,-769 228,-775 222,-775"/>
<text text-anchor="middle" x="207" y="-752.8" font-family="Comic Sans MS" font-size="14.00">4</text>
</g>
<!-- r0_0c&#45;&#45;r0_0c0_0a -->
<g id="edge5" class="edge">
<title>r0_0c--r0_0c0_0a</title>
<path fill="none" stroke="black" d="M141.12,-706.87C153.75,-716.63 169.37,-728.69 182.11,-738.54"/>
</g>
<!-- r0_0c1_0b0_2c -->
<g id="node7" class="node">
<title>r0_0c1_0b0_2c</title>
<path fill="LightSalmon" stroke="black" stroke-width="0" d="M222,-707C222,-707 192,-707 192,-707 186,-707 180,-701 180,-695 180,-695 180,-683 180,-683 180,-677 186,-671 192,-671 192,-671 222,-671 222,-671 228,-671 234,-677 234,-683 234,-683 234,-695 234,-695 234,-701 228,-707 222,-707"/>
<text text-anchor="middle" x="207" y="-684.8" font-family="Comic Sans MS" font-size="14.00">2</text>
</g>
<!-- r0_0c&#45;&#45;r0_0c1_0b0_2c -->
<g id="edge6" class="edge">
<title>r0_0c--r0_0c1_0b0_2c</title>
<path fill="none" stroke="black" d="M143.93,-689C155.38,-689 168.82,-689 180.26,-689"/>
</g>
<!-- r1_1c0_1c0_0c -->
<g id="node25" class="node">
<title>r1_1c0_1c0_0c</title>
<path fill="LightSkyBlue" stroke="black" stroke-width="0" d="M222,-594C222,-594 192,-594 192,-594 186,-594 180,-588 180,-582 180,-582 180,-570 180,-570 180,-564 186,-558 192,-558 192,-558 222,-558 222,-558 228,-558 234,-564 234,-570 234,-570 234,-582 234,-582 234,-588 228,-594 222,-594"/>
<text text-anchor="middle" x="207" y="-571.8" font-family="Comic Sans MS" font-size="14.00">1</text>
</g>
<!-- r1_1c&#45;&#45;r1_1c0_1c0_0c -->
<g id="edge24" class="edge">
<title>r1_1c--r1_1c0_1c0_0c</title>
<path fill="none" stroke="black" d="M143.93,-534.38C155.38,-542.06 168.82,-551.07 180.26,-558.74"/>
</g>
<!-- r1_1c1_1d -->
<g id="node26" class="node">
<title>r1_1c1_1d</title>
<path fill="none" stroke="black" d="M222,-535C222,-535 192,-535 192,-535 186,-535 180,-529 180,-523 180,-523 180,-511 180,-511 180,-505 186,-499 192,-499 192,-499 222,-499 222,-499 228,-499 234,-505 234,-511 234,-511 234,-523 234,-523 234,-529 228,-535 222,-535"/>
<text text-anchor="middle" x="207" y="-512.8" font-family="Comic Sans MS" font-size="14.00">2</text>
</g>
<!-- r1_1c&#45;&#45;r1_1c1_1d -->
<g id="edge25" class="edge">
<title>r1_1c--r1_1c1_1d</title>
<path fill="none" stroke="black" d="M143.93,-517C155.18,-517 168.35,-517 179.65,-517"/>
</g>
<!-- r2_2c0_2e -->
<g id="node37" class="node">
<title>r2_2c0_2e</title>
<path fill="none" stroke="black" d="M222,-427C222,-427 192,-427 192,-427 186,-427 180,-421 180,-415 180,-415 180,-403 180,-403 180,-397 186,-391 192,-391 192,-391 222,-391 222,-391 228,-391 234,-397 234,-403 234,-403 234,-415 234,-415 234,-421 228,-427 222,-427"/>
<text text-anchor="middle" x="207" y="-404.8" font-family="Comic Sans MS" font-size="14.00">3</text>
</g>
<!-- r2_2c&#45;&#45;r2_2c0_2e -->
<g id="edge36" class="edge">
<title>r2_2c--r2_2c0_2e</title>
<path fill="none" stroke="black" d="M143.93,-409C155.18,-409 168.35,-409 179.65,-409"/>
</g>
<!-- r2_2c1_2f0_0c -->
<g id="node38" class="node">
<title>r2_2c1_2f0_0c</title>
<path fill="LightSkyBlue" stroke="black" stroke-width="0" d="M222,-363C222,-363 192,-363 192,-363 186,-363 180,-357 180,-351 180,-351 180,-339 180,-339 180,-333 186,-327 192,-327 192,-327 222,-327 222,-327 228,-327 234,-333 234,-339 234,-339 234,-351 234,-351 234,-357 228,-363 222,-363"/>
<text text-anchor="middle" x="207" y="-340.8" font-family="Comic Sans MS" font-size="14.00">2</text>
</g>
<!-- r2_2c&#45;&#45;r2_2c1_2f0_0c -->
<g id="edge37" class="edge">
<title>r2_2c--r2_2c1_2f0_0c</title>
<path fill="none" stroke="black" d="M142.51,-391.17C154.62,-382.37 169.19,-371.77 181.31,-362.95"/>
</g>
<!-- r3_3c0_3g -->
<g id="node55" class="node">
<title>r3_3c0_3g</title>
<path fill="none" stroke="black" d="M222,-191C222,-191 192,-191 192,-191 186,-191 180,-185 180,-179 180,-179 180,-167 180,-167 180,-161 186,-155 192,-155 192,-155 222,-155 222,-155 228,-155 234,-161 234,-167 234,-167 234,-179 234,-179 234,-185 228,-191 222,-191"/>
<text text-anchor="middle" x="207" y="-168.8" font-family="Comic Sans MS" font-size="14.00">4</text>
</g>
<!-- r3_3c&#45;&#45;r3_3c0_3g -->
<g id="edge54" class="edge">
<title>r3_3c--r3_3c0_3g</title>
<path fill="none" stroke="black" d="M143.93,-173C155.18,-173 168.35,-173 179.65,-173"/>
</g>
<!-- r3_3c1_3h -->
<g id="node56" class="node">
<title>r3_3c1_3h</title>
<path fill="none" stroke="black" d="M222,-120C222,-120 192,-120 192,-120 186,-120 180,-114 180,-108 180,-108 180,-96 180,-96 180,-90 186,-84 192,-84 192,-84 222,-84 222,-84 228,-84 234,-90 234,-96 234,-96 234,-108 234,-108 234,-114 228,-120 222,-120"/>
<text text-anchor="middle" x="207" y="-97.8" font-family="Comic Sans MS" font-size="14.00">5</text>
</g>
<!-- r3_3c&#45;&#45;r3_3c1_3h -->
<g id="edge55" class="edge">
<title>r3_3c--r3_3c1_3h</title>
<path fill="none" stroke="black" d="M140.21,-155.08C153.34,-144.48 169.95,-131.09 183.19,-120.41"/>
</g>
<!-- r0_0c0_0a0_1c -->
<g id="node8" class="node">
<title>r0_0c0_0a0_1c</title>
<path fill="PaleGreen" stroke="black" stroke-width="0" d="M312,-820C312,-820 282,-820 282,-820 276,-820 270,-814 270,-808 270,-808 270,-796 270,-796 270,-790 276,-784 282,-784 282,-784 312,-784 312,-784 318,-784 324,-790 324,-796 324,-796 324,-808 324,-808 324,-814 318,-820 312,-820"/>
<text text-anchor="middle" x="297" y="-797.8" font-family="Comic Sans MS" font-size="14.00">2</text>
</g>
<!-- r0_0c0_0a&#45;&#45;r0_0c0_0a0_1c -->
<g id="edge7" class="edge">
<title>r0_0c0_0a--r0_0c0_0a0_1c</title>
<path fill="none" stroke="black" d="M234.4,-770.5C245.74,-776.3 258.95,-783.05 270.22,-788.82"/>
</g>
<!-- r0_0c0_0a1_3c -->
<g id="node9" class="node">
<title>r0_0c0_0a1_3c</title>
<path fill="Khaki" stroke="black" stroke-width="0" d="M312,-775C312,-775 282,-775 282,-775 276,-775 270,-769 270,-763 270,-763 270,-751 270,-751 270,-745 276,-739 282,-739 282,-739 312,-739 312,-739 318,-739 324,-745 324,-751 324,-751 324,-763 324,-763 324,-769 318,-775 312,-775"/>
<text text-anchor="middle" x="297" y="-752.8" font-family="Comic Sans MS" font-size="14.00">2</text>
</g>
<!-- r0_0c0_0a&#45;&#45;r0_0c0_0a1_3c -->
<g id="edge8" class="edge">
<title>r0_0c0_0a--r0_0c0_0a1_3c</title>
<path fill="none" stroke="black" d="M234.4,-757C245.74,-757 258.95,-757 270.22,-757"/>
</g>
<!-- r0_0c1_0b0_2c0_2e -->
<g id="node20" class="node">
<title>r0_0c1_0b0_2c0_2e</title>
<path fill="none" stroke="black" d="M312,-707C312,-707 282,-707 282,-707 276,-707 270,-701 270,-695 270,-695 270,-683 270,-683 270,-677 276,-671 282,-671 282,-671 312,-671 312,-671 318,-671 324,-677 324,-683 324,-683 324,-695 324,-695 324,-701 318,-707 312,-707"/>
<text text-anchor="middle" x="297" y="-684.8" font-family="Comic Sans MS" font-size="14.00">2</text>
</g>
<!-- r0_0c1_0b0_2c&#45;&#45;r0_0c1_0b0_2c0_2e -->
<g id="edge19" class="edge">
<title>r0_0c1_0b0_2c--r0_0c1_0b0_2c0_2e</title>
<path fill="none" stroke="black" d="M233.93,-689C245.18,-689 258.35,-689 269.65,-689"/>
</g>
<!-- r0_0c0_0a0_1c0_1c -->
<g id="node10" class="node">
<title>r0_0c0_0a0_1c0_1c</title>
<path fill="none" stroke="black" d="M402,-822C402,-822 372,-822 372,-822 366,-822 360,-816 360,-810 360,-810 360,-798 360,-798 360,-792 366,-786 372,-786 372,-786 402,-786 402,-786 408,-786 414,-792 414,-798 414,-798 414,-810 414,-810 414,-816 408,-822 402,-822"/>
<text text-anchor="middle" x="387" y="-799.8" font-family="Comic Sans MS" font-size="14.00">2</text>
</g>
<!-- r0_0c0_0a0_1c&#45;&#45;r0_0c0_0a0_1c0_1c -->
<g id="edge9" class="edge">
<title>r0_0c0_0a0_1c--r0_0c0_0a0_1c0_1c</title>
<path fill="none" stroke="black" d="M323.93,-802.59C335.18,-802.85 348.35,-803.14 359.65,-803.4"/>
</g>
<!-- r0_0c0_0a1_3c0_3g0_2c -->
<g id="node16" class="node">
<title>r0_0c0_0a1_3c0_3g0_2c</title>
<path fill="LightSalmon" stroke="black" stroke-width="0" d="M402,-775C402,-775 372,-775 372,-775 366,-775 360,-769 360,-763 360,-763 360,-751 360,-751 360,-745 366,-739 372,-739 372,-739 402,-739 402,-739 408,-739 414,-745 414,-751 414,-751 414,-763 414,-763 414,-769 408,-775 402,-775"/>
<text text-anchor="middle" x="387" y="-752.8" font-family="Comic Sans MS" font-size="14.00">2</text>
</g>
<!-- r0_0c0_0a1_3c&#45;&#45;r0_0c0_0a1_3c0_3g0_2c -->
<g id="edge15" class="edge">
<title>r0_0c0_0a1_3c--r0_0c0_0a1_3c0_3g0_2c</title>
<path fill="none" stroke="black" d="M323.93,-757C335.38,-757 348.82,-757 360.26,-757"/>
</g>
<!-- r0_0c0_0a0_1c0_1c0_2c -->
<g id="node11" class="node">
<title>r0_0c0_0a0_1c0_1c0_2c</title>
<path fill="LightSalmon" stroke="black" stroke-width="0" d="M496,-865C496,-865 466,-865 466,-865 460,-865 454,-859 454,-853 454,-853 454,-841 454,-841 454,-835 460,-829 466,-829 466,-829 496,-829 496,-829 502,-829 508,-835 508,-841 508,-841 508,-853 508,-853 508,-859 502,-865 496,-865"/>
<text text-anchor="middle" x="481" y="-842.8" font-family="Comic Sans MS" font-size="14.00">1</text>
</g>
<!-- r0_0c0_0a0_1c0_1c&#45;&#45;r0_0c0_0a0_1c0_1c0_2c -->
<g id="edge10" class="edge">
<title>r0_0c0_0a0_1c0_1c--r0_0c0_0a0_1c0_1c0_2c</title>
<path fill="none" stroke="black" d="M414.12,-816.21C426.65,-822.07 441.63,-829.07 454.14,-834.91"/>
</g>
<!-- r0_0c0_0a0_1c0_1c1_3c -->
<g id="node12" class="node">
<title>r0_0c0_0a0_1c0_1c1_3c</title>
<path fill="Khaki" stroke="black" stroke-width="0" d="M496,-822C496,-822 466,-822 466,-822 460,-822 454,-816 454,-810 454,-810 454,-798 454,-798 454,-792 460,-786 466,-786 466,-786 496,-786 496,-786 502,-786 508,-792 508,-798 508,-798 508,-810 508,-810 508,-816 502,-822 496,-822"/>
<text text-anchor="middle" x="481" y="-799.8" font-family="Comic Sans MS" font-size="14.00">1</text>
</g>
<!-- r0_0c0_0a0_1c0_1c&#45;&#45;r0_0c0_0a0_1c0_1c1_3c -->
<g id="edge11" class="edge">
<title>r0_0c0_0a0_1c0_1c--r0_0c0_0a0_1c0_1c1_3c</title>
<path fill="none" stroke="black" d="M414.12,-804C426.65,-804 441.63,-804 454.14,-804"/>
</g>
<!-- r0_0c0_0a0_1c0_1c0_2c0_2e -->
<g id="node13" class="node">
<title>r0_0c0_0a0_1c0_1c0_2c0_2e</title>
<path fill="none" stroke="black" d="M594,-865C594,-865 564,-865 564,-865 558,-865 552,-859 552,-853 552,-853 552,-841 552,-841 552,-835 558,-829 564,-829 564,-829 594,-829 594,-829 600,-829 606,-835 606,-841 606,-841 606,-853 606,-853 606,-859 600,-865 594,-865"/>
<text text-anchor="middle" x="579" y="-842.8" font-family="Comic Sans MS" font-size="14.00">1</text>
</g>
<!-- r0_0c0_0a0_1c0_1c0_2c&#45;&#45;r0_0c0_0a0_1c0_1c0_2c0_2e -->
<g id="edge12" class="edge">
<title>r0_0c0_0a0_1c0_1c0_2c--r0_0c0_0a0_1c0_1c0_2c0_2e</title>
<path fill="none" stroke="black" d="M507.98,-847C521.53,-847 538.07,-847 551.67,-847"/>
</g>
<!-- r0_0c0_0a0_1c0_1c1_3c0_3h0_2c -->
<g id="node14" class="node">
<title>r0_0c0_0a0_1c0_1c1_3c0_3h0_2c</title>
<path fill="LightSalmon" stroke="black" stroke-width="0" d="M594,-822C594,-822 564,-822 564,-822 558,-822 552,-816 552,-810 552,-810 552,-798 552,-798 552,-792 558,-786 564,-786 564,-786 594,-786 594,-786 600,-786 606,-792 606,-798 606,-798 606,-810 606,-810 606,-816 600,-822 594,-822"/>
<text text-anchor="middle" x="579" y="-799.8" font-family="Comic Sans MS" font-size="14.00">1</text>
</g>
<!-- r0_0c0_0a0_1c0_1c1_3c&#45;&#45;r0_0c0_0a0_1c0_1c1_3c0_3h0_2c -->
<g id="edge13" class="edge">
<title>r0_0c0_0a0_1c0_1c1_3c--r0_0c0_0a0_1c0_1c1_3c0_3h0_2c</title>
<path fill="none" stroke="black" d="M507.98,-804C521.64,-804 538.34,-804 552,-804"/>
</g>
<!-- r0_0c0_0a0_1c0_1c1_3c0_3h0_2c0_2e -->
<g id="node15" class="node">
<title>r0_0c0_0a0_1c0_1c1_3c0_3h0_2c0_2e</title>
<path fill="none" stroke="black" d="M688,-822C688,-822 658,-822 658,-822 652,-822 646,-816 646,-810 646,-810 646,-798 646,-798 646,-792 652,-786 658,-786 658,-786 688,-786 688,-786 694,-786 700,-792 700,-798 700,-798 700,-810 700,-810 700,-816 694,-822 688,-822"/>
<text text-anchor="middle" x="673" y="-799.8" font-family="Comic Sans MS" font-size="14.00">1</text>
</g>
<!-- r0_0c0_0a0_1c0_1c1_3c0_3h0_2c&#45;&#45;r0_0c0_0a0_1c0_1c1_3c0_3h0_2c0_2e -->
<g id="edge14" class="edge">
<title>r0_0c0_0a0_1c0_1c1_3c0_3h0_2c--r0_0c0_0a0_1c0_1c1_3c0_3h0_2c0_2e</title>
<path fill="none" stroke="black" d="M605.63,-804C618.07,-804 633,-804 645.55,-804"/>
</g>
<!-- r0_0c0_0a1_3c0_3g0_2c0_2e -->
<g id="node17" class="node">
<title>r0_0c0_0a1_3c0_3g0_2c0_2e</title>
<path fill="none" stroke="black" d="M496,-775C496,-775 466,-775 466,-775 460,-775 454,-769 454,-763 454,-763 454,-751 454,-751 454,-745 460,-739 466,-739 466,-739 496,-739 496,-739 502,-739 508,-745 508,-751 508,-751 508,-763 508,-763 508,-769 502,-775 496,-775"/>
<path fill="none" stroke="black" d="M500,-779C500,-779 462,-779 462,-779 456,-779 450,-773 450,-767 450,-767 450,-747 450,-747 450,-741 456,-735 462,-735 462,-735 500,-735 500,-735 506,-735 512,-741 512,-747 512,-747 512,-767 512,-767 512,-773 506,-779 500,-779"/>
<text text-anchor="middle" x="481" y="-752.8" font-family="Comic Sans MS" font-size="14.00">2</text>
</g>
<!-- r0_0c0_0a1_3c0_3g0_2c&#45;&#45;r0_0c0_0a1_3c0_3g0_2c0_2e -->
<g id="edge16" class="edge">
<title>r0_0c0_0a1_3c0_3g0_2c--r0_0c0_0a1_3c0_3g0_2c0_2e</title>
<path fill="none" stroke="black" d="M413.63,-757C424.79,-757 437.96,-757 449.62,-757"/>
</g>
<!-- r0_0c0_0a1_3c0_3g0_2c0_2e0_1c -->
<g id="node18" class="node">
<title>r0_0c0_0a1_3c0_3g0_2c0_2e0_1c</title>
<path fill="PaleGreen" stroke="black" stroke-width="0" d="M594,-775C594,-775 564,-775 564,-775 558,-775 552,-769 552,-763 552,-763 552,-751 552,-751 552,-745 558,-739 564,-739 564,-739 594,-739 594,-739 600,-739 606,-745 606,-751 606,-751 606,-763 606,-763 606,-769 600,-775 594,-775"/>
<text text-anchor="middle" x="579" y="-752.8" font-family="Comic Sans MS" font-size="14.00">1</text>
</g>
<!-- r0_0c0_0a1_3c0_3g0_2c0_2e&#45;&#45;r0_0c0_0a1_3c0_3g0_2c0_2e0_1c -->
<g id="edge17" class="edge">
<title>r0_0c0_0a1_3c0_3g0_2c0_2e--r0_0c0_0a1_3c0_3g0_2c0_2e0_1c</title>
<path fill="none" stroke="black" d="M512.38,-757C525.12,-757 539.79,-757 552.02,-757"/>
</g>
<!-- r0_0c0_0a1_3c0_3g0_2c0_2e0_1c0_1d -->
<g id="node19" class="node">
<title>r0_0c0_0a1_3c0_3g0_2c0_2e0_1c0_1d</title>
<path fill="none" stroke="black" d="M688,-775C688,-775 658,-775 658,-775 652,-775 646,-769 646,-763 646,-763 646,-751 646,-751 646,-745 652,-739 658,-739 658,-739 688,-739 688,-739 694,-739 700,-745 700,-751 700,-751 700,-763 700,-763 700,-769 694,-775 688,-775"/>
<text text-anchor="middle" x="673" y="-752.8" font-family="Comic Sans MS" font-size="14.00">1</text>
</g>
<!-- r0_0c0_0a1_3c0_3g0_2c0_2e0_1c&#45;&#45;r0_0c0_0a1_3c0_3g0_2c0_2e0_1c0_1d -->
<g id="edge18" class="edge">
<title>r0_0c0_0a1_3c0_3g0_2c0_2e0_1c--r0_0c0_0a1_3c0_3g0_2c0_2e0_1c0_1d</title>
<path fill="none" stroke="black" d="M605.63,-757C618.07,-757 633,-757 645.55,-757"/>
</g>
<!-- r0_0c1_0b0_2c0_2e0_1c -->
<g id="node21" class="node">
<title>r0_0c1_0b0_2c0_2e0_1c</title>
<path fill="PaleGreen" stroke="black" stroke-width="0" d="M402,-728C402,-728 372,-728 372,-728 366,-728 360,-722 360,-716 360,-716 360,-704 360,-704 360,-698 366,-692 372,-692 372,-692 402,-692 402,-692 408,-692 414,-698 414,-704 414,-704 414,-716 414,-716 414,-722 408,-728 402,-728"/>
<text text-anchor="middle" x="387" y="-705.8" font-family="Comic Sans MS" font-size="14.00">1</text>
</g>
<!-- r0_0c1_0b0_2c0_2e&#45;&#45;r0_0c1_0b0_2c0_2e0_1c -->
<g id="edge20" class="edge">
<title>r0_0c1_0b0_2c0_2e--r0_0c1_0b0_2c0_2e0_1c</title>
<path fill="none" stroke="black" d="M324.4,-695.3C335.74,-698.01 348.95,-701.16 360.22,-703.85"/>
</g>
<!-- r0_0c1_0b0_2c0_2e1_3c -->
<g id="node22" class="node">
<title>r0_0c1_0b0_2c0_2e1_3c</title>
<path fill="Khaki" stroke="black" stroke-width="0" d="M402,-685C402,-685 372,-685 372,-685 366,-685 360,-679 360,-673 360,-673 360,-661 360,-661 360,-655 366,-649 372,-649 372,-649 402,-649 402,-649 408,-649 414,-655 414,-661 414,-661 414,-673 414,-673 414,-679 408,-685 402,-685"/>
<text text-anchor="middle" x="387" y="-662.8" font-family="Comic Sans MS" font-size="14.00">1</text>
</g>
<!-- r0_0c1_0b0_2c0_2e&#45;&#45;r0_0c1_0b0_2c0_2e1_3c -->
<g id="edge21" class="edge">
<title>r0_0c1_0b0_2c0_2e--r0_0c1_0b0_2c0_2e1_3c</title>
<path fill="none" stroke="black" d="M324.4,-682.4C335.74,-679.56 348.95,-676.26 360.22,-673.44"/>
</g>
<!-- r0_0c1_0b0_2c0_2e0_1c0_1d -->
<g id="node23" class="node">
<title>r0_0c1_0b0_2c0_2e0_1c0_1d</title>
<path fill="none" stroke="black" d="M496,-728C496,-728 466,-728 466,-728 460,-728 454,-722 454,-716 454,-716 454,-704 454,-704 454,-698 460,-692 466,-692 466,-692 496,-692 496,-692 502,-692 508,-698 508,-704 508,-704 508,-716 508,-716 508,-722 502,-728 496,-728"/>
<text text-anchor="middle" x="481" y="-705.8" font-family="Comic Sans MS" font-size="14.00">1</text>
</g>
<!-- r0_0c1_0b0_2c0_2e0_1c&#45;&#45;r0_0c1_0b0_2c0_2e0_1c0_1d -->
<g id="edge22" class="edge">
<title>r0_0c1_0b0_2c0_2e0_1c--r0_0c1_0b0_2c0_2e0_1c0_1d</title>
<path fill="none" stroke="black" d="M413.63,-710C426.07,-710 441,-710 453.55,-710"/>
</g>
<!-- r0_0c1_0b0_2c0_2e1_3c0_3g -->
<g id="node24" class="node">
<title>r0_0c1_0b0_2c0_2e1_3c0_3g</title>
<path fill="none" stroke="black" d="M496,-685C496,-685 466,-685 466,-685 460,-685 454,-679 454,-673 454,-673 454,-661 454,-661 454,-655 460,-649 466,-649 466,-649 496,-649 496,-649 502,-649 508,-655 508,-661 508,-661 508,-673 508,-673 508,-679 502,-685 496,-685"/>
<text text-anchor="middle" x="481" y="-662.8" font-family="Comic Sans MS" font-size="14.00">1</text>
</g>
<!-- r0_0c1_0b0_2c0_2e1_3c&#45;&#45;r0_0c1_0b0_2c0_2e1_3c0_3g -->
<g id="edge23" class="edge">
<title>r0_0c1_0b0_2c0_2e1_3c--r0_0c1_0b0_2c0_2e1_3c0_3g</title>
<path fill="none" stroke="black" d="M413.63,-667C426.07,-667 441,-667 453.55,-667"/>
</g>
<!-- r1_1c0_1c0_0c0_0a0_3c -->
<g id="node27" class="node">
<title>r1_1c0_1c0_0c0_0a0_3c</title>
<path fill="Khaki" stroke="black" stroke-width="0" d="M312,-615C312,-615 282,-615 282,-615 276,-615 270,-609 270,-603 270,-603 270,-591 270,-591 270,-585 276,-579 282,-579 282,-579 312,-579 312,-579 318,-579 324,-585 324,-591 324,-591 324,-603 324,-603 324,-609 318,-615 312,-615"/>
<text text-anchor="middle" x="297" y="-592.8" font-family="Comic Sans MS" font-size="14.00">1</text>
</g>
<!-- r1_1c0_1c0_0c&#45;&#45;r1_1c0_1c0_0c0_0a0_3c -->
<g id="edge26" class="edge">
<title>r1_1c0_1c0_0c--r1_1c0_1c0_0c0_0a0_3c</title>
<path fill="none" stroke="black" d="M233.93,-582.19C245.38,-584.92 258.82,-588.13 270.26,-590.86"/>
</g>
<!-- r1_1c1_1d0_0c -->
<g id="node30" class="node">
<title>r1_1c1_1d0_0c</title>
<path fill="LightSkyBlue" stroke="black" stroke-width="0" d="M312,-556C312,-556 282,-556 282,-556 276,-556 270,-550 270,-544 270,-544 270,-532 270,-532 270,-526 276,-520 282,-520 282,-520 312,-520 312,-520 318,-520 324,-526 324,-532 324,-532 324,-544 324,-544 324,-550 318,-556 312,-556"/>
<text text-anchor="middle" x="297" y="-533.8" font-family="Comic Sans MS" font-size="14.00">1</text>
</g>
<!-- r1_1c1_1d&#45;&#45;r1_1c1_1d0_0c -->
<g id="edge29" class="edge">
<title>r1_1c1_1d--r1_1c1_1d0_0c</title>
<path fill="none" stroke="black" d="M234.4,-523.3C245.74,-526.01 258.95,-529.16 270.22,-531.85"/>
</g>
<!-- r1_1c1_1d1_2c -->
<g id="node31" class="node">
<title>r1_1c1_1d1_2c</title>
<path fill="LightSalmon" stroke="black" stroke-width="0" d="M312,-513C312,-513 282,-513 282,-513 276,-513 270,-507 270,-501 270,-501 270,-489 270,-489 270,-483 276,-477 282,-477 282,-477 312,-477 312,-477 318,-477 324,-483 324,-489 324,-489 324,-501 324,-501 324,-507 318,-513 312,-513"/>
<text text-anchor="middle" x="297" y="-490.8" font-family="Comic Sans MS" font-size="14.00">1</text>
</g>
<!-- r1_1c1_1d&#45;&#45;r1_1c1_1d1_2c -->
<g id="edge30" class="edge">
<title>r1_1c1_1d--r1_1c1_1d1_2c</title>
<path fill="none" stroke="black" d="M234.4,-510.4C245.74,-507.56 258.95,-504.26 270.22,-501.44"/>
</g>
<!-- r1_1c0_1c0_0c0_0a0_3c0_3g0_2c -->
<g id="node28" class="node">
<title>r1_1c0_1c0_0c0_0a0_3c0_3g0_2c</title>
<path fill="LightSalmon" stroke="black" stroke-width="0" d="M402,-626C402,-626 372,-626 372,-626 366,-626 360,-620 360,-614 360,-614 360,-602 360,-602 360,-596 366,-590 372,-590 372,-590 402,-590 402,-590 408,-590 414,-596 414,-602 414,-602 414,-614 414,-614 414,-620 408,-626 402,-626"/>
<text text-anchor="middle" x="387" y="-603.8" font-family="Comic Sans MS" font-size="14.00">1</text>
</g>
<!-- r1_1c0_1c0_0c0_0a0_3c&#45;&#45;r1_1c0_1c0_0c0_0a0_3c0_3g0_2c -->
<g id="edge27" class="edge">
<title>r1_1c0_1c0_0c0_0a0_3c--r1_1c0_1c0_0c0_0a0_3c0_3g0_2c</title>
<path fill="none" stroke="black" d="M323.93,-600.24C335.38,-601.67 348.82,-603.35 360.26,-604.78"/>
</g>
<!-- r1_1c0_1c0_0c0_0a0_3c0_3g0_2c0_2e -->
<g id="node29" class="node">
<title>r1_1c0_1c0_0c0_0a0_3c0_3g0_2c0_2e</title>
<path fill="none" stroke="black" d="M496,-642C496,-642 466,-642 466,-642 460,-642 454,-636 454,-630 454,-630 454,-618 454,-618 454,-612 460,-606 466,-606 466,-606 496,-606 496,-606 502,-606 508,-612 508,-618 508,-618 508,-630 508,-630 508,-636 502,-642 496,-642"/>
<text text-anchor="middle" x="481" y="-619.8" font-family="Comic Sans MS" font-size="14.00">1</text>
</g>
<!-- r1_1c0_1c0_0c0_0a0_3c0_3g0_2c&#45;&#45;r1_1c0_1c0_0c0_0a0_3c0_3g0_2c0_2e -->
<g id="edge28" class="edge">
<title>r1_1c0_1c0_0c0_0a0_3c0_3g0_2c--r1_1c0_1c0_0c0_0a0_3c0_3g0_2c0_2e</title>
<path fill="none" stroke="black" d="M413.63,-612.46C426.07,-614.62 441,-617.22 453.55,-619.4"/>
</g>
<!-- r1_1c1_1d0_0c0_0a0_3c -->
<g id="node32" class="node">
<title>r1_1c1_1d0_0c0_0a0_3c</title>
<path fill="Khaki" stroke="black" stroke-width="0" d="M402,-556C402,-556 372,-556 372,-556 366,-556 360,-550 360,-544 360,-544 360,-532 360,-532 360,-526 366,-520 372,-520 372,-520 402,-520 402,-520 408,-520 414,-526 414,-532 414,-532 414,-544 414,-544 414,-550 408,-556 402,-556"/>
<text text-anchor="middle" x="387" y="-533.8" font-family="Comic Sans MS" font-size="14.00">1</text>
</g>
<!-- r1_1c1_1d0_0c&#45;&#45;r1_1c1_1d0_0c0_0a0_3c -->
<g id="edge31" class="edge">
<title>r1_1c1_1d0_0c--r1_1c1_1d0_0c0_0a0_3c</title>
<path fill="none" stroke="black" d="M323.93,-538C335.38,-538 348.82,-538 360.26,-538"/>
</g>
<!-- r1_1c1_1d1_2c0_2e0_0c -->
<g id="node35" class="node">
<title>r1_1c1_1d1_2c0_2e0_0c</title>
<path fill="LightSkyBlue" stroke="black" stroke-width="0" d="M402,-513C402,-513 372,-513 372,-513 366,-513 360,-507 360,-501 360,-501 360,-489 360,-489 360,-483 366,-477 372,-477 372,-477 402,-477 402,-477 408,-477 414,-483 414,-489 414,-489 414,-501 414,-501 414,-507 408,-513 402,-513"/>
<text text-anchor="middle" x="387" y="-490.8" font-family="Comic Sans MS" font-size="14.00">1</text>
</g>
<!-- r1_1c1_1d1_2c&#45;&#45;r1_1c1_1d1_2c0_2e0_0c -->
<g id="edge34" class="edge">
<title>r1_1c1_1d1_2c--r1_1c1_1d1_2c0_2e0_0c</title>
<path fill="none" stroke="black" d="M323.93,-495C335.38,-495 348.82,-495 360.26,-495"/>
</g>
<!-- r1_1c1_1d0_0c0_0a0_3c0_3g -->
<g id="node33" class="node">
<title>r1_1c1_1d0_0c0_0a0_3c0_3g</title>
<path fill="none" stroke="black" d="M496,-599C496,-599 466,-599 466,-599 460,-599 454,-593 454,-587 454,-587 454,-575 454,-575 454,-569 460,-563 466,-563 466,-563 496,-563 496,-563 502,-563 508,-569 508,-575 508,-575 508,-587 508,-587 508,-593 502,-599 496,-599"/>
<text text-anchor="middle" x="481" y="-576.8" font-family="Comic Sans MS" font-size="14.00">1</text>
</g>
<!-- r1_1c1_1d0_0c0_0a0_3c&#45;&#45;r1_1c1_1d0_0c0_0a0_3c0_3g -->
<g id="edge32" class="edge">
<title>r1_1c1_1d0_0c0_0a0_3c--r1_1c1_1d0_0c0_0a0_3c0_3g</title>
<path fill="none" stroke="black" d="M413.63,-549.98C426.07,-555.79 441,-562.77 453.55,-568.64"/>
</g>
<!-- r1_1c1_1d0_0c0_0a0_3c1_3h -->
<g id="node34" class="node">
<title>r1_1c1_1d0_0c0_0a0_3c1_3h</title>
<path fill="none" stroke="black" d="M496,-556C496,-556 466,-556 466,-556 460,-556 454,-550 454,-544 454,-544 454,-532 454,-532 454,-526 460,-520 466,-520 466,-520 496,-520 496,-520 502,-520 508,-526 508,-532 508,-532 508,-544 508,-544 508,-550 502,-556 496,-556"/>
<text text-anchor="middle" x="481" y="-533.8" font-family="Comic Sans MS" font-size="14.00">1</text>
</g>
<!-- r1_1c1_1d0_0c0_0a0_3c&#45;&#45;r1_1c1_1d0_0c0_0a0_3c1_3h -->
<g id="edge33" class="edge">
<title>r1_1c1_1d0_0c0_0a0_3c--r1_1c1_1d0_0c0_0a0_3c1_3h</title>
<path fill="none" stroke="black" d="M413.63,-538C426.07,-538 441,-538 453.55,-538"/>
</g>
<!-- r1_1c1_1d1_2c0_2e0_0c0_0b -->
<g id="node36" class="node">
<title>r1_1c1_1d1_2c0_2e0_0c0_0b</title>
<path fill="none" stroke="black" d="M496,-513C496,-513 466,-513 466,-513 460,-513 454,-507 454,-501 454,-501 454,-489 454,-489 454,-483 460,-477 466,-477 466,-477 496,-477 496,-477 502,-477 508,-483 508,-489 508,-489 508,-501 508,-501 508,-507 502,-513 496,-513"/>
<text text-anchor="middle" x="481" y="-490.8" font-family="Comic Sans MS" font-size="14.00">1</text>
</g>
<!-- r1_1c1_1d1_2c0_2e0_0c&#45;&#45;r1_1c1_1d1_2c0_2e0_0c0_0b -->
<g id="edge35" class="edge">
<title>r1_1c1_1d1_2c0_2e0_0c--r1_1c1_1d1_2c0_2e0_0c0_0b</title>
<path fill="none" stroke="black" d="M413.63,-495C426.07,-495 441,-495 453.55,-495"/>
</g>
<!-- r2_2c0_2e0_0c -->
<g id="node39" class="node">
<title>r2_2c0_2e0_0c</title>
<path fill="LightSkyBlue" stroke="black" stroke-width="0" d="M312,-470C312,-470 282,-470 282,-470 276,-470 270,-464 270,-458 270,-458 270,-446 270,-446 270,-440 276,-434 282,-434 282,-434 312,-434 312,-434 318,-434 324,-440 324,-446 324,-446 324,-458 324,-458 324,-464 318,-470 312,-470"/>
<text text-anchor="middle" x="297" y="-447.8" font-family="Comic Sans MS" font-size="14.00">1</text>
</g>
<!-- r2_2c0_2e&#45;&#45;r2_2c0_2e0_0c -->
<g id="edge38" class="edge">
<title>r2_2c0_2e--r2_2c0_2e0_0c</title>
<path fill="none" stroke="black" d="M234.4,-421.9C245.74,-427.44 258.95,-433.9 270.22,-439.4"/>
</g>
<!-- r2_2c0_2e1_1c -->
<g id="node40" class="node">
<title>r2_2c0_2e1_1c</title>
<path fill="PaleGreen" stroke="black" stroke-width="0" d="M312,-427C312,-427 282,-427 282,-427 276,-427 270,-421 270,-415 270,-415 270,-403 270,-403 270,-397 276,-391 282,-391 282,-391 312,-391 312,-391 318,-391 324,-397 324,-403 324,-403 324,-415 324,-415 324,-421 318,-427 312,-427"/>
<text text-anchor="middle" x="297" y="-404.8" font-family="Comic Sans MS" font-size="14.00">1</text>
</g>
<!-- r2_2c0_2e&#45;&#45;r2_2c0_2e1_1c -->
<g id="edge39" class="edge">
<title>r2_2c0_2e--r2_2c0_2e1_1c</title>
<path fill="none" stroke="black" d="M234.4,-409C245.74,-409 258.95,-409 270.22,-409"/>
</g>
<!-- r2_2c0_2e2_3c -->
<g id="node41" class="node">
<title>r2_2c0_2e2_3c</title>
<path fill="Khaki" stroke="black" stroke-width="0" d="M312,-384C312,-384 282,-384 282,-384 276,-384 270,-378 270,-372 270,-372 270,-360 270,-360 270,-354 276,-348 282,-348 282,-348 312,-348 312,-348 318,-348 324,-354 324,-360 324,-360 324,-372 324,-372 324,-378 318,-384 312,-384"/>
<text text-anchor="middle" x="297" y="-361.8" font-family="Comic Sans MS" font-size="14.00">1</text>
</g>
<!-- r2_2c0_2e&#45;&#45;r2_2c0_2e2_3c -->
<g id="edge40" class="edge">
<title>r2_2c0_2e--r2_2c0_2e2_3c</title>
<path fill="none" stroke="black" d="M234.4,-396.1C245.74,-390.56 258.95,-384.1 270.22,-378.6"/>
</g>
<!-- r2_2c1_2f0_0c0_0a -->
<g id="node50" class="node">
<title>r2_2c1_2f0_0c0_0a</title>
<path fill="none" stroke="black" d="M312,-341C312,-341 282,-341 282,-341 276,-341 270,-335 270,-329 270,-329 270,-317 270,-317 270,-311 276,-305 282,-305 282,-305 312,-305 312,-305 318,-305 324,-311 324,-317 324,-317 324,-329 324,-329 324,-335 318,-341 312,-341"/>
<text text-anchor="middle" x="297" y="-318.8" font-family="Comic Sans MS" font-size="14.00">2</text>
</g>
<!-- r2_2c1_2f0_0c&#45;&#45;r2_2c1_2f0_0c0_0a -->
<g id="edge49" class="edge">
<title>r2_2c1_2f0_0c--r2_2c1_2f0_0c0_0a</title>
<path fill="none" stroke="black" d="M233.93,-338.52C245.18,-335.7 258.35,-332.41 269.65,-329.59"/>
</g>
<!-- r2_2c0_2e0_0c0_0a0_1c -->
<g id="node42" class="node">
<title>r2_2c0_2e0_0c0_0a0_1c</title>
<path fill="PaleGreen" stroke="black" stroke-width="0" d="M402,-470C402,-470 372,-470 372,-470 366,-470 360,-464 360,-458 360,-458 360,-446 360,-446 360,-440 366,-434 372,-434 372,-434 402,-434 402,-434 408,-434 414,-440 414,-446 414,-446 414,-458 414,-458 414,-464 408,-470 402,-470"/>
<text text-anchor="middle" x="387" y="-447.8" font-family="Comic Sans MS" font-size="14.00">1</text>
</g>
<!-- r2_2c0_2e0_0c&#45;&#45;r2_2c0_2e0_0c0_0a0_1c -->
<g id="edge41" class="edge">
<title>r2_2c0_2e0_0c--r2_2c0_2e0_0c0_0a0_1c</title>
<path fill="none" stroke="black" d="M323.93,-452C335.38,-452 348.82,-452 360.26,-452"/>
</g>
<!-- r2_2c0_2e1_1c0_1d0_3c -->
<g id="node45" class="node">
<title>r2_2c0_2e1_1c0_1d0_3c</title>
<path fill="Khaki" stroke="black" stroke-width="0" d="M402,-427C402,-427 372,-427 372,-427 366,-427 360,-421 360,-415 360,-415 360,-403 360,-403 360,-397 366,-391 372,-391 372,-391 402,-391 402,-391 408,-391 414,-397 414,-403 414,-403 414,-415 414,-415 414,-421 408,-427 402,-427"/>
<text text-anchor="middle" x="387" y="-404.8" font-family="Comic Sans MS" font-size="14.00">1</text>
</g>
<!-- r2_2c0_2e1_1c&#45;&#45;r2_2c0_2e1_1c0_1d0_3c -->
<g id="edge44" class="edge">
<title>r2_2c0_2e1_1c--r2_2c0_2e1_1c0_1d0_3c</title>
<path fill="none" stroke="black" d="M323.93,-409C335.38,-409 348.82,-409 360.26,-409"/>
</g>
<!-- r2_2c0_2e2_3c0_3g0_0c -->
<g id="node47" class="node">
<title>r2_2c0_2e2_3c0_3g0_0c</title>
<path fill="LightSkyBlue" stroke="black" stroke-width="0" d="M402,-384C402,-384 372,-384 372,-384 366,-384 360,-378 360,-372 360,-372 360,-360 360,-360 360,-354 366,-348 372,-348 372,-348 402,-348 402,-348 408,-348 414,-354 414,-360 414,-360 414,-372 414,-372 414,-378 408,-384 402,-384"/>
<text text-anchor="middle" x="387" y="-361.8" font-family="Comic Sans MS" font-size="14.00">1</text>
</g>
<!-- r2_2c0_2e2_3c&#45;&#45;r2_2c0_2e2_3c0_3g0_0c -->
<g id="edge46" class="edge">
<title>r2_2c0_2e2_3c--r2_2c0_2e2_3c0_3g0_0c</title>
<path fill="none" stroke="black" d="M323.93,-366C335.38,-366 348.82,-366 360.26,-366"/>
</g>
<!-- r2_2c0_2e0_0c0_0a0_1c0_1c0_3c -->
<g id="node43" class="node">
<title>r2_2c0_2e0_0c0_0a0_1c0_1c0_3c</title>
<path fill="Khaki" stroke="black" stroke-width="0" d="M496,-470C496,-470 466,-470 466,-470 460,-470 454,-464 454,-458 454,-458 454,-446 454,-446 454,-440 460,-434 466,-434 466,-434 496,-434 496,-434 502,-434 508,-440 508,-446 508,-446 508,-458 508,-458 508,-464 502,-470 496,-470"/>
<text text-anchor="middle" x="481" y="-447.8" font-family="Comic Sans MS" font-size="14.00">1</text>
</g>
<!-- r2_2c0_2e0_0c0_0a0_1c&#45;&#45;r2_2c0_2e0_0c0_0a0_1c0_1c0_3c -->
<g id="edge42" class="edge">
<title>r2_2c0_2e0_0c0_0a0_1c--r2_2c0_2e0_0c0_0a0_1c0_1c0_3c</title>
<path fill="none" stroke="black" d="M413.63,-452C426.28,-452 441.51,-452 454.19,-452"/>
</g>
<!-- r2_2c0_2e0_0c0_0a0_1c0_1c0_3c0_3h -->
<g id="node44" class="node">
<title>r2_2c0_2e0_0c0_0a0_1c0_1c0_3c0_3h</title>
<path fill="none" stroke="black" d="M594,-470C594,-470 564,-470 564,-470 558,-470 552,-464 552,-458 552,-458 552,-446 552,-446 552,-440 558,-434 564,-434 564,-434 594,-434 594,-434 600,-434 606,-440 606,-446 606,-446 606,-458 606,-458 606,-464 600,-470 594,-470"/>
<text text-anchor="middle" x="579" y="-447.8" font-family="Comic Sans MS" font-size="14.00">1</text>
</g>
<!-- r2_2c0_2e0_0c0_0a0_1c0_1c0_3c&#45;&#45;r2_2c0_2e0_0c0_0a0_1c0_1c0_3c0_3h -->
<g id="edge43" class="edge">
<title>r2_2c0_2e0_0c0_0a0_1c0_1c0_3c--r2_2c0_2e0_0c0_0a0_1c0_1c0_3c0_3h</title>
<path fill="none" stroke="black" d="M507.98,-452C521.53,-452 538.07,-452 551.67,-452"/>
</g>
<!-- r2_2c0_2e1_1c0_1d0_3c0_3h -->
<g id="node46" class="node">
<title>r2_2c0_2e1_1c0_1d0_3c0_3h</title>
<path fill="none" stroke="black" d="M496,-427C496,-427 466,-427 466,-427 460,-427 454,-421 454,-415 454,-415 454,-403 454,-403 454,-397 460,-391 466,-391 466,-391 496,-391 496,-391 502,-391 508,-397 508,-403 508,-403 508,-415 508,-415 508,-421 502,-427 496,-427"/>
<text text-anchor="middle" x="481" y="-404.8" font-family="Comic Sans MS" font-size="14.00">1</text>
</g>
<!-- r2_2c0_2e1_1c0_1d0_3c&#45;&#45;r2_2c0_2e1_1c0_1d0_3c0_3h -->
<g id="edge45" class="edge">
<title>r2_2c0_2e1_1c0_1d0_3c--r2_2c0_2e1_1c0_1d0_3c0_3h</title>
<path fill="none" stroke="black" d="M413.63,-409C426.07,-409 441,-409 453.55,-409"/>
</g>
<!-- r2_2c0_2e2_3c0_3g0_0c0_0a0_1c -->
<g id="node48" class="node">
<title>r2_2c0_2e2_3c0_3g0_0c0_0a0_1c</title>
<path fill="PaleGreen" stroke="black" stroke-width="0" d="M496,-384C496,-384 466,-384 466,-384 460,-384 454,-378 454,-372 454,-372 454,-360 454,-360 454,-354 460,-348 466,-348 466,-348 496,-348 496,-348 502,-348 508,-354 508,-360 508,-360 508,-372 508,-372 508,-378 502,-384 496,-384"/>
<text text-anchor="middle" x="481" y="-361.8" font-family="Comic Sans MS" font-size="14.00">1</text>
</g>
<!-- r2_2c0_2e2_3c0_3g0_0c&#45;&#45;r2_2c0_2e2_3c0_3g0_0c0_0a0_1c -->
<g id="edge47" class="edge">
<title>r2_2c0_2e2_3c0_3g0_0c--r2_2c0_2e2_3c0_3g0_0c0_0a0_1c</title>
<path fill="none" stroke="black" d="M413.63,-366C426.28,-366 441.51,-366 454.19,-366"/>
</g>
<!-- r2_2c0_2e2_3c0_3g0_0c0_0a0_1c0_1d -->
<g id="node49" class="node">
<title>r2_2c0_2e2_3c0_3g0_0c0_0a0_1c0_1d</title>
<path fill="none" stroke="black" d="M594,-384C594,-384 564,-384 564,-384 558,-384 552,-378 552,-372 552,-372 552,-360 552,-360 552,-354 558,-348 564,-348 564,-348 594,-348 594,-348 600,-348 606,-354 606,-360 606,-360 606,-372 606,-372 606,-378 600,-384 594,-384"/>
<text text-anchor="middle" x="579" y="-361.8" font-family="Comic Sans MS" font-size="14.00">1</text>
</g>
<!-- r2_2c0_2e2_3c0_3g0_0c0_0a0_1c&#45;&#45;r2_2c0_2e2_3c0_3g0_0c0_0a0_1c0_1d -->
<g id="edge48" class="edge">
<title>r2_2c0_2e2_3c0_3g0_0c0_0a0_1c--r2_2c0_2e2_3c0_3g0_0c0_0a0_1c0_1d</title>
<path fill="none" stroke="black" d="M507.98,-366C521.53,-366 538.07,-366 551.67,-366"/>
</g>
<!-- r2_2c1_2f0_0c0_0a0_1c -->
<g id="node51" class="node">
<title>r2_2c1_2f0_0c0_0a0_1c</title>
<path fill="PaleGreen" stroke="black" stroke-width="0" d="M402,-341C402,-341 372,-341 372,-341 366,-341 360,-335 360,-329 360,-329 360,-317 360,-317 360,-311 366,-305 372,-305 372,-305 402,-305 402,-305 408,-305 414,-311 414,-317 414,-317 414,-329 414,-329 414,-335 408,-341 402,-341"/>
<text text-anchor="middle" x="387" y="-318.8" font-family="Comic Sans MS" font-size="14.00">1</text>
</g>
<!-- r2_2c1_2f0_0c0_0a&#45;&#45;r2_2c1_2f0_0c0_0a0_1c -->
<g id="edge50" class="edge">
<title>r2_2c1_2f0_0c0_0a--r2_2c1_2f0_0c0_0a0_1c</title>
<path fill="none" stroke="black" d="M324.4,-323C335.74,-323 348.95,-323 360.22,-323"/>
</g>
<!-- r2_2c1_2f0_0c0_0a1_3c -->
<g id="node52" class="node">
<title>r2_2c1_2f0_0c0_0a1_3c</title>
<path fill="Khaki" stroke="black" stroke-width="0" d="M402,-298C402,-298 372,-298 372,-298 366,-298 360,-292 360,-286 360,-286 360,-274 360,-274 360,-268 366,-262 372,-262 372,-262 402,-262 402,-262 408,-262 414,-268 414,-274 414,-274 414,-286 414,-286 414,-292 408,-298 402,-298"/>
<text text-anchor="middle" x="387" y="-275.8" font-family="Comic Sans MS" font-size="14.00">1</text>
</g>
<!-- r2_2c1_2f0_0c0_0a&#45;&#45;r2_2c1_2f0_0c0_0a1_3c -->
<g id="edge51" class="edge">
<title>r2_2c1_2f0_0c0_0a--r2_2c1_2f0_0c0_0a1_3c</title>
<path fill="none" stroke="black" d="M324.4,-310.1C335.74,-304.56 348.95,-298.1 360.22,-292.6"/>
</g>
<!-- r2_2c1_2f0_0c0_0a0_1c0_1d -->
<g id="node53" class="node">
<title>r2_2c1_2f0_0c0_0a0_1c0_1d</title>
<path fill="none" stroke="black" d="M496,-341C496,-341 466,-341 466,-341 460,-341 454,-335 454,-329 454,-329 454,-317 454,-317 454,-311 460,-305 466,-305 466,-305 496,-305 496,-305 502,-305 508,-311 508,-317 508,-317 508,-329 508,-329 508,-335 502,-341 496,-341"/>
<text text-anchor="middle" x="481" y="-318.8" font-family="Comic Sans MS" font-size="14.00">1</text>
</g>
<!-- r2_2c1_2f0_0c0_0a0_1c&#45;&#45;r2_2c1_2f0_0c0_0a0_1c0_1d -->
<g id="edge52" class="edge">
<title>r2_2c1_2f0_0c0_0a0_1c--r2_2c1_2f0_0c0_0a0_1c0_1d</title>
<path fill="none" stroke="black" d="M413.63,-323C426.07,-323 441,-323 453.55,-323"/>
</g>
<!-- r2_2c1_2f0_0c0_0a1_3c0_3g -->
<g id="node54" class="node">
<title>r2_2c1_2f0_0c0_0a1_3c0_3g</title>
<path fill="none" stroke="black" d="M496,-298C496,-298 466,-298 466,-298 460,-298 454,-292 454,-286 454,-286 454,-274 454,-274 454,-268 460,-262 466,-262 466,-262 496,-262 496,-262 502,-262 508,-268 508,-274 508,-274 508,-286 508,-286 508,-292 502,-298 496,-298"/>
<text text-anchor="middle" x="481" y="-275.8" font-family="Comic Sans MS" font-size="14.00">1</text>
</g>
<!-- r2_2c1_2f0_0c0_0a1_3c&#45;&#45;r2_2c1_2f0_0c0_0a1_3c0_3g -->
<g id="edge53" class="edge">
<title>r2_2c1_2f0_0c0_0a1_3c--r2_2c1_2f0_0c0_0a1_3c0_3g</title>
<path fill="none" stroke="black" d="M413.63,-280C426.07,-280 441,-280 453.55,-280"/>
</g>
<!-- r3_3c0_3g0_0c -->
<g id="node57" class="node">
<title>r3_3c0_3g0_0c</title>
<path fill="LightSkyBlue" stroke="black" stroke-width="0" d="M312,-212C312,-212 282,-212 282,-212 276,-212 270,-206 270,-200 270,-200 270,-188 270,-188 270,-182 276,-176 282,-176 282,-176 312,-176 312,-176 318,-176 324,-182 324,-188 324,-188 324,-200 324,-200 324,-206 318,-212 312,-212"/>
<text text-anchor="middle" x="297" y="-189.8" font-family="Comic Sans MS" font-size="14.00">3</text>
</g>
<!-- r3_3c0_3g&#45;&#45;r3_3c0_3g0_0c -->
<g id="edge56" class="edge">
<title>r3_3c0_3g--r3_3c0_3g0_0c</title>
<path fill="none" stroke="black" d="M234.4,-179.3C245.74,-182.01 258.95,-185.16 270.22,-187.85"/>
</g>
<!-- r3_3c0_3g1_2c -->
<g id="node58" class="node">
<title>r3_3c0_3g1_2c</title>
<path fill="LightSalmon" stroke="black" stroke-width="0" d="M312,-169C312,-169 282,-169 282,-169 276,-169 270,-163 270,-157 270,-157 270,-145 270,-145 270,-139 276,-133 282,-133 282,-133 312,-133 312,-133 318,-133 324,-139 324,-145 324,-145 324,-157 324,-157 324,-163 318,-169 312,-169"/>
<text text-anchor="middle" x="297" y="-146.8" font-family="Comic Sans MS" font-size="14.00">1</text>
</g>
<!-- r3_3c0_3g&#45;&#45;r3_3c0_3g1_2c -->
<g id="edge57" class="edge">
<title>r3_3c0_3g--r3_3c0_3g1_2c</title>
<path fill="none" stroke="black" d="M234.4,-166.4C245.74,-163.56 258.95,-160.26 270.22,-157.44"/>
</g>
<!-- r3_3c1_3h0_0c -->
<g id="node68" class="node">
<title>r3_3c1_3h0_0c</title>
<path fill="LightSkyBlue" stroke="black" stroke-width="0" d="M312,-120C312,-120 282,-120 282,-120 276,-120 270,-114 270,-108 270,-108 270,-96 270,-96 270,-90 276,-84 282,-84 282,-84 312,-84 312,-84 318,-84 324,-90 324,-96 324,-96 324,-108 324,-108 324,-114 318,-120 312,-120"/>
<text text-anchor="middle" x="297" y="-97.8" font-family="Comic Sans MS" font-size="14.00">4</text>
</g>
<!-- r3_3c1_3h&#45;&#45;r3_3c1_3h0_0c -->
<g id="edge67" class="edge">
<title>r3_3c1_3h--r3_3c1_3h0_0c</title>
<path fill="none" stroke="black" d="M234.4,-102C245.74,-102 258.95,-102 270.22,-102"/>
</g>
<!-- r3_3c1_3h1_2c -->
<g id="node69" class="node">
<title>r3_3c1_3h1_2c</title>
<path fill="LightSalmon" stroke="black" stroke-width="0" d="M312,-66C312,-66 282,-66 282,-66 276,-66 270,-60 270,-54 270,-54 270,-42 270,-42 270,-36 276,-30 282,-30 282,-30 312,-30 312,-30 318,-30 324,-36 324,-42 324,-42 324,-54 324,-54 324,-60 318,-66 312,-66"/>
<text text-anchor="middle" x="297" y="-43.8" font-family="Comic Sans MS" font-size="14.00">1</text>
</g>
<!-- r3_3c1_3h&#45;&#45;r3_3c1_3h1_2c -->
<g id="edge68" class="edge">
<title>r3_3c1_3h--r3_3c1_3h1_2c</title>
<path fill="none" stroke="black" d="M234.4,-85.8C245.74,-78.84 258.95,-70.73 270.22,-63.82"/>
</g>
<!-- r3_3c0_3g0_0c0_0a -->
<g id="node59" class="node">
<title>r3_3c0_3g0_0c0_0a</title>
<path fill="none" stroke="black" d="M402,-212C402,-212 372,-212 372,-212 366,-212 360,-206 360,-200 360,-200 360,-188 360,-188 360,-182 366,-176 372,-176 372,-176 402,-176 402,-176 408,-176 414,-182 414,-188 414,-188 414,-200 414,-200 414,-206 408,-212 402,-212"/>
<text text-anchor="middle" x="387" y="-189.8" font-family="Comic Sans MS" font-size="14.00">3</text>
</g>
<!-- r3_3c0_3g0_0c&#45;&#45;r3_3c0_3g0_0c0_0a -->
<g id="edge58" class="edge">
<title>r3_3c0_3g0_0c--r3_3c0_3g0_0c0_0a</title>
<path fill="none" stroke="black" d="M323.93,-194C335.18,-194 348.35,-194 359.65,-194"/>
</g>
<!-- r3_3c0_3g1_2c0_2e0_1c -->
<g id="node66" class="node">
<title>r3_3c0_3g1_2c0_2e0_1c</title>
<path fill="PaleGreen" stroke="black" stroke-width="0" d="M402,-169C402,-169 372,-169 372,-169 366,-169 360,-163 360,-157 360,-157 360,-145 360,-145 360,-139 366,-133 372,-133 372,-133 402,-133 402,-133 408,-133 414,-139 414,-145 414,-145 414,-157 414,-157 414,-163 408,-169 402,-169"/>
<text text-anchor="middle" x="387" y="-146.8" font-family="Comic Sans MS" font-size="14.00">1</text>
</g>
<!-- r3_3c0_3g1_2c&#45;&#45;r3_3c0_3g1_2c0_2e0_1c -->
<g id="edge65" class="edge">
<title>r3_3c0_3g1_2c--r3_3c0_3g1_2c0_2e0_1c</title>
<path fill="none" stroke="black" d="M323.93,-151C335.38,-151 348.82,-151 360.26,-151"/>
</g>
<!-- r3_3c0_3g0_0c0_0a0_1c -->
<g id="node60" class="node">
<title>r3_3c0_3g0_0c0_0a0_1c</title>
<path fill="PaleGreen" stroke="black" stroke-width="0" d="M496,-255C496,-255 466,-255 466,-255 460,-255 454,-249 454,-243 454,-243 454,-231 454,-231 454,-225 460,-219 466,-219 466,-219 496,-219 496,-219 502,-219 508,-225 508,-231 508,-231 508,-243 508,-243 508,-249 502,-255 496,-255"/>
<text text-anchor="middle" x="481" y="-232.8" font-family="Comic Sans MS" font-size="14.00">1</text>
</g>
<!-- r3_3c0_3g0_0c0_0a&#45;&#45;r3_3c0_3g0_0c0_0a0_1c -->
<g id="edge59" class="edge">
<title>r3_3c0_3g0_0c0_0a--r3_3c0_3g0_0c0_0a0_1c</title>
<path fill="none" stroke="black" d="M414.12,-206.21C426.65,-212.07 441.63,-219.07 454.14,-224.91"/>
</g>
<!-- r3_3c0_3g0_0c0_0a1_2c -->
<g id="node61" class="node">
<title>r3_3c0_3g0_0c0_0a1_2c</title>
<path fill="LightSalmon" stroke="black" stroke-width="0" d="M496,-212C496,-212 466,-212 466,-212 460,-212 454,-206 454,-200 454,-200 454,-188 454,-188 454,-182 460,-176 466,-176 466,-176 496,-176 496,-176 502,-176 508,-182 508,-188 508,-188 508,-200 508,-200 508,-206 502,-212 496,-212"/>
<text text-anchor="middle" x="481" y="-189.8" font-family="Comic Sans MS" font-size="14.00">2</text>
</g>
<!-- r3_3c0_3g0_0c0_0a&#45;&#45;r3_3c0_3g0_0c0_0a1_2c -->
<g id="edge60" class="edge">
<title>r3_3c0_3g0_0c0_0a--r3_3c0_3g0_0c0_0a1_2c</title>
<path fill="none" stroke="black" d="M414.12,-194C426.65,-194 441.63,-194 454.14,-194"/>
</g>
<!-- r3_3c0_3g0_0c0_0a0_1c0_1d -->
<g id="node62" class="node">
<title>r3_3c0_3g0_0c0_0a0_1c0_1d</title>
<path fill="none" stroke="black" d="M594,-257C594,-257 564,-257 564,-257 558,-257 552,-251 552,-245 552,-245 552,-233 552,-233 552,-227 558,-221 564,-221 564,-221 594,-221 594,-221 600,-221 606,-227 606,-233 606,-233 606,-245 606,-245 606,-251 600,-257 594,-257"/>
<text text-anchor="middle" x="579" y="-234.8" font-family="Comic Sans MS" font-size="14.00">1</text>
</g>
<!-- r3_3c0_3g0_0c0_0a0_1c&#45;&#45;r3_3c0_3g0_0c0_0a0_1c0_1d -->
<g id="edge61" class="edge">
<title>r3_3c0_3g0_0c0_0a0_1c--r3_3c0_3g0_0c0_0a0_1c0_1d</title>
<path fill="none" stroke="black" d="M507.98,-237.54C521.53,-237.82 538.07,-238.17 551.67,-238.45"/>
</g>
<!-- r3_3c0_3g0_0c0_0a1_2c0_2e -->
<g id="node63" class="node">
<title>r3_3c0_3g0_0c0_0a1_2c0_2e</title>
<path fill="none" stroke="black" d="M594,-210C594,-210 564,-210 564,-210 558,-210 552,-204 552,-198 552,-198 552,-186 552,-186 552,-180 558,-174 564,-174 564,-174 594,-174 594,-174 600,-174 606,-180 606,-186 606,-186 606,-198 606,-198 606,-204 600,-210 594,-210"/>
<path fill="none" stroke="black" d="M598,-214C598,-214 560,-214 560,-214 554,-214 548,-208 548,-202 548,-202 548,-182 548,-182 548,-176 554,-170 560,-170 560,-170 598,-170 598,-170 604,-170 610,-176 610,-182 610,-182 610,-202 610,-202 610,-208 604,-214 598,-214"/>
<text text-anchor="middle" x="579" y="-187.8" font-family="Comic Sans MS" font-size="14.00">2</text>
</g>
<!-- r3_3c0_3g0_0c0_0a1_2c&#45;&#45;r3_3c0_3g0_0c0_0a1_2c0_2e -->
<g id="edge62" class="edge">
<title>r3_3c0_3g0_0c0_0a1_2c--r3_3c0_3g0_0c0_0a1_2c0_2e</title>
<path fill="none" stroke="black" d="M507.98,-193.46C520.2,-193.2 534.84,-192.9 547.57,-192.63"/>
</g>
<!-- r3_3c0_3g0_0c0_0a1_2c0_2e0_1c -->
<g id="node64" class="node">
<title>r3_3c0_3g0_0c0_0a1_2c0_2e0_1c</title>
<path fill="PaleGreen" stroke="black" stroke-width="0" d="M688,-210C688,-210 658,-210 658,-210 652,-210 646,-204 646,-198 646,-198 646,-186 646,-186 646,-180 652,-174 658,-174 658,-174 688,-174 688,-174 694,-174 700,-180 700,-186 700,-186 700,-198 700,-198 700,-204 694,-210 688,-210"/>
<text text-anchor="middle" x="673" y="-187.8" font-family="Comic Sans MS" font-size="14.00">1</text>
</g>
<!-- r3_3c0_3g0_0c0_0a1_2c0_2e&#45;&#45;r3_3c0_3g0_0c0_0a1_2c0_2e0_1c -->
<g id="edge63" class="edge">
<title>r3_3c0_3g0_0c0_0a1_2c0_2e--r3_3c0_3g0_0c0_0a1_2c0_2e0_1c</title>
<path fill="none" stroke="black" d="M610.38,-192C622,-192 635.13,-192 646.27,-192"/>
</g>
<!-- r3_3c0_3g0_0c0_0a1_2c0_2e0_1c0_1d -->
<g id="node65" class="node">
<title>r3_3c0_3g0_0c0_0a1_2c0_2e0_1c0_1d</title>
<path fill="none" stroke="black" d="M778,-210C778,-210 748,-210 748,-210 742,-210 736,-204 736,-198 736,-198 736,-186 736,-186 736,-180 742,-174 748,-174 748,-174 778,-174 778,-174 784,-174 790,-180 790,-186 790,-186 790,-198 790,-198 790,-204 784,-210 778,-210"/>
<text text-anchor="middle" x="763" y="-187.8" font-family="Comic Sans MS" font-size="14.00">1</text>
</g>
<!-- r3_3c0_3g0_0c0_0a1_2c0_2e0_1c&#45;&#45;r3_3c0_3g0_0c0_0a1_2c0_2e0_1c0_1d -->
<g id="edge64" class="edge">
<title>r3_3c0_3g0_0c0_0a1_2c0_2e0_1c--r3_3c0_3g0_0c0_0a1_2c0_2e0_1c0_1d</title>
<path fill="none" stroke="black" d="M699.93,-192C711.18,-192 724.35,-192 735.65,-192"/>
</g>
<!-- r3_3c0_3g1_2c0_2e0_1c0_1d -->
<g id="node67" class="node">
<title>r3_3c0_3g1_2c0_2e0_1c0_1d</title>
<path fill="none" stroke="black" d="M496,-169C496,-169 466,-169 466,-169 460,-169 454,-163 454,-157 454,-157 454,-145 454,-145 454,-139 460,-133 466,-133 466,-133 496,-133 496,-133 502,-133 508,-139 508,-145 508,-145 508,-157 508,-157 508,-163 502,-169 496,-169"/>
<text text-anchor="middle" x="481" y="-146.8" font-family="Comic Sans MS" font-size="14.00">1</text>
</g>
<!-- r3_3c0_3g1_2c0_2e0_1c&#45;&#45;r3_3c0_3g1_2c0_2e0_1c0_1d -->
<g id="edge66" class="edge">
<title>r3_3c0_3g1_2c0_2e0_1c--r3_3c0_3g1_2c0_2e0_1c0_1d</title>
<path fill="none" stroke="black" d="M413.63,-151C426.07,-151 441,-151 453.55,-151"/>
</g>
<!-- r3_3c1_3h0_0c0_0a -->
<g id="node70" class="node">
<title>r3_3c1_3h0_0c0_0a</title>
<path fill="none" stroke="black" d="M402,-120C402,-120 372,-120 372,-120 366,-120 360,-114 360,-108 360,-108 360,-96 360,-96 360,-90 366,-84 372,-84 372,-84 402,-84 402,-84 408,-84 414,-90 414,-96 414,-96 414,-108 414,-108 414,-114 408,-120 402,-120"/>
<text text-anchor="middle" x="387" y="-97.8" font-family="Comic Sans MS" font-size="14.00">4</text>
</g>
<!-- r3_3c1_3h0_0c&#45;&#45;r3_3c1_3h0_0c0_0a -->
<g id="edge69" class="edge">
<title>r3_3c1_3h0_0c--r3_3c1_3h0_0c0_0a</title>
<path fill="none" stroke="black" d="M323.93,-102C335.18,-102 348.35,-102 359.65,-102"/>
</g>
<!-- r3_3c1_3h1_2c0_2e0_0c -->
<g id="node79" class="node">
<title>r3_3c1_3h1_2c0_2e0_0c</title>
<path fill="LightSkyBlue" stroke="black" stroke-width="0" d="M402,-45C402,-45 372,-45 372,-45 366,-45 360,-39 360,-33 360,-33 360,-21 360,-21 360,-15 366,-9 372,-9 372,-9 402,-9 402,-9 408,-9 414,-15 414,-21 414,-21 414,-33 414,-33 414,-39 408,-45 402,-45"/>
<text text-anchor="middle" x="387" y="-22.8" font-family="Comic Sans MS" font-size="14.00">1</text>
</g>
<!-- r3_3c1_3h1_2c&#45;&#45;r3_3c1_3h1_2c0_2e0_0c -->
<g id="edge78" class="edge">
<title>r3_3c1_3h1_2c--r3_3c1_3h1_2c0_2e0_0c</title>
<path fill="none" stroke="black" d="M323.93,-41.81C335.38,-39.08 348.82,-35.87 360.26,-33.14"/>
</g>
<!-- r3_3c1_3h0_0c0_0a0_1c -->
<g id="node71" class="node">
<title>r3_3c1_3h0_0c0_0a0_1c</title>
<path fill="PaleGreen" stroke="black" stroke-width="0" d="M496,-126C496,-126 466,-126 466,-126 460,-126 454,-120 454,-114 454,-114 454,-102 454,-102 454,-96 460,-90 466,-90 466,-90 496,-90 496,-90 502,-90 508,-96 508,-102 508,-102 508,-114 508,-114 508,-120 502,-126 496,-126"/>
<text text-anchor="middle" x="481" y="-103.8" font-family="Comic Sans MS" font-size="14.00">2</text>
</g>
<!-- r3_3c1_3h0_0c0_0a&#45;&#45;r3_3c1_3h0_0c0_0a0_1c -->
<g id="edge70" class="edge">
<title>r3_3c1_3h0_0c0_0a--r3_3c1_3h0_0c0_0a0_1c</title>
<path fill="none" stroke="black" d="M414.12,-103.7C426.65,-104.52 441.63,-105.5 454.14,-106.31"/>
</g>
<!-- r3_3c1_3h0_0c0_0a1_2c -->
<g id="node72" class="node">
<title>r3_3c1_3h0_0c0_0a1_2c</title>
<path fill="LightSalmon" stroke="black" stroke-width="0" d="M496,-83C496,-83 466,-83 466,-83 460,-83 454,-77 454,-71 454,-71 454,-59 454,-59 454,-53 460,-47 466,-47 466,-47 496,-47 496,-47 502,-47 508,-53 508,-59 508,-59 508,-71 508,-71 508,-77 502,-83 496,-83"/>
<text text-anchor="middle" x="481" y="-60.8" font-family="Comic Sans MS" font-size="14.00">2</text>
</g>
<!-- r3_3c1_3h0_0c0_0a&#45;&#45;r3_3c1_3h0_0c0_0a1_2c -->
<g id="edge71" class="edge">
<title>r3_3c1_3h0_0c0_0a--r3_3c1_3h0_0c0_0a1_2c</title>
<path fill="none" stroke="black" d="M414.12,-91.5C426.65,-86.45 441.63,-80.43 454.14,-75.4"/>
</g>
<!-- r3_3c1_3h0_0c0_0a0_1c0_1d -->
<g id="node73" class="node">
<title>r3_3c1_3h0_0c0_0a0_1c0_1d</title>
<path fill="none" stroke="black" d="M594,-134C594,-134 564,-134 564,-134 558,-134 552,-128 552,-122 552,-122 552,-110 552,-110 552,-104 558,-98 564,-98 564,-98 594,-98 594,-98 600,-98 606,-104 606,-110 606,-110 606,-122 606,-122 606,-128 600,-134 594,-134"/>
<path fill="none" stroke="black" d="M598,-138C598,-138 560,-138 560,-138 554,-138 548,-132 548,-126 548,-126 548,-106 548,-106 548,-100 554,-94 560,-94 560,-94 598,-94 598,-94 604,-94 610,-100 610,-106 610,-106 610,-126 610,-126 610,-132 604,-138 598,-138"/>
<text text-anchor="middle" x="579" y="-111.8" font-family="Comic Sans MS" font-size="14.00">2</text>
</g>
<!-- r3_3c1_3h0_0c0_0a0_1c&#45;&#45;r3_3c1_3h0_0c0_0a0_1c0_1d -->
<g id="edge72" class="edge">
<title>r3_3c1_3h0_0c0_0a0_1c--r3_3c1_3h0_0c0_0a0_1c0_1d</title>
<path fill="none" stroke="black" d="M507.98,-110.16C520.2,-111.18 534.84,-112.4 547.57,-113.46"/>
</g>
<!-- r3_3c1_3h0_0c0_0a1_2c0_2e -->
<g id="node76" class="node">
<title>r3_3c1_3h0_0c0_0a1_2c0_2e</title>
<path fill="none" stroke="black" d="M594,-83C594,-83 564,-83 564,-83 558,-83 552,-77 552,-71 552,-71 552,-59 552,-59 552,-53 558,-47 564,-47 564,-47 594,-47 594,-47 600,-47 606,-53 606,-59 606,-59 606,-71 606,-71 606,-77 600,-83 594,-83"/>
<path fill="none" stroke="black" d="M598,-87C598,-87 560,-87 560,-87 554,-87 548,-81 548,-75 548,-75 548,-55 548,-55 548,-49 554,-43 560,-43 560,-43 598,-43 598,-43 604,-43 610,-49 610,-55 610,-55 610,-75 610,-75 610,-81 604,-87 598,-87"/>
<text text-anchor="middle" x="579" y="-60.8" font-family="Comic Sans MS" font-size="14.00">2</text>
</g>
<!-- r3_3c1_3h0_0c0_0a1_2c&#45;&#45;r3_3c1_3h0_0c0_0a1_2c0_2e -->
<g id="edge75" class="edge">
<title>r3_3c1_3h0_0c0_0a1_2c--r3_3c1_3h0_0c0_0a1_2c0_2e</title>
<path fill="none" stroke="black" d="M507.98,-65C520.2,-65 534.84,-65 547.57,-65"/>
</g>
<!-- r3_3c1_3h0_0c0_0a0_1c0_1d0_2c -->
<g id="node74" class="node">
<title>r3_3c1_3h0_0c0_0a0_1c0_1d0_2c</title>
<path fill="LightSalmon" stroke="black" stroke-width="0" d="M688,-134C688,-134 658,-134 658,-134 652,-134 646,-128 646,-122 646,-122 646,-110 646,-110 646,-104 652,-98 658,-98 658,-98 688,-98 688,-98 694,-98 700,-104 700,-110 700,-110 700,-122 700,-122 700,-128 694,-134 688,-134"/>
<text text-anchor="middle" x="673" y="-111.8" font-family="Comic Sans MS" font-size="14.00">1</text>
</g>
<!-- r3_3c1_3h0_0c0_0a0_1c0_1d&#45;&#45;r3_3c1_3h0_0c0_0a0_1c0_1d0_2c -->
<g id="edge73" class="edge">
<title>r3_3c1_3h0_0c0_0a0_1c0_1d--r3_3c1_3h0_0c0_0a0_1c0_1d0_2c</title>
<path fill="none" stroke="black" d="M610.38,-116C622,-116 635.13,-116 646.27,-116"/>
</g>
<!-- r3_3c1_3h0_0c0_0a0_1c0_1d0_2c0_2e -->
<g id="node75" class="node">
<title>r3_3c1_3h0_0c0_0a0_1c0_1d0_2c0_2e</title>
<path fill="none" stroke="black" d="M778,-134C778,-134 748,-134 748,-134 742,-134 736,-128 736,-122 736,-122 736,-110 736,-110 736,-104 742,-98 748,-98 748,-98 778,-98 778,-98 784,-98 790,-104 790,-110 790,-110 790,-122 790,-122 790,-128 784,-134 778,-134"/>
<text text-anchor="middle" x="763" y="-111.8" font-family="Comic Sans MS" font-size="14.00">1</text>
</g>
<!-- r3_3c1_3h0_0c0_0a0_1c0_1d0_2c&#45;&#45;r3_3c1_3h0_0c0_0a0_1c0_1d0_2c0_2e -->
<g id="edge74" class="edge">
<title>r3_3c1_3h0_0c0_0a0_1c0_1d0_2c--r3_3c1_3h0_0c0_0a0_1c0_1d0_2c0_2e</title>
<path fill="none" stroke="black" d="M699.93,-116C711.18,-116 724.35,-116 735.65,-116"/>
</g>
<!-- r3_3c1_3h0_0c0_0a1_2c0_2e0_1c -->
<g id="node77" class="node">
<title>r3_3c1_3h0_0c0_0a1_2c0_2e0_1c</title>
<path fill="PaleGreen" stroke="black" stroke-width="0" d="M688,-83C688,-83 658,-83 658,-83 652,-83 646,-77 646,-71 646,-71 646,-59 646,-59 646,-53 652,-47 658,-47 658,-47 688,-47 688,-47 694,-47 700,-53 700,-59 700,-59 700,-71 700,-71 700,-77 694,-83 688,-83"/>
<text text-anchor="middle" x="673" y="-60.8" font-family="Comic Sans MS" font-size="14.00">1</text>
</g>
<!-- r3_3c1_3h0_0c0_0a1_2c0_2e&#45;&#45;r3_3c1_3h0_0c0_0a1_2c0_2e0_1c -->
<g id="edge76" class="edge">
<title>r3_3c1_3h0_0c0_0a1_2c0_2e--r3_3c1_3h0_0c0_0a1_2c0_2e0_1c</title>
<path fill="none" stroke="black" d="M610.38,-65C622,-65 635.13,-65 646.27,-65"/>
</g>
<!-- r3_3c1_3h0_0c0_0a1_2c0_2e0_1c0_1d -->
<g id="node78" class="node">
<title>r3_3c1_3h0_0c0_0a1_2c0_2e0_1c0_1d</title>
<path fill="none" stroke="black" d="M778,-83C778,-83 748,-83 748,-83 742,-83 736,-77 736,-71 736,-71 736,-59 736,-59 736,-53 742,-47 748,-47 748,-47 778,-47 778,-47 784,-47 790,-53 790,-59 790,-59 790,-71 790,-71 790,-77 784,-83 778,-83"/>
<text text-anchor="middle" x="763" y="-60.8" font-family="Comic Sans MS" font-size="14.00">1</text>
</g>
<!-- r3_3c1_3h0_0c0_0a1_2c0_2e0_1c&#45;&#45;r3_3c1_3h0_0c0_0a1_2c0_2e0_1c0_1d -->
<g id="edge77" class="edge">
<title>r3_3c1_3h0_0c0_0a1_2c0_2e0_1c--r3_3c1_3h0_0c0_0a1_2c0_2e0_1c0_1d</title>
<path fill="none" stroke="black" d="M699.93,-65C711.18,-65 724.35,-65 735.65,-65"/>
</g>
<!-- r3_3c1_3h1_2c0_2e0_0c0_0a0_1c -->
<g id="node80" class="node">
<title>r3_3c1_3h1_2c0_2e0_0c0_0a0_1c</title>
<path fill="PaleGreen" stroke="black" stroke-width="0" d="M496,-38C496,-38 466,-38 466,-38 460,-38 454,-32 454,-26 454,-26 454,-14 454,-14 454,-8 460,-2 466,-2 466,-2 496,-2 496,-2 502,-2 508,-8 508,-14 508,-14 508,-26 508,-26 508,-32 502,-38 496,-38"/>
<text text-anchor="middle" x="481" y="-15.8" font-family="Comic Sans MS" font-size="14.00">1</text>
</g>
<!-- r3_3c1_3h1_2c0_2e0_0c&#45;&#45;r3_3c1_3h1_2c0_2e0_0c0_0a0_1c -->
<g id="edge79" class="edge">
<title>r3_3c1_3h1_2c0_2e0_0c--r3_3c1_3h1_2c0_2e0_0c0_0a0_1c</title>
<path fill="none" stroke="black" d="M413.63,-25.05C426.28,-24.09 441.51,-22.93 454.19,-21.96"/>
</g>
<!-- r3_3c1_3h1_2c0_2e0_0c0_0a0_1c0_1d -->
<g id="node81" class="node">
<title>r3_3c1_3h1_2c0_2e0_0c0_0a0_1c0_1d</title>
<path fill="none" stroke="black" d="M594,-36C594,-36 564,-36 564,-36 558,-36 552,-30 552,-24 552,-24 552,-12 552,-12 552,-6 558,0 564,0 564,0 594,0 594,0 600,0 606,-6 606,-12 606,-12 606,-24 606,-24 606,-30 600,-36 594,-36"/>
<text text-anchor="middle" x="579" y="-13.8" font-family="Comic Sans MS" font-size="14.00">1</text>
</g>
<!-- r3_3c1_3h1_2c0_2e0_0c0_0a0_1c&#45;&#45;r3_3c1_3h1_2c0_2e0_0c0_0a0_1c0_1d -->
<g id="edge80" class="edge">
<title>r3_3c1_3h1_2c0_2e0_0c0_0a0_1c--r3_3c1_3h1_2c0_2e0_0c0_0a0_1c0_1d</title>
<path fill="none" stroke="black" d="M507.98,-19.46C521.53,-19.18 538.07,-18.83 551.67,-18.55"/>
</g>
</g>
</svg>