<svg xmlns="http://www.w3.org/2000/svg" xmlns:xlink="http://www.w3.org/1999/xlink" width="422pt" height="431pt" viewBox="0.00 0.00 422.00 431.00">
<g id="graph0" class="graph" transform="scale(1 1) rotate(0) translate(4 427)">
<polygon fill="white" stroke="none" points="-4,4 -4,-427 418,-427 418,4 -4,4"/>
<!-- _3c -->
<g id="node1" class="node">
<title>_3c</title>
<path fill="Khaki" stroke="black" stroke-width="0" d="M42,-187C42,-187 12,-187 12,-187 6,-187 0,-181 0,-175 0,-175 0,-163 0,-163 0,-157 6,-151 12,-151 12,-151 42,-151 42,-151 48,-151 54,-157 54,-163 54,-163 54,-175 54,-175 54,-181 48,-187 42,-187"/>
<text text-anchor="middle" x="27" y="-164.8" font-family="Comic Sans MS" font-size="14.00">8</text>
</g>
<!-- _3c0_2c -->
<g id="node2" class="node">
<title>_3c0_2c</title>
<path fill="LightSalmon" stroke="black" stroke-width="0" d="M132,-230C132,-230 102,-230 102,-230 96,-230 90,-224 90,-218 90,-218 90,-206 90,-206 90,-200 96,-194 102,-194 102,-194 132,-194 132,-194 138,-194 144,-200 144,-206 144,-206 144,-218 144,-218 144,-224 138,-230 132,-230"/>
<text text-anchor="middle" x="117" y="-207.8" font-family="Comic Sans MS" font-size="14.00">8</text>
</g>
<!-- _3c&#45;&#45;_3c0_2c -->
<g id="edge1" class="edge">
<title>_3c--_3c0_2c</title>
<path fill="none" stroke="black" d="M53.93,-181.67C65.38,-187.27 78.82,-193.83 90.26,-199.42"/>
</g>
<!-- _3c1_2c -->
<g id="node3" class="node">
<title>_3c1_2c</title>
<path fill="LightSalmon" stroke="black" stroke-width="0" d="M132,-144C132,-144 102,-144 102,-144 96,-144 90,-138 90,-132 90,-132 90,-120 90,-120 90,-114 96,-108 102,-108 102,-108 132,-108 132,-108 138,-108 144,-114 144,-120 144,-120 144,-132 144,-132 144,-138 138,-144 132,-144"/>
<text text-anchor="middle" x="117" y="-121.8" font-family="Comic Sans MS" font-size="14.00">7</text>
</g>
<!-- _3c&#45;&#45;_3c1_2c -->
<g id="edge2" class="edge">
<title>_3c--_3c1_2c</title>
<path fill="none" stroke="black" d="M53.93,-156.33C65.38,-150.73 78.82,-144.17 90.26,-138.58"/>
</g>
<!-- _3c0_2c0_1c -->
<g id="node4" class="node">
<title>_3c0_2c0_1c</title>
<path fill="PaleGreen" stroke="black" stroke-width="0" d="M222,-294C222,-294 192,-294 192,-294 186,-294 180,-288 180,-282 180,-282 180,-270 180,-270 180,-264 186,-258 192,-258 192,-258 222,-258 222,-258 228,-258 234,-264 234,-270 234,-270 234,-282 234,-282 234,-288 228,-294 222,-294"/>
<text text-anchor="middle" x="207" y="-271.8" font-family="Comic Sans MS" font-size="14.00">8</text>
</g>
<!-- _3c0_2c&#45;&#45;_3c0_2c0_1c -->
<g id="edge3" class="edge">
<title>_3c0_2c--_3c0_2c0_1c</title>
<path fill="none" stroke="black" d="M142.51,-229.83C154.62,-238.63 169.19,-249.23 181.31,-258.05"/>
</g>
<!-- _3c0_2c1_1c -->
<g id="node5" class="node">
<title>_3c0_2c1_1c</title>
<path fill="PaleGreen" stroke="black" stroke-width="0" d="M222,-230C222,-230 192,-230 192,-230 186,-230 180,-224 180,-218 180,-218 180,-206 180,-206 180,-200 186,-194 192,-194 192,-194 222,-194 222,-194 228,-194 234,-200 234,-206 234,-206 234,-218 234,-218 234,-224 228,-230 222,-230"/>
<text text-anchor="middle" x="207" y="-207.8" font-family="Comic Sans MS" font-size="14.00">4</text>
</g>
<!-- _3c0_2c&#45;&#45;_3c0_2c1_1c -->
<g id="edge4" class="edge">
<title>_3c0_2c--_3c0_2c1_1c</title>
<path fill="none" stroke="black" d="M143.93,-212C155.38,-212 168.82,-212 180.26,-212"/>
</g>
<!-- _3c1_2c0_1c -->
<g id="node16" class="node">
<title>_3c1_2c0_1c</title>
<path fill="PaleGreen" stroke="black" stroke-width="0" d="M222,-144C222,-144 192,-144 192,-144 186,-144 180,-138 180,-132 180,-132 180,-120 180,-120 180,-114 186,-108 192,-108 192,-108 222,-108 222,-108 228,-108 234,-114 234,-120 234,-120 234,-132 234,-132 234,-138 228,-144 222,-144"/>
<text text-anchor="middle" x="207" y="-121.8" font-family="Comic Sans MS" font-size="14.00">7</text>
</g>
<!-- _3c1_2c&#45;&#45;_3c1_2c0_1c -->
<g id="edge15" class="edge">
<title>_3c1_2c--_3c1_2c0_1c</title>
<path fill="none" stroke="black" d="M143.93,-126C155.38,-126 168.82,-126 180.26,-126"/>
</g>
<!-- _3c1_2c1_1c -->
<g id="node17" class="node">
<title>_3c1_2c1_1c</title>
<path fill="PaleGreen" stroke="black" stroke-width="0" d="M222,-80C222,-80 192,-80 192,-80 186,-80 180,-74 180,-68 180,-68 180,-56 180,-56 180,-50 186,-44 192,-44 192,-44 222,-44 222,-44 228,-44 234,-50 234,-56 234,-56 234,-68 234,-68 234,-74 228,-80 222,-80"/>
<text text-anchor="middle" x="207" y="-57.8" font-family="Comic Sans MS" font-size="14.00">3</text>
</g>
<!-- _3c1_2c&#45;&#45;_3c1_2c1_1c -->
<g id="edge16" class="edge">
<title>_3c1_2c--_3c1_2c1_1c</title>
<path fill="none" stroke="black" d="M142.51,-108.17C154.62,-99.37 169.19,-88.77 181.31,-79.95"/>
</g>
<!-- _3c0_2c0_1c0_0c -->
<g id="node6" class="node">
<title>_3c0_2c0_1c0_0c</title>
<path fill="LightSkyBlue" stroke="black" stroke-width="0" d="M312,-380C312,-380 282,-380 282,-380 276,-380 270,-374 270,-368 270,-368 270,-356 270,-356 270,-350 276,-344 282,-344 282,-344 312,-344 312,-344 318,-344 324,-350 324,-356 324,-356 324,-368 324,-368 324,-374 318,-380 312,-380"/>
<text text-anchor="middle" x="297" y="-357.8" font-family="Comic Sans MS" font-size="14.00">4</text>
</g>
<!-- _3c0_2c0_1c&#45;&#45;_3c0_2c0_1c0_0c -->
<g id="edge5" class="edge">
<title>_3c0_2c0_1c--_3c0_2c0_1c0_0c</title>
<path fill="none" stroke="black" d="M226.23,-293.82C241.34,-308.58 262.69,-329.45 277.79,-344.2"/>
</g>
<!-- _3c0_2c0_1c1_0c -->
<g id="node7" class="node">
<title>_3c0_2c0_1c1_0c</title>
<path fill="LightSkyBlue" stroke="black" stroke-width="0" d="M312,-294C312,-294 282,-294 282,-294 276,-294 270,-288 270,-282 270,-282 270,-270 270,-270 270,-264 276,-258 282,-258 282,-258 312,-258 312,-258 318,-258 324,-264 324,-270 324,-270 324,-282 324,-282 324,-288 318,-294 312,-294"/>
<text text-anchor="middle" x="297" y="-271.8" font-family="Comic Sans MS" font-size="14.00">8</text>
</g>
<!-- _3c0_2c0_1c&#45;&#45;_3c0_2c0_1c1_0c -->
<g id="edge6" class="edge">
<title>_3c0_2c0_1c--_3c0_2c0_1c1_0c</title>
<path fill="none" stroke="black" d="M233.93,-276C245.38,-276 258.82,-276 270.26,-276"/>
</g>
<!-- _3c0_2c1_1c0_0c -->
<g id="node12" class="node">
<title>_3c0_2c1_1c0_0c</title>
<path fill="LightSkyBlue" stroke="black" stroke-width="0" d="M312,-251C312,-251 282,-251 282,-251 276,-251 270,-245 270,-239 270,-239 270,-227 270,-227 270,-221 276,-215 282,-215 282,-215 312,-215 312,-215 318,-215 324,-221 324,-227 324,-227 324,-239 324,-239 324,-245 318,-251 312,-251"/>
<text text-anchor="middle" x="297" y="-228.8" font-family="Comic Sans MS" font-size="14.00">1</text>
</g>
<!-- _3c0_2c1_1c&#45;&#45;_3c0_2c1_1c0_0c -->
<g id="edge11" class="edge">
<title>_3c0_2c1_1c--_3c0_2c1_1c0_0c</title>
<path fill="none" stroke="black" d="M233.93,-218.19C245.38,-220.92 258.82,-224.13 270.26,-226.86"/>
</g>
<!-- _3c0_2c1_1c1_0c -->
<g id="node13" class="node">
<title>_3c0_2c1_1c1_0c</title>
<path fill="LightSkyBlue" stroke="black" stroke-width="0" d="M312,-208C312,-208 282,-208 282,-208 276,-208 270,-202 270,-196 270,-196 270,-184 270,-184 270,-178 276,-172 282,-172 282,-172 312,-172 312,-172 318,-172 324,-178 324,-184 324,-184 324,-196 324,-196 324,-202 318,-208 312,-208"/>
<text text-anchor="middle" x="297" y="-185.8" font-family="Comic Sans MS" font-size="14.00">4</text>
</g>
<!-- _3c0_2c1_1c&#45;&#45;_3c0_2c1_1c1_0c -->
<g id="edge12" class="edge">
<title>_3c0_2c1_1c--_3c0_2c1_1c1_0c</title>
<path fill="none" stroke="black" d="M233.93,-205.52C245.38,-202.65 258.82,-199.29 270.26,-196.44"/>
</g>
<!-- _3c0_2c0_1c0_0c0_0a -->
<g id="node8" class="node">
<title>_3c0_2c0_1c0_0c0_0a</title>
<path fill="none" stroke="black" d="M402,-423C402,-423 372,-423 372,-423 366,-423 360,-417 360,-411 360,-411 360,-399 360,-399 360,-393 366,-387 372,-387 372,-387 402,-387 402,-387 408,-387 414,-393 414,-399 414,-399 414,-411 414,-411 414,-417 408,-423 402,-423"/>
<text text-anchor="middle" x="387" y="-400.8" font-family="Comic Sans MS" font-size="14.00">4</text>
</g>
<!-- _3c0_2c0_1c0_0c&#45;&#45;_3c0_2c0_1c0_0c0_0a -->
<g id="edge7" class="edge">
<title>_3c0_2c0_1c0_0c--_3c0_2c0_1c0_0c0_0a</title>
<path fill="none" stroke="black" d="M323.93,-374.67C335.18,-380.17 348.35,-386.6 359.65,-392.12"/>
</g>
<!-- _3c0_2c0_1c0_0c1_0b -->
<g id="node9" class="node">
<title>_3c0_2c0_1c0_0c1_0b</title>
<path fill="none" stroke="black" d="M402,-380C402,-380 372,-380 372,-380 366,-380 360,-374 360,-368 360,-368 360,-356 360,-356 360,-350 366,-344 372,-344 372,-344 402,-344 402,-344 408,-344 414,-350 414,-356 414,-356 414,-368 414,-368 414,-374 408,-380 402,-380"/>
<text text-anchor="middle" x="387" y="-357.8" font-family="Comic Sans MS" font-size="14.00">1</text>
</g>
<!-- _3c0_2c0_1c0_0c&#45;&#45;_3c0_2c0_1c0_0c1_0b -->
<g id="edge8" class="edge">
<title>_3c0_2c0_1c0_0c--_3c0_2c0_1c0_0c1_0b</title>
<path fill="none" stroke="black" d="M323.93,-362C335.18,-362 348.35,-362 359.65,-362"/>
</g>
<!-- _3c0_2c0_1c1_0c0_0a -->
<g id="node10" class="node">
<title>_3c0_2c0_1c1_0c0_0a</title>
<path fill="none" stroke="black" d="M402,-337C402,-337 372,-337 372,-337 366,-337 360,-331 360,-325 360,-325 360,-313 360,-313 360,-307 366,-301 372,-301 372,-301 402,-301 402,-301 408,-301 414,-307 414,-313 414,-313 414,-325 414,-325 414,-331 408,-337 402,-337"/>
<text text-anchor="middle" x="387" y="-314.8" font-family="Comic Sans MS" font-size="14.00">8</text>
</g>
<!-- _3c0_2c0_1c1_0c&#45;&#45;_3c0_2c0_1c1_0c0_0a -->
<g id="edge9" class="edge">
<title>_3c0_2c0_1c1_0c--_3c0_2c0_1c1_0c0_0a</title>
<path fill="none" stroke="black" d="M323.93,-288.67C335.18,-294.17 348.35,-300.6 359.65,-306.12"/>
</g>
<!-- _3c0_2c0_1c1_0c1_0b -->
<g id="node11" class="node">
<title>_3c0_2c0_1c1_0c1_0b</title>
<path fill="none" stroke="black" d="M402,-294C402,-294 372,-294 372,-294 366,-294 360,-288 360,-282 360,-282 360,-270 360,-270 360,-264 366,-258 372,-258 372,-258 402,-258 402,-258 408,-258 414,-264 414,-270 414,-270 414,-282 414,-282 414,-288 408,-294 402,-294"/>
<text text-anchor="middle" x="387" y="-271.8" font-family="Comic Sans MS" font-size="14.00">4</text>
</g>
<!-- _3c0_2c0_1c1_0c&#45;&#45;_3c0_2c0_1c1_0c1_0b -->
<g id="edge10" class="edge">
<title>_3c0_2c0_1c1_0c--_3c0_2c0_1c1_0c1_0b</title>
<path fill="none" stroke="black" d="M323.93,-276C335.18,-276 348.35,-276 359.65,-276"/>
</g>
<!-- _3c0_2c1_1c0_0c0_0a -->
<g id="node14" class="node">
<title>_3c0_2c1_1c0_0c0_0a</title>
<path fill="none" stroke="black" d="M402,-251C402,-251 372,-251 372,-251 366,-251 360,-245 360,-239 360,-239 360,-227 360,-227 360,-221 366,-215 372,-215 372,-215 402,-215 402,-215 408,-215 414,-221 414,-227 414,-227 414,-239 414,-239 414,-245 408,-251 402,-251"/>
<text text-anchor="middle" x="387" y="-228.8" font-family="Comic Sans MS" font-size="14.00">1</text>
</g>
<!-- _3c0_2c1_1c0_0c&#45;&#45;_3c0_2c1_1c0_0c0_0a -->
<g id="edge13" class="edge">
<title>_3c0_2c1_1c0_0c--_3c0_2c1_1c0_0c0_0a</title>
<path fill="none" stroke="black" d="M323.93,-233C335.18,-233 348.35,-233 359.65,-233"/>
</g>
<!-- _3c0_2c1_1c1_0c0_0a -->
<g id="node15" class="node">
<title>_3c0_2c1_1c1_0c0_0a</title>
<path fill="none" stroke="black" d="M402,-208C402,-208 372,-208 372,-208 366,-208 360,-202 360,-196 360,-196 360,-184 360,-184 360,-178 366,-172 372,-172 372,-172 402,-172 402,-172 408,-172 414,-178 414,-184 414,-184 414,-196 414,-196 414,-202 408,-208 402,-208"/>
<text text-anchor="middle" x="387" y="-185.8" font-family="Comic Sans MS" font-size="14.00">4</text>
</g>
<!-- _3c0_2c1_1c1_0c&#45;&#45;_3c0_2c1_1c1_0c0_0a -->
<g id="edge14" class="edge">
<title>_3c0_2c1_1c1_0c--_3c0_2c1_1c1_0c0_0a</title>
<path fill="none" stroke="black" d="M323.93,-190C335.18,-190 348.35,-190 359.65,-190"/>
</g>
<!-- _3c1_2c0_1c0_0c -->
<g id="node18" class="node">
<title>_3c1_2c0_1c0_0c</title>
<path fill="LightSkyBlue" stroke="black" stroke-width="0" d="M312,-165C312,-165 282,-165 282,-165 276,-165 270,-159 270,-153 270,-153 270,-141 270,-141 270,-135 276,-129 282,-129 282,-129 312,-129 312,-129 318,-129 324,-135 324,-141 324,-141 324,-153 324,-153 324,-159 318,-165 312,-165"/>
<text text-anchor="middle" x="297" y="-142.8" font-family="Comic Sans MS" font-size="14.00">4</text>
</g>
<!-- _3c1_2c0_1c&#45;&#45;_3c1_2c0_1c0_0c -->
<g id="edge17" class="edge">
<title>_3c1_2c0_1c--_3c1_2c0_1c0_0c</title>
<path fill="none" stroke="black" d="M233.93,-132.19C245.38,-134.92 258.82,-138.13 270.26,-140.86"/>
</g>
<!-- _3c1_2c0_1c1_0c -->
<g id="node19" class="node">
<title>_3c1_2c0_1c1_0c</title>
<path fill="LightSkyBlue" stroke="black" stroke-width="0" d="M312,-122C312,-122 282,-122 282,-122 276,-122 270,-116 270,-110 270,-110 270,-98 270,-98 270,-92 276,-86 282,-86 282,-86 312,-86 312,-86 318,-86 324,-92 324,-98 324,-98 324,-110 324,-110 324,-116 318,-122 312,-122"/>
<text text-anchor="middle" x="297" y="-99.8" font-family="Comic Sans MS" font-size="14.00">7</text>
</g>
<!-- _3c1_2c0_1c&#45;&#45;_3c1_2c0_1c1_0c -->
<g id="edge18" class="edge">
<title>_3c1_2c0_1c--_3c1_2c0_1c1_0c</title>
<path fill="none" stroke="black" d="M233.93,-119.52C245.38,-116.65 258.82,-113.29 270.26,-110.44"/>
</g>
<!-- _3c1_2c1_1c1_0c -->
<g id="node23" class="node">
<title>_3c1_2c1_1c1_0c</title>
<path fill="LightSkyBlue" stroke="black" stroke-width="0" d="M312,-58C312,-58 282,-58 282,-58 276,-58 270,-52 270,-46 270,-46 270,-34 270,-34 270,-28 276,-22 282,-22 282,-22 312,-22 312,-22 318,-22 324,-28 324,-34 324,-34 324,-46 324,-46 324,-52 318,-58 312,-58"/>
<text text-anchor="middle" x="297" y="-35.8" font-family="Comic Sans MS" font-size="14.00">3</text>
</g>
<!-- _3c1_2c1_1c&#45;&#45;_3c1_2c1_1c1_0c -->
<g id="edge22" class="edge">
<title>_3c1_2c1_1c--_3c1_2c1_1c1_0c</title>
<path fill="none" stroke="black" d="M233.93,-55.52C245.38,-52.65 258.82,-49.29 270.26,-46.44"/>
</g>
<!-- _3c1_2c0_1c0_0c0_0a -->
<g id="node20" class="node">
<title>_3c1_2c0_1c0_0c0_0a</title>
<path fill="none" stroke="black" d="M402,-165C402,-165 372,-165 372,-165 366,-165 360,-159 360,-153 360,-153 360,-141 360,-141 360,-135 366,-129 372,-129 372,-129 402,-129 402,-129 408,-129 414,-135 414,-141 414,-141 414,-153 414,-153 414,-159 408,-165 402,-165"/>
<text text-anchor="middle" x="387" y="-142.8" font-family="Comic Sans MS" font-size="14.00">4</text>
</g>
<!-- _3c1_2c0_1c0_0c&#45;&#45;_3c1_2c0_1c0_0c0_0a -->
<g id="edge19" class="edge">
<title>_3c1_2c0_1c0_0c--_3c1_2c0_1c0_0c0_0a</title>
<path fill="none" stroke="black" d="M323.93,-147C335.18,-147 348.35,-147 359.65,-147"/>
</g>
<!-- _3c1_2c0_1c1_0c0_0a -->
<g id="node21" class="node">
<title>_3c1_2c0_1c1_0c0_0a</title>
<path fill="none" stroke="black" d="M402,-122C402,-122 372,-122 372,-122 366,-122 360,-116 360,-110 360,-110 360,-98 360,-98 360,-92 366,-86 372,-86 372,-86 402,-86 402,-86 408,-86 414,-92 414,-98 414,-98 414,-110 414,-110 414,-116 408,-122 402,-122"/>
<text text-anchor="middle" x="387" y="-99.8" font-family="Comic Sans MS" font-size="14.00">7</text>
</g>
<!-- _3c1_2c0_1c1_0c&#45;&#45;_3c1_2c0_1c1_0c0_0a -->
<g id="edge20" class="edge">
<title>_3c1_2c0_1c1_0c--_3c1_2c0_1c1_0c0_0a</title>
<path fill="none" stroke="black" d="M323.93,-104C335.18,-104 348.35,-104 359.65,-104"/>
</g>
<!-- _3c1_2c0_1c1_0c1_0b -->
<g id="node22" class="node">
<title>_3c1_2c0_1c1_0c1_0b</title>
<path fill="none" stroke="black" d="M402,-79C402,-79 372,-79 372,-79 366,-79 360,-73 360,-67 360,-67 360,-55 360,-55 360,-49 366,-43 372,-43 372,-43 402,-43 402,-43 408,-43 414,-49 414,-55 414,-55 414,-67 414,-67 414,-73 408,-79 402,-79"/>
<text text-anchor="middle" x="387" y="-56.8" font-family="Comic Sans MS" font-size="14.00">3</text>
</g>
<!-- _3c1_2c0_1c1_0c&#45;&#45;_3c1_2c0_1c1_0c1_0b -->
<g id="edge21" class="edge">
<title>_3c1_2c0_1c1_0c--_3c1_2c0_1c1_0c1_0b</title>
<path fill="none" stroke="black" d="M323.93,-91.33C335.18,-85.83 348.35,-79.4 359.65,-73.88"/>
</g>
<!-- _3c1_2c1_1c1_0c0_0a -->
<g id="node24" class="node">
<title>_3c1_2c1_1c1_0c0_0a</title>
<path fill="none" stroke="black" d="M402,-36C402,-36 372,-36 372,-36 366,-36 360,-30 360,-24 360,-24 360,-12 360,-12 360,-6 366,0 372,0 372,0 402,0 402,0 408,0 414,-6 414,-12 414,-12 414,-24 414,-24 414,-30 408,-36 402,-36"/>
<text text-anchor="middle" x="387" y="-13.8" font-family="Comic Sans MS" font-size="14.00">3</text>
</g>
<!-- _3c1_2c1_1c1_0c&#45;&#45;_3c1_2c1_1c1_0c0_0a -->
<g id="edge23" class="edge">
<title>_3c1_2c1_1c1_0c--_3c1_2c1_1c1_0c0_0a</title>
<path fill="none" stroke="black" d="M323.93,-33.52C335.18,-30.7 348.35,-27.41 359.65,-24.59"/>
</g>
</g>
</svg>