<?xml version="1.0" standalone="no"?>
<svg xmlns="http://www.w3.org/2000/svg" xmlns:xlink="http://www.w3.org/1999/xlink" width="1790pt" height="206pt" viewBox="0.00 0.00 1790 205.8">
<g id="graph0" class="graph" transform="translate(4,201.8000030517578) scale(1)" data-name="">
<polygon fill="white" stroke="none" points="-4,4 -4,-201.8 1786,-201.8 1786,4 -4,4"/>
<!-- _6c -->
<g id="node1" class="node" pointer-events="visible" data-name="_5c" data-comment="_6c">

<ellipse fill="none" stroke="black" cx="891" cy="-179.8" rx="31.89" ry="18"/>
<text text-anchor="middle" x="891" y="-175.6" font-family="Times,serif" font-size="14.00">5 CH</text>
</g>
<!-- _6c0_4c -->
<g id="node2" class="node" pointer-events="visible" data-name="_5c0_4c" data-comment="_6c0_4c">

<ellipse fill="none" stroke="black" cx="207" cy="-91" rx="31.89" ry="18"/>
<text text-anchor="middle" x="207" y="-86.8" font-family="Times,serif" font-size="14.00">4 CH</text>
</g>
<!-- _6c&#45;&#45;_6c0_4c -->
<g id="edge1" class="edge" data-name="_5c--_5c0_4c" data-comment="_6c--_6c0_4c">

<path fill="none" stroke="black" d="M859.83,-174.84C745.75,-160.37 351.69,-110.36 237.96,-95.93"/>
<text text-anchor="middle" x="620.39" y="-131.2" font-family="Times,serif" font-size="14.00">5=l</text>
</g>
<!-- _6c1_4c -->
<g id="node3" class="node" pointer-events="visible" data-name="_5c1_4c" data-comment="_6c1_4c">

<ellipse fill="none" stroke="black" cx="567" cy="-91" rx="31.89" ry="18"/>
<text text-anchor="middle" x="567" y="-86.8" font-family="Times,serif" font-size="14.00">4 CH</text>
</g>
<!-- _6c&#45;&#45;_6c1_4c -->
<g id="edge2" class="edge" data-name="_5c--_5c1_4c" data-comment="_6c--_6c1_4c">

<path fill="none" stroke="black" d="M862.53,-171.17C801.07,-154.71 656.58,-116 595.29,-99.58"/>
<text text-anchor="middle" x="769.95" y="-131.2" font-family="Times,serif" font-size="14.00">5=n</text>
</g>
<!-- _6c2_4c -->
<g id="node4" class="node" pointer-events="visible" data-name="_5c2_4c" data-comment="_6c2_4c">

<ellipse fill="none" stroke="black" cx="891" cy="-91" rx="31.89" ry="18"/>
<text text-anchor="middle" x="891" y="-86.8" font-family="Times,serif" font-size="14.00">4 CH</text>
</g>
<!-- _6c&#45;&#45;_6c2_4c -->
<g id="edge3" class="edge" data-name="_5c--_5c2_4c" data-comment="_6c--_6c2_4c">

<path fill="none" stroke="black" d="M891,-161.65C891,-146.53 891,-124.61 891,-109.41"/>
<text text-anchor="middle" x="900.78" y="-131.2" font-family="Times,serif" font-size="14.00">5=r</text>
</g>
<!-- _6c3_4c -->
<g id="node5" class="node" pointer-events="visible" data-name="_5c3_4c" data-comment="_6c3_4c">

<ellipse fill="none" stroke="black" cx="1215" cy="-91" rx="31.89" ry="18"/>
<text text-anchor="middle" x="1215" y="-86.8" font-family="Times,serif" font-size="14.00">4 CH</text>
</g>
<!-- _6c&#45;&#45;_6c3_4c -->
<g id="edge4" class="edge" data-name="_5c--_5c3_4c" data-comment="_6c--_6c3_4c">

<path fill="none" stroke="black" d="M919.47,-171.17C980.93,-154.71 1125.42,-116 1186.71,-99.58"/>
<text text-anchor="middle" x="1093.17" y="-131.2" font-family="Times,serif" font-size="14.00">5=s</text>
</g>
<!-- _6c4_4c -->
<g id="node6" class="node" pointer-events="visible" data-name="_5c4_4c" data-comment="_6c4_4c">

<ellipse fill="none" stroke="black" cx="1575" cy="-91" rx="31.89" ry="18"/>
<text text-anchor="middle" x="1575" y="-86.8" font-family="Times,serif" font-size="14.00">4 CH</text>
</g>
<!-- _6c&#45;&#45;_6c4_4c -->
<g id="edge5" class="edge" data-name="_5c--_5c4_4c" data-comment="_6c--_6c4_4c">

<path fill="none" stroke="black" d="M922.17,-174.84C1036.25,-160.37 1430.31,-110.36 1544.04,-95.93"/>
<text text-anchor="middle" x="1305.95" y="-131.2" font-family="Times,serif" font-size="14.00">5=y</text>
</g>
<!-- _6c0_4c0_4l -->
<g id="node7" class="node" pointer-events="visible" data-name="_5c0_4c0_4a" data-comment="_6c0_4c0_4l">

<polygon fill="none" stroke="black" points="54,-36 0,-36 0,0 54,0 54,-36"/>
<text text-anchor="middle" x="27" y="-13.8" font-family="Times,serif" font-size="14.00">4=a</text>
</g>
<!-- _6c0_4c&#45;&#45;_6c0_4c0_4l -->
<g id="edge6" class="edge" data-name="_5c0_4c--_5c0_4c0_4a" data-comment="_6c0_4c--_6c0_4c0_4l">

<path fill="none" stroke="black" d="M181.21,-79.83C147.48,-66.52 88.64,-43.31 54.21,-29.73"/>
</g>
<!-- _6c0_4c1_4n -->
<g id="node8" class="node" pointer-events="visible" data-name="_5c0_4c1_4e" data-comment="_6c0_4c1_4n">

<polygon fill="none" stroke="black" points="126,-36 72,-36 72,0 126,0 126,-36"/>
<text text-anchor="middle" x="99" y="-13.8" font-family="Times,serif" font-size="14.00">4=e</text>
</g>
<!-- _6c0_4c&#45;&#45;_6c0_4c1_4n -->
<g id="edge7" class="edge" data-name="_5c0_4c--_5c0_4c1_4e" data-comment="_6c0_4c--_6c0_4c1_4n">

<path fill="none" stroke="black" d="M186.69,-76.65C169.33,-65.24 144.25,-48.75 125.36,-36.33"/>
</g>
<!-- _6c0_4c2_4r -->
<g id="node9" class="node" pointer-events="visible" data-name="_5c0_4c2_4i" data-comment="_6c0_4c2_4r">

<polygon fill="none" stroke="black" points="198,-36 144,-36 144,0 198,0 198,-36"/>
<text text-anchor="middle" x="171" y="-13.8" font-family="Times,serif" font-size="14.00">4=i</text>
</g>
<!-- _6c0_4c&#45;&#45;_6c0_4c2_4r -->
<g id="edge8" class="edge" data-name="_5c0_4c--_5c0_4c2_4i" data-comment="_6c0_4c--_6c0_4c2_4r">

<path fill="none" stroke="black" d="M198.47,-73.17C192.85,-62.1 185.52,-47.64 179.85,-36.45"/>
</g>
<!-- _6c0_4c3_4s -->
<g id="node10" class="node" pointer-events="visible" data-name="_5c0_4c3_4o" data-comment="_6c0_4c3_4s">

<polygon fill="none" stroke="black" points="270,-36 216,-36 216,0 270,0 270,-36"/>
<text text-anchor="middle" x="243" y="-13.8" font-family="Times,serif" font-size="14.00">4=o</text>
</g>
<!-- _6c0_4c&#45;&#45;_6c0_4c3_4s -->
<g id="edge9" class="edge" data-name="_5c0_4c--_5c0_4c3_4o" data-comment="_6c0_4c--_6c0_4c3_4s">

<path fill="none" stroke="black" d="M215.53,-73.17C221.15,-62.1 228.48,-47.64 234.15,-36.45"/>
</g>
<!-- _6c0_4c4_4y -->
<g id="node11" class="node" pointer-events="visible" data-name="_5c0_4c4_4u" data-comment="_6c0_4c4_4y">

<polygon fill="none" stroke="black" points="342,-36 288,-36 288,0 342,0 342,-36"/>
<text text-anchor="middle" x="315" y="-13.8" font-family="Times,serif" font-size="14.00">4=u</text>
</g>
<!-- _6c0_4c&#45;&#45;_6c0_4c4_4y -->
<g id="edge10" class="edge" data-name="_5c0_4c--_5c0_4c4_4u" data-comment="_6c0_4c--_6c0_4c4_4y">

<path fill="none" stroke="black" d="M227.31,-76.65C244.67,-65.24 269.75,-48.75 288.64,-36.33"/>
</g>
<!-- _6c1_4c0_4l -->
<g id="node12" class="node" pointer-events="visible" data-name="_5c1_4c0_4a" data-comment="_6c1_4c0_4l">

<polygon fill="none" stroke="black" points="414,-36 360,-36 360,0 414,0 414,-36"/>
<text text-anchor="middle" x="387" y="-13.8" font-family="Times,serif" font-size="14.00">4=a</text>
</g>
<!-- _6c1_4c&#45;&#45;_6c1_4c0_4l -->
<g id="edge11" class="edge" data-name="_5c1_4c--_5c1_4c0_4a" data-comment="_6c1_4c--_6c1_4c0_4l">

<path fill="none" stroke="black" d="M541.21,-79.83C507.48,-66.52 448.64,-43.31 414.21,-29.73"/>
</g>
<!-- _6c1_4c1_4n -->
<g id="node13" class="node" pointer-events="visible" data-name="_5c1_4c1_4e" data-comment="_6c1_4c1_4n">

<polygon fill="none" stroke="black" points="486,-36 432,-36 432,0 486,0 486,-36"/>
<text text-anchor="middle" x="459" y="-13.8" font-family="Times,serif" font-size="14.00">4=e</text>
</g>
<!-- _6c1_4c&#45;&#45;_6c1_4c1_4n -->
<g id="edge12" class="edge" data-name="_5c1_4c--_5c1_4c1_4e" data-comment="_6c1_4c--_6c1_4c1_4n">

<path fill="none" stroke="black" d="M546.69,-76.65C529.33,-65.24 504.25,-48.75 485.36,-36.33"/>
</g>
<!-- _6c1_4c2_4r -->
<g id="node14" class="node" pointer-events="visible" data-name="_5c1_4c2_4i" data-comment="_6c1_4c2_4r">

<polygon fill="none" stroke="black" points="558,-36 504,-36 504,0 558,0 558,-36"/>
<text text-anchor="middle" x="531" y="-13.8" font-family="Times,serif" font-size="14.00">4=i</text>
</g>
<!-- _6c1_4c&#45;&#45;_6c1_4c2_4r -->
<g id="edge13" class="edge" data-name="_5c1_4c--_5c1_4c2_4i" data-comment="_6c1_4c--_6c1_4c2_4r">

<path fill="none" stroke="black" d="M558.47,-73.17C552.85,-62.1 545.52,-47.64 539.85,-36.45"/>
</g>
<!-- _6c1_4c3_4s -->
<g id="node15" class="node" pointer-events="visible" data-name="_5c1_4c3_4o" data-comment="_6c1_4c3_4s">

<polygon fill="none" stroke="black" points="630,-36 576,-36 576,0 630,0 630,-36"/>
<text text-anchor="middle" x="603" y="-13.8" font-family="Times,serif" font-size="14.00">4=o</text>
</g>
<!-- _6c1_4c&#45;&#45;_6c1_4c3_4s -->
<g id="edge14" class="edge" data-name="_5c1_4c--_5c1_4c3_4o" data-comment="_6c1_4c--_6c1_4c3_4s">

<path fill="none" stroke="black" d="M575.53,-73.17C581.15,-62.1 588.48,-47.64 594.15,-36.45"/>
</g>
<!-- _6c1_4c4_4y -->
<g id="node16" class="node" pointer-events="visible" data-name="_5c1_4c4_4u" data-comment="_6c1_4c4_4y">

<polygon fill="none" stroke="black" points="702,-36 648,-36 648,0 702,0 702,-36"/>
<text text-anchor="middle" x="675" y="-13.8" font-family="Times,serif" font-size="14.00">4=u</text>
</g>
<!-- _6c1_4c&#45;&#45;_6c1_4c4_4y -->
<g id="edge15" class="edge" data-name="_5c1_4c--_5c1_4c4_4u" data-comment="_6c1_4c--_6c1_4c4_4y">

<path fill="none" stroke="black" d="M587.31,-76.65C604.67,-65.24 629.75,-48.75 648.64,-36.33"/>
</g>
<!-- _6c2_4c0_4l -->
<g id="node17" class="node" pointer-events="visible" data-name="_5c2_4c0_4a" data-comment="_6c2_4c0_4l">

<polygon fill="none" stroke="black" points="774,-36 720,-36 720,0 774,0 774,-36"/>
<text text-anchor="middle" x="747" y="-13.8" font-family="Times,serif" font-size="14.00">4=a</text>
</g>
<!-- _6c2_4c&#45;&#45;_6c2_4c0_4l -->
<g id="edge16" class="edge" data-name="_5c2_4c--_5c2_4c0_4a" data-comment="_6c2_4c--_6c2_4c0_4l">

<path fill="none" stroke="black" d="M867.54,-78.43C842.04,-65.86 801.33,-45.79 774.38,-32.5"/>
</g>
<!-- _6c2_4c1_4n -->
<g id="node18" class="node" pointer-events="visible" data-name="_5c2_4c1_4e" data-comment="_6c2_4c1_4n">

<polygon fill="none" stroke="black" points="846,-36 792,-36 792,0 846,0 846,-36"/>
<text text-anchor="middle" x="819" y="-13.8" font-family="Times,serif" font-size="14.00">4=e</text>
</g>
<!-- _6c2_4c&#45;&#45;_6c2_4c1_4n -->
<g id="edge17" class="edge" data-name="_5c2_4c--_5c2_4c1_4e" data-comment="_6c2_4c--_6c2_4c1_4n">

<path fill="none" stroke="black" d="M875.73,-74.94C864.26,-63.63 848.52,-48.11 836.53,-36.28"/>
</g>
<!-- _6c2_4c2_4r -->
<g id="node19" class="node" pointer-events="visible" data-name="_5c2_4c2_4i" data-comment="_6c2_4c2_4r">

<polygon fill="none" stroke="black" points="918,-36 864,-36 864,0 918,0 918,-36"/>
<text text-anchor="middle" x="891" y="-13.8" font-family="Times,serif" font-size="14.00">4=i</text>
</g>
<!-- _6c2_4c&#45;&#45;_6c2_4c2_4r -->
<g id="edge18" class="edge" data-name="_5c2_4c--_5c2_4c2_4i" data-comment="_6c2_4c--_6c2_4c2_4r">

<path fill="none" stroke="black" d="M891,-72.81C891,-61.65 891,-47.16 891,-36.03"/>
</g>
<!-- _6c2_4c3_4s -->
<g id="node20" class="node" pointer-events="visible" data-name="_5c2_4c3_4o" data-comment="_6c2_4c3_4s">

<polygon fill="none" stroke="black" points="990,-36 936,-36 936,0 990,0 990,-36"/>
<text text-anchor="middle" x="963" y="-13.8" font-family="Times,serif" font-size="14.00">4=o</text>
</g>
<!-- _6c2_4c&#45;&#45;_6c2_4c3_4s -->
<g id="edge19" class="edge" data-name="_5c2_4c--_5c2_4c3_4o" data-comment="_6c2_4c--_6c2_4c3_4s">

<path fill="none" stroke="black" d="M906.27,-74.94C917.74,-63.63 933.48,-48.11 945.47,-36.28"/>
</g>
<!-- _6c2_4c4_4y -->
<g id="node21" class="node" pointer-events="visible" data-name="_5c2_4c4_4u" data-comment="_6c2_4c4_4y">

<polygon fill="none" stroke="black" points="1062,-36 1008,-36 1008,0 1062,0 1062,-36"/>
<text text-anchor="middle" x="1035" y="-13.8" font-family="Times,serif" font-size="14.00">4=u</text>
</g>
<!-- _6c2_4c&#45;&#45;_6c2_4c4_4y -->
<g id="edge20" class="edge" data-name="_5c2_4c--_5c2_4c4_4u" data-comment="_6c2_4c--_6c2_4c4_4y">

<path fill="none" stroke="black" d="M914.46,-78.43C939.96,-65.86 980.67,-45.79 1007.62,-32.5"/>
</g>
<!-- _6c3_4c0_4l -->
<g id="node22" class="node" pointer-events="visible" data-name="_5c3_4c0_4a" data-comment="_6c3_4c0_4l">

<polygon fill="none" stroke="black" points="1134,-36 1080,-36 1080,0 1134,0 1134,-36"/>
<text text-anchor="middle" x="1107" y="-13.8" font-family="Times,serif" font-size="14.00">4=a</text>
</g>
<!-- _6c3_4c&#45;&#45;_6c3_4c0_4l -->
<g id="edge21" class="edge" data-name="_5c3_4c--_5c3_4c0_4a" data-comment="_6c3_4c--_6c3_4c0_4l">

<path fill="none" stroke="black" d="M1194.69,-76.65C1177.33,-65.24 1152.25,-48.75 1133.36,-36.33"/>
</g>
<!-- _6c3_4c1_4n -->
<g id="node23" class="node" pointer-events="visible" data-name="_5c3_4c1_4e" data-comment="_6c3_4c1_4n">

<polygon fill="none" stroke="black" points="1206,-36 1152,-36 1152,0 1206,0 1206,-36"/>
<text text-anchor="middle" x="1179" y="-13.8" font-family="Times,serif" font-size="14.00">4=e</text>
</g>
<!-- _6c3_4c&#45;&#45;_6c3_4c1_4n -->
<g id="edge22" class="edge" data-name="_5c3_4c--_5c3_4c1_4e" data-comment="_6c3_4c--_6c3_4c1_4n">

<path fill="none" stroke="black" d="M1206.47,-73.17C1200.85,-62.1 1193.52,-47.64 1187.85,-36.45"/>
</g>
<!-- _6c3_4c2_4r -->
<g id="node24" class="node" pointer-events="visible" data-name="_5c3_4c2_4i" data-comment="_6c3_4c2_4r">

<polygon fill="none" stroke="black" points="1278,-36 1224,-36 1224,0 1278,0 1278,-36"/>
<text text-anchor="middle" x="1251" y="-13.8" font-family="Times,serif" font-size="14.00">4=i</text>
</g>
<!-- _6c3_4c&#45;&#45;_6c3_4c2_4r -->
<g id="edge23" class="edge" data-name="_5c3_4c--_5c3_4c2_4i" data-comment="_6c3_4c--_6c3_4c2_4r">

<path fill="none" stroke="black" d="M1223.53,-73.17C1229.15,-62.1 1236.48,-47.64 1242.15,-36.45"/>
</g>
<!-- _6c3_4c3_4s -->
<g id="node25" class="node" pointer-events="visible" data-name="_5c3_4c3_4o" data-comment="_6c3_4c3_4s">

<polygon fill="none" stroke="black" points="1350,-36 1296,-36 1296,0 1350,0 1350,-36"/>
<text text-anchor="middle" x="1323" y="-13.8" font-family="Times,serif" font-size="14.00">4=o</text>
</g>
<!-- _6c3_4c&#45;&#45;_6c3_4c3_4s -->
<g id="edge24" class="edge" data-name="_5c3_4c--_5c3_4c3_4o" data-comment="_6c3_4c--_6c3_4c3_4s">

<path fill="none" stroke="black" d="M1235.31,-76.65C1252.67,-65.24 1277.75,-48.75 1296.64,-36.33"/>
</g>
<!-- _6c3_4c4_4y -->
<g id="node26" class="node" pointer-events="visible" data-name="_5c3_4c4_4u" data-comment="_6c3_4c4_4y">

<polygon fill="none" stroke="black" points="1422,-36 1368,-36 1368,0 1422,0 1422,-36"/>
<text text-anchor="middle" x="1395" y="-13.8" font-family="Times,serif" font-size="14.00">4=u</text>
</g>
<!-- _6c3_4c&#45;&#45;_6c3_4c4_4y -->
<g id="edge25" class="edge" data-name="_5c3_4c--_5c3_4c4_4u" data-comment="_6c3_4c--_6c3_4c4_4y">

<path fill="none" stroke="black" d="M1240.79,-79.83C1274.52,-66.52 1333.36,-43.31 1367.79,-29.73"/>
</g>
<!-- _6c4_4c0_4l -->
<g id="node27" class="node" pointer-events="visible" data-name="_5c4_4c0_4a" data-comment="_6c4_4c0_4l">

<polygon fill="none" stroke="black" points="1494,-36 1440,-36 1440,0 1494,0 1494,-36"/>
<text text-anchor="middle" x="1467" y="-13.8" font-family="Times,serif" font-size="14.00">4=a</text>
</g>
<!-- _6c4_4c&#45;&#45;_6c4_4c0_4l -->
<g id="edge26" class="edge" data-name="_5c4_4c--_5c4_4c0_4a" data-comment="_6c4_4c--_6c4_4c0_4l">

<path fill="none" stroke="black" d="M1554.69,-76.65C1537.33,-65.24 1512.25,-48.75 1493.36,-36.33"/>
</g>
<!-- _6c4_4c1_4n -->
<g id="node28" class="node" pointer-events="visible" data-name="_5c4_4c1_4e" data-comment="_6c4_4c1_4n">

<polygon fill="none" stroke="black" points="1566,-36 1512,-36 1512,0 1566,0 1566,-36"/>
<text text-anchor="middle" x="1539" y="-13.8" font-family="Times,serif" font-size="14.00">4=e</text>
</g>
<!-- _6c4_4c&#45;&#45;_6c4_4c1_4n -->
<g id="edge27" class="edge" data-name="_5c4_4c--_5c4_4c1_4e" data-comment="_6c4_4c--_6c4_4c1_4n">

<path fill="none" stroke="black" d="M1566.47,-73.17C1560.85,-62.1 1553.52,-47.64 1547.85,-36.45"/>
</g>
<!-- _6c4_4c2_4r -->
<g id="node29" class="node" pointer-events="visible" data-name="_5c4_4c2_4i" data-comment="_6c4_4c2_4r">

<polygon fill="none" stroke="black" points="1638,-36 1584,-36 1584,0 1638,0 1638,-36"/>
<text text-anchor="middle" x="1611" y="-13.8" font-family="Times,serif" font-size="14.00">4=i</text>
</g>
<!-- _6c4_4c&#45;&#45;_6c4_4c2_4r -->
<g id="edge28" class="edge" data-name="_5c4_4c--_5c4_4c2_4i" data-comment="_6c4_4c--_6c4_4c2_4r">

<path fill="none" stroke="black" d="M1583.53,-73.17C1589.15,-62.1 1596.48,-47.64 1602.15,-36.45"/>
</g>
<!-- _6c4_4c3_4s -->
<g id="node30" class="node" pointer-events="visible" data-name="_5c4_4c3_4o" data-comment="_6c4_4c3_4s">

<polygon fill="none" stroke="black" points="1710,-36 1656,-36 1656,0 1710,0 1710,-36"/>
<text text-anchor="middle" x="1683" y="-13.8" font-family="Times,serif" font-size="14.00">4=o</text>
</g>
<!-- _6c4_4c&#45;&#45;_6c4_4c3_4s -->
<g id="edge29" class="edge" data-name="_5c4_4c--_5c4_4c3_4o" data-comment="_6c4_4c--_6c4_4c3_4s">

<path fill="none" stroke="black" d="M1595.31,-76.65C1612.67,-65.24 1637.75,-48.75 1656.64,-36.33"/>
</g>
<!-- _6c4_4c4_4y -->
<g id="node31" class="node" pointer-events="visible" data-name="_5c4_4c4_4u" data-comment="_6c4_4c4_4y">

<polygon fill="none" stroke="black" points="1782,-36 1728,-36 1728,0 1782,0 1782,-36"/>
<text text-anchor="middle" x="1755" y="-13.8" font-family="Times,serif" font-size="14.00">4=u</text>
</g>
<!-- _6c4_4c&#45;&#45;_6c4_4c4_4y -->
<g id="edge30" class="edge" data-name="_5c4_4c--_5c4_4c4_4u" data-comment="_6c4_4c--_6c4_4c4_4y">

<path fill="none" stroke="black" d="M1600.79,-79.83C1634.52,-66.52 1693.36,-43.31 1727.79,-29.73"/>
</g>
</g>
</svg>